<svg width="32" height="33" viewBox="0 0 32 33" fill="none" xmlns="http://www.w3.org/2000/svg">
<path fill-rule="evenodd" clip-rule="evenodd" d="M15.3334 5.26953C14.0447 5.26953 13 6.3142 13 7.60286C13 8.89153 14.0447 9.9362 15.3334 9.9362C16.622 9.9362 17.6667 8.89153 17.6667 7.60286C17.6667 6.3142 16.622 5.26953 15.3334 5.26953ZM11 7.60286C11 5.20963 12.9401 3.26953 15.3334 3.26953C17.7266 3.26953 19.6667 5.20963 19.6667 7.60286C19.6667 9.9961 17.7266 11.9362 15.3334 11.9362C12.9401 11.9362 11 9.9961 11 7.60286ZM25.3334 8.60286C25.8857 8.60286 26.3334 9.05058 26.3334 9.60286V28.2695C26.3334 28.8218 25.8857 29.2695 25.3334 29.2695C24.7811 29.2695 24.3334 28.8218 24.3334 28.2695V14.9283C22.0753 16.2428 19.2747 16.3582 16.8861 15.1639C16.8632 15.1525 16.8408 15.1402 16.8189 15.127C15.8979 14.5744 14.7151 15.1683 14.6082 16.237L14.5168 17.1518C14.4393 17.9269 14.8083 18.6788 15.4688 19.0916L15.9132 19.3694C18.247 20.828 19.762 23.2964 20.0059 26.0377L20.1966 28.1809C20.2455 28.731 19.8393 29.2166 19.2892 29.2656C18.739 29.3145 18.2534 28.9083 18.2045 28.3582L18.0138 26.215C17.8254 24.098 16.6555 22.1918 14.8532 21.0654L14.4088 20.7876C13.103 19.9715 12.3735 18.4851 12.5267 16.9528L12.6182 16.038C12.8696 13.5241 15.6376 12.1207 17.8109 13.3901C19.8793 14.4095 22.3556 14.1159 24.1288 12.6383L24.3334 12.4678V9.60286C24.3334 9.05058 24.7811 8.60286 25.3334 8.60286ZM12.2542 21.3024C12.7884 21.4428 13.1076 21.9896 12.9672 22.5237L12 22.2695C12.9672 22.5237 12.9672 22.5236 12.9672 22.5237L12.9664 22.5268L12.9647 22.533L12.959 22.5545L12.9378 22.6319C12.9195 22.698 12.8928 22.7922 12.8585 22.9083C12.7901 23.1402 12.6905 23.4618 12.5656 23.8229C12.3234 24.5226 11.9579 25.4537 11.5043 26.1491C11.0278 26.8798 10.2797 27.6179 9.7028 28.1402C9.40514 28.4096 9.13455 28.638 8.93807 28.7993C8.83962 28.8801 8.75924 28.9445 8.70271 28.9893L8.6364 29.0415L8.61792 29.0559L8.61258 29.06L8.61092 29.0613C8.61082 29.0613 8.60993 29.062 8.00005 28.2695L8.61092 29.0613C8.17324 29.3981 7.54439 29.3171 7.20756 28.8794C6.8708 28.4418 6.95245 27.8141 7.3899 27.4772C7.38986 27.4773 7.38993 27.4772 7.3899 27.4772L7.39291 27.4749L7.40592 27.4648L7.46056 27.4218C7.50901 27.3834 7.5804 27.3262 7.66909 27.2534C7.8469 27.1074 8.09214 26.9004 8.36057 26.6574C8.91587 26.1548 9.5011 25.5595 9.82911 25.0566C10.1414 24.5777 10.4426 23.8421 10.6756 23.1688C10.7882 22.8433 10.8784 22.5518 10.9403 22.3421C10.9712 22.2375 10.9949 22.1539 11.0106 22.0973L11.028 22.0336L11.0321 22.0185L11.0329 22.0154C11.0329 22.0154 11.0329 22.0153 11.0329 22.0154C11.1734 21.4814 11.7202 21.162 12.2542 21.3024Z" fill="#1C274C"/>
</svg>
