<svg width="14" height="14" viewBox="0 0 14 14" fill="none" xmlns="http://www.w3.org/2000/svg">
<g clip-path="url(#clip0_450_994)">
<path fill-rule="evenodd" clip-rule="evenodd" d="M3.48102 0.729172H3.51768C3.91048 0.729167 4.23173 0.729163 4.49281 0.750494C4.76304 0.772573 5.00711 0.819668 5.23504 0.935805C5.59176 1.11757 5.88179 1.40759 6.06355 1.76431C6.17968 1.99225 6.22678 2.23631 6.24886 2.50655C6.27019 2.76762 6.27019 3.08887 6.27018 3.48167V3.75201L7.46924 2.55295C7.747 2.27519 7.97415 2.04803 8.17385 1.8785C8.38055 1.70303 8.58643 1.56375 8.82972 1.4847C9.21049 1.36098 9.62065 1.36098 10.0014 1.4847C10.2447 1.56375 10.4506 1.70303 10.6573 1.8785C10.857 2.04802 11.0841 2.27518 11.3619 2.55293L11.3878 2.57889C11.6656 2.85663 11.8927 3.08377 12.0622 3.28346C12.2377 3.49016 12.377 3.69604 12.456 3.93933C12.5798 4.3201 12.5798 4.73026 12.456 5.11102C12.377 5.35432 12.2377 5.5602 12.0622 5.7669C11.8927 5.96658 11.6656 6.19373 11.3878 6.47147L10.1301 7.72917H10.5177C10.9105 7.72917 11.2317 7.72916 11.4928 7.75049C11.763 7.77257 12.0071 7.81967 12.235 7.9358C12.5918 8.11756 12.8818 8.40759 13.0635 8.76431C13.1797 8.99224 13.2268 9.23631 13.2489 9.50655C13.2702 9.76762 13.2702 10.0889 13.2702 10.4817V10.5183C13.2702 10.9111 13.2702 11.2324 13.2489 11.4935C13.2268 11.7637 13.1797 12.0078 13.0635 12.2357C12.8818 12.5924 12.5918 12.8824 12.235 13.0642C12.0071 13.1803 11.763 13.2274 11.4928 13.2495C11.2317 13.2708 10.9105 13.2708 10.5177 13.2708H3.5503C3.53948 13.2708 3.52861 13.2708 3.51769 13.2708H3.48101C3.08821 13.2708 2.76697 13.2708 2.50589 13.2495C2.23566 13.2274 1.99159 13.1803 1.76366 13.0642C1.40693 12.8824 1.11691 12.5924 0.935149 12.2357C0.819012 12.0078 0.771917 11.7637 0.749838 11.4935C0.728506 11.2324 0.728511 10.9111 0.728516 10.5183V3.48168C0.728511 3.08887 0.728506 2.76763 0.749838 2.50655C0.771917 2.23631 0.819012 1.99225 0.935149 1.76431C1.11691 1.40759 1.40693 1.11757 1.76366 0.935805C1.99159 0.819668 2.23566 0.772573 2.50589 0.750494C2.76697 0.729163 3.08822 0.729167 3.48102 0.729172ZM5.97187 12.3958H10.4993C10.9149 12.3958 11.2003 12.3955 11.4216 12.3774C11.6377 12.3598 11.7538 12.3274 11.8378 12.2846C12.0299 12.1867 12.186 12.0305 12.2839 11.8385C12.3267 11.7544 12.3591 11.6383 12.3768 11.4222C12.3948 11.201 12.3952 10.9156 12.3952 10.5C12.3952 10.0844 12.3948 9.79903 12.3768 9.5778C12.3591 9.36167 12.3267 9.24558 12.2839 9.16155C12.186 8.96947 12.0299 8.81331 11.8378 8.71543C11.7538 8.67262 11.6377 8.64024 11.4215 8.62259C11.2003 8.60451 10.9149 8.60417 10.4993 8.60417H9.25512L6.2359 11.6234C6.20962 11.8427 6.16078 12.0449 6.06355 12.2357C6.03551 12.2907 6.00491 12.3441 5.97187 12.3958ZM6.27018 10.3517L10.7561 5.86573C11.05 5.57187 11.2515 5.36983 11.3952 5.20062C11.5355 5.03531 11.5947 4.93032 11.6239 4.84063C11.6905 4.63561 11.6905 4.41475 11.6239 4.20972C11.5947 4.12004 11.5355 4.01505 11.3952 3.84974C11.2515 3.68052 11.05 3.47849 10.7561 3.18462C10.4623 2.89075 10.2602 2.6892 10.091 2.54555C9.92569 2.40521 9.82071 2.34601 9.73102 2.31687C9.52599 2.25025 9.30514 2.25025 9.10011 2.31687C9.01043 2.34601 8.90544 2.40521 8.74013 2.54555C8.57091 2.6892 8.36888 2.89075 8.07501 3.18462L6.82546 4.43417C6.46301 4.79662 6.37345 4.89714 6.32569 5.01244C6.27816 5.12719 6.27026 5.26086 6.27018 5.76731C6.27018 5.76977 6.27018 5.77225 6.27018 5.77473L6.27018 10.3517ZM5.39518 10.5241C5.39516 10.9267 5.39449 11.2053 5.37677 11.4222C5.35911 11.6383 5.32673 11.7544 5.28392 11.8385C5.18605 12.0305 5.02988 12.1867 4.8378 12.2846C4.75377 12.3274 4.63768 12.3598 4.42155 12.3774C4.20032 12.3955 3.91494 12.3958 3.49935 12.3958C3.08376 12.3958 2.79838 12.3955 2.57714 12.3774C2.36102 12.3598 2.24492 12.3274 2.1609 12.2846C1.96882 12.1867 1.81265 12.0305 1.71478 11.8385C1.67197 11.7544 1.63959 11.6383 1.62193 11.4222C1.60386 11.201 1.60352 10.9156 1.60352 10.5V3.5C1.60352 3.08441 1.60386 2.79903 1.62193 2.5778C1.63959 2.36168 1.67197 2.24558 1.71478 2.16156C1.81265 1.96947 1.96882 1.81331 2.1609 1.71544C2.24492 1.67262 2.36102 1.64025 2.57714 1.62259C2.79838 1.60451 3.08376 1.60417 3.49935 1.60417C3.91494 1.60417 4.20032 1.60451 4.42155 1.62259C4.63768 1.64025 4.75377 1.67262 4.8378 1.71544C5.02988 1.81331 5.18605 1.96947 5.28392 2.16156C5.32673 2.24558 5.35911 2.36168 5.37677 2.5778C5.39484 2.79903 5.39518 3.08441 5.39518 3.5V5.57036C5.39505 5.61397 5.39509 5.65857 5.39514 5.70424C5.39516 5.72746 5.39518 5.75095 5.39518 5.77473L5.39518 10.5C5.39518 10.5081 5.39518 10.5161 5.39518 10.5241ZM2.47852 11.0833C2.47852 10.8417 2.67439 10.6458 2.91602 10.6458H4.08268C4.32431 10.6458 4.52018 10.8417 4.52018 11.0833C4.52018 11.325 4.32431 11.5208 4.08268 11.5208H2.91602C2.67439 11.5208 2.47852 11.325 2.47852 11.0833Z" fill="#C60C30"/>
</g>
<defs>
<clipPath id="clip0_450_994">
<rect width="14" height="14" rx="5" fill="white"/>
</clipPath>
</defs>
</svg>
