<svg width="32" height="33" viewBox="0 0 32 33" fill="none" xmlns="http://www.w3.org/2000/svg">
<path fill-rule="evenodd" clip-rule="evenodd" d="M15.9251 1.93628H16.0755C18.5259 1.93626 20.4667 1.93624 21.9857 2.14046C23.5489 2.35063 24.8142 2.79345 25.812 3.79127C26.8098 4.78909 27.2526 6.05435 27.4628 7.61758C27.5998 8.63633 27.6449 9.84487 27.6597 11.2696H28.0003C29.289 11.2696 30.3337 12.3143 30.3337 13.6029V14.9363C30.3337 15.6707 29.9879 16.3623 29.4003 16.8029L27.6637 18.1054C27.654 19.7487 27.6154 21.1197 27.4628 22.255C27.2526 23.8182 26.8098 25.0835 25.812 26.0813C25.5588 26.3345 25.2884 26.5519 25.0003 26.7389V28.2696C25.0003 29.5583 23.9557 30.6029 22.667 30.6029H20.667C19.3783 30.6029 18.3337 29.5583 18.3337 28.2696V27.929C17.6341 27.9363 16.8825 27.9363 16.0755 27.9363H15.9251C15.1182 27.9363 14.3665 27.9363 13.667 27.929V28.2696C13.667 29.5583 12.6223 30.6029 11.3337 30.6029H9.33366C8.04499 30.6029 7.00033 29.5583 7.00033 28.2696V26.7389C6.71222 26.5519 6.44182 26.3345 6.18865 26.0813C5.19083 25.0835 4.74801 23.8182 4.53784 22.255C4.3852 21.1197 4.34666 19.7487 4.33693 18.1054L2.60033 16.8029C2.01278 16.3623 1.66699 15.6707 1.66699 14.9363V13.6029C1.66699 12.3143 2.71166 11.2696 4.00033 11.2696H4.34093C4.35577 9.84487 4.40087 8.63633 4.53784 7.61758C4.74801 6.05435 5.19083 4.78909 6.18865 3.79127C7.18647 2.79345 8.45173 2.35063 10.015 2.14046C11.5339 1.93624 13.4748 1.93626 15.9251 1.93628ZM4.33367 13.2696H4.00033C3.81623 13.2696 3.66699 13.4189 3.66699 13.6029V14.9363C3.66699 15.0412 3.71639 15.14 3.80033 15.2029L4.33366 15.6029L4.33366 13.5277C4.33366 13.4411 4.33366 13.355 4.33367 13.2696ZM6.34129 18.6029C6.35582 19.9811 6.39793 21.0805 6.52 21.9885C6.70036 23.3299 7.03858 24.1028 7.60286 24.6671C8.16714 25.2314 8.94 25.5696 10.2815 25.7499C11.6517 25.9342 13.4579 25.9363 16.0003 25.9363C18.5428 25.9363 20.349 25.9342 21.7192 25.7499C23.0606 25.5696 23.8335 25.2314 24.3978 24.6671C24.9621 24.1028 25.3003 23.3299 25.4806 21.9885C25.6027 21.0805 25.6448 19.9811 25.6594 18.6029H6.34129ZM25.667 16.6029H6.33369C6.33366 16.4933 6.33366 16.3822 6.33366 16.2696V13.6029C6.33366 11.0927 6.33573 9.30011 6.5131 7.93628H25.4875C25.6649 9.30011 25.667 11.0927 25.667 13.6029V16.2696C25.667 16.3822 25.667 16.4933 25.667 16.6029ZM27.667 15.6029L28.2003 15.2029C28.2843 15.14 28.3337 15.0412 28.3337 14.9363V13.6029C28.3337 13.4189 28.1844 13.2696 28.0003 13.2696H27.667C27.667 13.355 27.667 13.4411 27.667 13.5277V15.6029ZM24.935 5.93628C24.7846 5.65191 24.6067 5.4144 24.3978 5.20548C23.8335 4.6412 23.0606 4.30298 21.7192 4.12263C20.349 3.9384 18.5428 3.93628 16.0003 3.93628C13.4579 3.93628 11.6517 3.9384 10.2815 4.12263C8.94 4.30298 8.16714 4.6412 7.60286 5.20548C7.39395 5.4144 7.21601 5.65191 7.06561 5.93628H24.935ZM9.00033 27.5502V28.2696C9.00033 28.4537 9.14956 28.6029 9.33366 28.6029H11.3337C11.5178 28.6029 11.667 28.4537 11.667 28.2696V27.8753C11.0679 27.845 10.5183 27.7998 10.015 27.7321C9.66165 27.6846 9.32355 27.6252 9.00033 27.5502ZM20.3337 27.8753V28.2696C20.3337 28.4537 20.4829 28.6029 20.667 28.6029H22.667C22.8511 28.6029 23.0003 28.4537 23.0003 28.2696V27.5502C22.6771 27.6252 22.339 27.6846 21.9857 27.7321C21.4824 27.7998 20.9328 27.845 20.3337 27.8753ZM8.33366 21.6029C8.33366 21.0507 8.78137 20.6029 9.33366 20.6029H11.3337C11.8859 20.6029 12.3337 21.0507 12.3337 21.6029C12.3337 22.1552 11.8859 22.6029 11.3337 22.6029H9.33366C8.78137 22.6029 8.33366 22.1552 8.33366 21.6029ZM19.667 21.6029C19.667 21.0507 20.1147 20.6029 20.667 20.6029H22.667C23.2193 20.6029 23.667 21.0507 23.667 21.6029C23.667 22.1552 23.2193 22.6029 22.667 22.6029H20.667C20.1147 22.6029 19.667 22.1552 19.667 21.6029Z" fill="#1C274C"/>
</svg>
