<svg width="65" height="65" viewBox="0 0 65 65" fill="none" xmlns="http://www.w3.org/2000/svg">
<path d="M32.4997 42.5189C42.2487 42.5189 50.1518 34.6158 50.1518 24.8668C50.1518 15.1178 42.2487 7.21472 32.4997 7.21472C22.7508 7.21472 14.8477 15.1178 14.8477 24.8668C14.8477 34.6158 22.7508 42.5189 32.4997 42.5189Z" fill="#FDBB67"/>
<path d="M32.5 42.5189C37.1816 42.5189 41.6715 40.6591 44.9819 37.3487C48.2923 34.0383 50.1521 29.5484 50.1521 24.8668C50.1521 20.1852 48.2923 15.6953 44.9819 12.3849C41.6715 9.07449 37.1816 7.21472 32.5 7.21472V42.5189Z" fill="#F1924E"/>
<path d="M61.6988 49.9524L54.2988 39.0353H59.3216L53.8889 30.6527H56.6734L48.9564 18.921L41.2394 30.6527H44.0238L38.5911 39.0353H43.6138L36.2139 49.9524H61.6988Z" fill="#268081"/>
<path d="M61.6994 49.9524L54.2995 39.0353H59.3222L53.8895 30.6527H56.674L48.957 18.921V49.9524H61.6994Z" fill="#107153"/>
<path d="M28.7857 49.9524L21.3858 39.0353H26.4085L20.9758 30.6527H23.7602L16.0432 18.921L8.32622 30.6527H11.1107L5.67798 39.0353H10.7008L3.30078 49.9524H28.7857Z" fill="#268081"/>
<path d="M28.7855 49.9524L21.3855 39.0353H26.4083L20.9756 30.6527H23.7599L16.043 18.921V49.9524H28.7855Z" fill="#107153"/>
<path d="M48.3274 49.9523L39.1357 36.392H45.3747L38.6265 25.9797H42.0851L32.4996 11.4073L22.9142 25.9797H26.3727L19.6246 36.392H25.8635L16.6719 49.9523H48.3274Z" fill="#3ECB75"/>
<path d="M48.3278 49.9523L39.1361 36.392H45.3751L38.6269 25.9797H42.0855L32.5 11.4073V49.9523H48.3278Z" fill="#1B895C"/>
<path d="M20.2627 26.9991V21.9661C20.2627 21.7134 20.0578 21.5085 19.8052 21.5085H19.805C19.5523 21.5085 19.3475 21.7134 19.3475 21.9661V26.9991C19.3475 27.2518 19.5523 27.4567 19.805 27.4567H19.8052C20.0578 27.4567 20.2627 27.2518 20.2627 26.9991Z" fill="#3F3647"/>
<path d="M60.1025 55.2269V52.6504C60.1025 52.4299 59.9238 52.2512 59.7034 52.2512H59.7033C59.4828 52.2512 59.3041 52.4299 59.3041 52.6504V55.2269C59.3041 55.4473 59.4828 55.626 59.7033 55.626H59.7034C59.9238 55.626 60.1025 55.4473 60.1025 55.2269Z" fill="#FF4E42"/>
<path d="M32.3546 54.4663H59.5098L46.543 26.5587H19.3877L32.3546 54.4663Z" fill="#FB9F41"/>
<path d="M59.5095 54.466H32.3549L29.71 48.7735H34.6665C42.482 48.7735 47.6236 40.3946 44.2559 33.1467L41.195 26.5591H46.5431L59.5095 54.466Z" fill="#F97304"/>
<path d="M32.3379 54.4663H6.4043L19.371 26.5587L32.3379 54.4663Z" fill="#313131"/>
<path d="M19.371 26.5586C19.371 26.5586 20.8141 54.4663 6.4043 54.4663L19.371 26.5586Z" fill="#FFBE32"/>
<path d="M19.3878 26.5586C19.3878 26.5586 17.9448 54.4663 32.3547 54.4663L19.3878 26.5586Z" fill="#FFBE32"/>
<path d="M32.3545 55.1671V52.497C32.3545 52.2766 32.1758 52.0979 31.9554 52.0979H31.9552C31.7348 52.0979 31.5561 52.2766 31.5561 52.497V55.1671C31.5561 55.3876 31.7348 55.5663 31.9552 55.5663H31.9554C32.1758 55.5663 32.3545 55.3876 32.3545 55.1671Z" fill="#3F3647"/>
<path d="M6.75 54.9218V52.2517C6.75 52.0313 6.5713 51.8526 6.35086 51.8526H6.35073C6.13029 51.8526 5.95159 52.0313 5.95159 52.2517V54.9218C5.95159 55.1423 6.13029 55.321 6.35073 55.321H6.35086C6.5713 55.321 6.75 55.1423 6.75 54.9218Z" fill="#3F3647"/>
<path d="M60.0623 54.4663H4.93771C4.03366 54.4663 3.30078 55.1992 3.30078 56.1032V56.1483C3.30078 57.0524 4.03366 57.7852 4.93771 57.7852H60.0623C60.9663 57.7852 61.6992 57.0524 61.6992 56.1483V56.1032C61.6992 55.1992 60.9663 54.4663 60.0623 54.4663Z" fill="#67BDBE"/>
<path d="M60.0623 54.4663H34.1369C33.2329 54.4663 32.5 55.1992 32.5 56.1032V56.1483C32.5 57.0524 33.2329 57.7852 34.1369 57.7852H60.0623C60.9663 57.7852 61.6992 57.0524 61.6992 56.1483V56.1032C61.6992 55.1992 60.9663 54.4663 60.0623 54.4663Z" fill="#268081"/>
<path d="M19.3477 24.0683V19.8021L26.3934 21.9352L19.3477 24.0683Z" fill="#FF4775"/>
<path d="M26.393 21.9358L19.3467 24.068V22.6267L24.0103 21.2139L26.393 21.9358Z" fill="#C13057"/>
</svg>
