<svg width="65" height="65" viewBox="0 0 65 65" fill="none" xmlns="http://www.w3.org/2000/svg">
<path d="M60.4869 37.7732V45.4554C60.4869 46.2709 60.1629 47.0529 59.5863 47.6296C59.0097 48.2062 58.2277 48.5301 57.4122 48.5301H11.5221C10.7066 48.5301 9.92453 48.2062 9.3479 47.6296C8.77127 47.053 8.4473 46.2709 8.44727 45.4554V24.4364C8.44727 23.6209 8.77122 22.8389 9.34785 22.2622C9.92449 21.6856 10.7066 21.3616 11.5221 21.3616H39.5279C40.1222 21.3616 40.7037 21.5338 41.2022 21.8574C41.7006 22.181 42.0946 22.6421 42.3365 23.1849L46.4117 32.3295L58.0421 34.7637C58.7332 34.9084 59.3535 35.2865 59.7987 35.8345C60.2439 36.3826 60.4869 37.0672 60.4869 37.7732Z" fill="#FDBB67"/>
<path d="M60.4869 42.8761V45.4558C60.4869 45.8596 60.4074 46.2593 60.2529 46.6324C60.0984 47.0054 59.872 47.3443 59.5865 47.6298C59.301 47.9153 58.962 48.1417 58.589 48.2962C58.216 48.4507 57.8162 48.5302 57.4125 48.5301H11.5217C11.1179 48.5302 10.7181 48.4507 10.3451 48.2962C9.97211 48.1417 9.63317 47.9153 9.34768 47.6298C9.06218 47.3443 8.83572 47.0054 8.68123 46.6324C8.52673 46.2593 8.44723 45.8596 8.44727 45.4558V24.4361C8.44723 24.0323 8.52673 23.6325 8.68122 23.2595C8.83572 22.8865 9.06218 22.5475 9.34767 22.262C9.63316 21.9765 9.9721 21.7501 10.3451 21.5956C10.7181 21.4411 11.1179 21.3616 11.5217 21.3616H12.152V39.8018C12.152 40.2056 12.2315 40.6054 12.386 40.9784C12.5405 41.3514 12.7669 41.6903 13.0524 41.9758C13.3379 42.2613 13.6769 42.4877 14.0499 42.6422C14.4229 42.7967 14.8227 42.8762 15.2264 42.8761H60.4869Z" fill="#F97304"/>
<path d="M56.8779 48.5301H39.9551C39.998 46.3143 40.9084 44.2037 42.4906 42.6518C44.0728 41.1 46.2006 40.2307 48.4168 40.2307C50.6331 40.2307 52.7609 41.1 54.3431 42.6518C55.9253 44.2037 56.8356 46.3143 56.8786 48.5301H56.8779Z" fill="#F97304"/>
<path d="M43.9289 32.329H30.2832C30.1452 32.329 30.0128 32.2742 29.9151 32.1766C29.8175 32.0789 29.7627 31.9466 29.7627 31.8085V24.2079C29.7627 24.0699 29.8175 23.9375 29.9151 23.8399C30.0128 23.7423 30.1452 23.6874 30.2832 23.6874H40.5423C40.6428 23.6875 40.7413 23.7166 40.8256 23.7713C40.91 23.8261 40.9766 23.9041 41.0176 23.9959L44.4041 31.5967C44.4394 31.676 44.4543 31.7628 44.4475 31.8492C44.4407 31.9357 44.4124 32.0191 44.3652 32.0918C44.318 32.1646 44.2534 32.2244 44.1772 32.2658C44.101 32.3072 44.0156 32.329 43.9289 32.329Z" fill="#F97304"/>
<path d="M30.3848 31.3293V24.6875C30.3848 24.5871 30.4247 24.4909 30.4956 24.42C30.5666 24.3491 30.6628 24.3093 30.7631 24.3093H40.2318C40.3049 24.3093 40.3764 24.3304 40.4377 24.3703C40.499 24.4101 40.5475 24.4668 40.5772 24.5336L43.5365 31.1753C43.5621 31.2329 43.573 31.2959 43.5681 31.3588C43.5632 31.4217 43.5426 31.4823 43.5083 31.5352C43.474 31.5881 43.4269 31.6315 43.3715 31.6616C43.3161 31.6917 43.2541 31.7075 43.191 31.7075H30.7631C30.6628 31.7075 30.5666 31.6676 30.4956 31.5967C30.4247 31.5258 30.3848 31.4296 30.3848 31.3293Z" fill="#B4D5F4"/>
<path d="M27.5938 32.3295H12.1898C11.8598 32.3295 11.5433 32.1984 11.31 31.9651C11.0767 31.7318 10.9456 31.4154 10.9456 31.0854V24.9326C10.9456 24.6026 11.0767 24.2862 11.31 24.0529C11.5433 23.8195 11.8598 23.6885 12.1898 23.6885H27.5938V32.3295Z" fill="#F97304"/>
<path d="M26.9727 31.0846V24.9321C26.9727 24.5879 26.6936 24.3088 26.3494 24.3088H12.1904C11.8462 24.3088 11.5671 24.5879 11.5671 24.9321V31.0846C11.5671 31.4288 11.8462 31.7078 12.1904 31.7078H26.3494C26.6936 31.7078 26.9727 31.4288 26.9727 31.0846Z" fill="#67AEFD"/>
<path d="M43.1904 31.7075H30.7617C30.6615 31.7075 30.5654 31.6676 30.4945 31.5968C30.4236 31.5259 30.3838 31.4298 30.3838 31.3295V24.6872C30.3838 24.587 30.4236 24.4908 30.4945 24.42C30.5654 24.3491 30.6615 24.3093 30.7617 24.3093H32.312V29.3837C32.312 29.6215 32.4064 29.8495 32.5745 30.0177C32.7427 30.1858 32.9707 30.2803 33.2085 30.2803H43.1362L43.5352 31.1754C43.5607 31.2329 43.5715 31.2959 43.5665 31.3587C43.5615 31.4214 43.541 31.4819 43.5068 31.5347C43.4726 31.5875 43.4257 31.631 43.3705 31.6611C43.3152 31.6913 43.2534 31.7072 43.1904 31.7075Z" fill="#FB9F41"/>
<path d="M26.9718 30.2803V31.0846C26.9718 31.1664 26.9557 31.2474 26.9244 31.323C26.8931 31.3985 26.8472 31.4672 26.7894 31.525C26.7315 31.5829 26.6629 31.6287 26.5873 31.66C26.5117 31.6913 26.4307 31.7075 26.349 31.7075H12.1904C12.0249 31.7074 11.8662 31.6417 11.7492 31.5246C11.6321 31.4076 11.5664 31.2489 11.5664 31.0834V24.9321C11.5664 24.7669 11.632 24.6085 11.7488 24.4917C11.8656 24.3749 12.0241 24.3093 12.1892 24.3093H13.4958V29.1388C13.4958 29.2887 13.5253 29.4372 13.5827 29.5756C13.64 29.7141 13.7241 29.84 13.8301 29.946C13.9361 30.052 14.062 30.136 14.2004 30.1934C14.3389 30.2508 14.4874 30.2803 14.6373 30.2803H26.9718Z" fill="#72AAE7"/>
<path d="M27.5938 23.6877C27.9227 23.6877 28.2382 23.8184 28.4708 24.051C28.7034 24.2836 28.8341 24.5991 28.8341 24.928V48.5301H27.5938V23.6877Z" fill="#F97304"/>
<path d="M60.4873 40.1588H56.9677C56.6148 40.1588 56.2764 40.0186 56.0269 39.7691C55.7774 39.5196 55.6372 39.1812 55.6372 38.8283V37.8536C55.6372 37.7122 55.6934 37.5766 55.7934 37.4766C55.8934 37.3766 56.029 37.3204 56.1704 37.3204H60.4868V40.1588H60.4873Z" fill="#D6EFFE"/>
<path d="M60.4873 39.5681V40.1586H56.9679C56.7932 40.1586 56.6202 40.1242 56.4588 40.0574C56.2974 39.9905 56.1508 39.8925 56.0273 39.769C55.9037 39.6455 55.8058 39.4988 55.7389 39.3374C55.6721 39.1761 55.6377 39.0031 55.6377 38.8284V37.8538C55.6377 37.7123 55.6939 37.5767 55.7939 37.4767C55.8939 37.3767 56.0295 37.3206 56.1709 37.3206H56.6607C56.5142 37.5393 56.4362 37.7969 56.4369 38.0602V38.2379C56.4369 38.5907 56.577 38.9291 56.8265 39.1785C57.0759 39.428 57.4143 39.5681 57.7671 39.5681H60.4873Z" fill="#FF4E42"/>
<path d="M28.8346 48.5301H11.9111C11.954 46.3143 12.8644 44.2037 14.4466 42.6518C16.0288 41.1 18.1566 40.2307 20.3729 40.2307C22.5891 40.2307 24.7169 41.1 26.2991 42.6518C27.8813 44.2037 28.7917 46.3143 28.8346 48.5301Z" fill="#F97304"/>
<path d="M7.0625 45.7778V47.5051C7.0625 48.0713 7.52148 48.5303 8.08765 48.5303H60.6746C61.2407 48.5303 61.6997 48.0713 61.6997 47.5051V45.7778C61.6997 45.2116 61.2407 44.7527 60.6746 44.7527H8.08765C7.52148 44.7527 7.0625 45.2116 7.0625 45.7778Z" fill="#D6EFFE"/>
<path d="M56.8779 48.5301H39.9551C39.9793 47.212 40.3127 45.9179 40.9284 44.7521H55.9051C56.5207 45.9179 56.8539 47.212 56.8779 48.5301Z" fill="#AEDBFE"/>
<path d="M28.8346 48.5301H11.9111C11.9353 47.212 12.2687 45.9179 12.8845 44.7521H27.8611C28.4769 45.9179 28.8104 47.212 28.8346 48.5301Z" fill="#B4D5F4"/>
<path d="M20.3725 55.918C24.3606 55.918 27.5936 52.685 27.5936 48.6969C27.5936 44.7088 24.3606 41.4758 20.3725 41.4758C16.3844 41.4758 13.1514 44.7088 13.1514 48.6969C13.1514 52.685 16.3844 55.918 20.3725 55.918Z" fill="#3F3647"/>
<path d="M20.3726 52.259C19.6681 52.259 18.9794 52.0501 18.3937 51.6587C17.8079 51.2673 17.3513 50.711 17.0817 50.0602C16.8121 49.4093 16.7416 48.6931 16.879 48.0022C17.0164 47.3112 17.3556 46.6765 17.8537 46.1783C18.3518 45.6801 18.9865 45.3409 19.6774 45.2034C20.3684 45.0659 21.0846 45.1364 21.7355 45.4059C22.3864 45.6755 22.9427 46.132 23.3342 46.7177C23.7256 47.3034 23.9346 47.9921 23.9347 48.6966C23.9336 49.641 23.558 50.5464 22.8902 51.2143C22.2224 51.8821 21.317 52.2578 20.3726 52.259Z" fill="#D9EAFE"/>
<path d="M48.4164 55.918C52.4045 55.918 55.6375 52.685 55.6375 48.6969C55.6375 44.7088 52.4045 41.4758 48.4164 41.4758C44.4283 41.4758 41.1953 44.7088 41.1953 48.6969C41.1953 52.685 44.4283 55.918 48.4164 55.918Z" fill="#3F3647"/>
<path d="M48.4156 52.259C47.7111 52.259 47.0224 52.0501 46.4366 51.6587C45.8509 51.2673 45.3943 50.711 45.1247 50.0602C44.8551 49.4093 44.7845 48.6931 44.9219 48.0022C45.0593 47.3112 45.3986 46.6765 45.8967 46.1783C46.3948 45.6801 47.0295 45.3409 47.7204 45.2034C48.4114 45.0659 49.1276 45.1364 49.7784 45.4059C50.4293 45.6755 50.9857 46.132 51.3771 46.7177C51.7686 47.3034 51.9775 47.9921 51.9776 48.6966C51.9766 49.641 51.601 50.5464 50.9332 51.2143C50.2654 51.8821 49.36 52.2578 48.4156 52.259Z" fill="#D9EAFE"/>
<path d="M23.9354 48.6967C23.9355 49.2031 23.8277 49.7037 23.619 50.1651C23.4104 50.6266 23.1058 51.0382 22.7255 51.3726C22.3452 51.7071 21.8979 51.9566 21.4136 52.1045C20.9293 52.2524 20.419 52.2954 19.9167 52.2305C19.4145 52.1657 18.9319 51.9945 18.501 51.7284C18.0701 51.4623 17.701 51.1074 17.4181 50.6873C17.1352 50.2673 16.9452 49.7917 16.8606 49.2924C16.776 48.7931 16.7989 48.2815 16.9276 47.7917C17.1281 48.5527 17.5748 49.2259 18.1981 49.7063C18.8214 50.1866 19.5862 50.4471 20.3731 50.4471C21.16 50.4471 21.9248 50.1866 22.5481 49.7063C23.1714 49.2259 23.6181 48.5527 23.8186 47.7917C23.8962 48.0871 23.9355 48.3913 23.9354 48.6967Z" fill="#B4D5F4"/>
<path d="M51.9771 48.6967C51.9772 49.203 51.8694 49.7035 51.6607 50.1649C51.4521 50.6262 51.1475 51.0378 50.7673 51.3721C50.3871 51.7065 49.9399 51.9559 49.4557 52.1038C48.9714 52.2517 48.4612 52.2947 47.9591 52.2298C47.4569 52.165 46.9744 51.9938 46.5436 51.7277C46.1128 51.4616 45.7437 51.1068 45.4609 50.6868C45.1781 50.2668 44.9881 49.7914 44.9035 49.2922C44.819 48.7929 44.8418 48.2814 44.9706 47.7917C45.1709 48.5527 45.6175 49.2258 46.2407 49.7062C46.8638 50.1866 47.6285 50.4471 48.4154 50.4471C49.2022 50.4471 49.9669 50.1866 50.5901 49.7062C51.2133 49.2258 51.6599 48.5527 51.8602 47.7917C51.9379 48.0871 51.9772 48.3913 51.9771 48.6967Z" fill="#B4D5F4"/>
<path d="M7.13007 28.6368H4.61817C3.8906 28.6368 3.30078 29.2267 3.30078 29.9542V40.1585C3.30078 40.886 3.8906 41.4759 4.61817 41.4759H7.13007C7.85764 41.4759 8.44746 40.886 8.44746 40.1585V29.9542C8.44746 29.2267 7.85764 28.6368 7.13007 28.6368Z" fill="#3F3647"/>
<path d="M8.44727 34.4962H10.5262C10.7271 34.4962 10.9198 34.576 11.0618 34.7181C11.2039 34.8601 11.2837 35.0528 11.2837 35.2536V40.7591C11.2837 40.96 11.2039 41.1526 11.0618 41.2946C10.9198 41.4367 10.7271 41.5165 10.5262 41.5165H8.44727V34.496V34.4962Z" fill="#FF4E42"/>
<path d="M11.2843 35.2549V40.7597C11.2841 40.9606 11.204 41.1533 11.0618 41.2952C10.9196 41.4372 10.7268 41.5169 10.5259 41.5167H8.44727V40.705H9.80731C10.0081 40.7049 10.2006 40.625 10.3426 40.4831C10.4845 40.3411 10.5643 40.1486 10.5645 39.9478V34.4977C10.7587 34.5074 10.9418 34.5914 11.0758 34.7323C11.2099 34.8733 11.2845 35.0604 11.2843 35.2549Z" fill="#B72130"/>
<path d="M30.3829 35.4886C30.0404 35.4886 29.7627 35.7663 29.7627 36.1088C29.7627 36.4513 30.0404 36.7289 30.3829 36.7289H32.9468C33.2893 36.7289 33.567 36.4513 33.567 36.1088C33.567 35.7663 33.2893 35.4886 32.9468 35.4886H30.3829Z" fill="#F97304"/>
<path d="M14.7789 34.5088C14.5375 34.5088 14.3418 34.7045 14.3418 34.9459C14.3418 35.1873 14.5375 35.383 14.7789 35.383H21.2629C21.5043 35.383 21.7 35.1873 21.7 34.9459C21.7 34.7045 21.5043 34.5088 21.2629 34.5088H14.7789Z" fill="#F97304"/>
<path d="M14.7789 36.3203C14.5375 36.3203 14.3418 36.516 14.3418 36.7574C14.3418 36.9988 14.5375 37.1945 14.7789 37.1945H21.2629C21.5043 37.1945 21.7 36.9988 21.7 36.7574C21.7 36.516 21.5043 36.3203 21.2629 36.3203H14.7789Z" fill="#F97304"/>
<path d="M14.7789 38.1318C14.5375 38.1318 14.3418 38.3275 14.3418 38.5689C14.3418 38.8103 14.5375 39.006 14.7789 39.006H21.2629C21.5043 39.006 21.7 38.8103 21.7 38.5689C21.7 38.3275 21.5043 38.1318 21.2629 38.1318H14.7789Z" fill="#F97304"/>
<path d="M12.8018 18.7776L37.2006 18.7776C37.7937 18.7776 38.2744 18.2969 38.2744 17.7039V14.6602C38.2744 14.0672 37.7937 13.5864 37.2006 13.5864L12.8018 13.5864C12.2087 13.5864 11.728 14.0672 11.728 14.6602V17.7039C11.728 18.2969 12.2087 18.7776 12.8018 18.7776Z" fill="#72AAE7"/>
<path d="M12.168 16.6221L37.8344 16.6221C38.0774 16.6221 38.2744 16.4251 38.2744 16.1821C38.2744 15.939 38.0774 15.742 37.8344 15.742L12.168 15.742C11.925 15.742 11.728 15.939 11.728 16.1821C11.728 16.4251 11.925 16.6221 12.168 16.6221Z" fill="#3F3647"/>
<path d="M42.8044 15.1201C42.3247 15.1691 41.1637 14.6043 40.7035 14.4395C39.2841 13.873 37.7695 13.5826 36.2412 13.584H13.6259C11.6152 13.5404 9.64696 14.1837 7.81934 14.9745C5.33969 15.954 3.8113 12.1715 6.30466 11.1684L7.64871 10.6334C11.4835 8.51104 31.7814 9.82855 36.2412 9.48705C38.2884 9.48563 40.3171 9.87476 42.2184 10.6336L43.5625 11.1684C45.6364 11.922 44.9794 15.1963 42.8044 15.1201Z" fill="#FF4775"/>
<path d="M44.675 13.8168C44.4003 14.5616 43.7438 15.1533 42.804 15.1196C42.3254 15.1694 41.1642 14.6038 40.7043 14.4397C39.2847 13.8731 37.7699 13.5827 36.2414 13.584H13.6267C11.6151 13.5405 9.64725 14.1832 7.81976 14.9739C6.57155 15.4674 5.56469 14.7538 5.19043 13.7965C7.14843 13.0127 9.22462 12.4244 11.3417 12.4716H38.5288C40.3661 12.47 42.1868 12.819 43.8932 13.5C44.0796 13.5657 44.3618 13.6876 44.675 13.8168Z" fill="#C13057"/>
<path d="M44.6745 14.0029C44.6578 14.0029 44.6411 14.0007 44.625 13.9962L40.7581 12.9348C40.0817 12.7493 39.3835 12.6554 38.6822 12.6555H11.0642C10.3547 12.6554 9.64846 12.7517 8.96486 12.9416L5.2398 13.9764C5.216 13.9836 5.191 13.986 5.16626 13.9835C5.14151 13.9809 5.11754 13.9734 5.09574 13.9614C5.07393 13.9495 5.05475 13.9333 5.03931 13.9138C5.02387 13.8942 5.01248 13.8719 5.00583 13.8479C4.99917 13.8239 4.99737 13.7989 5.00055 13.7742C5.00372 13.7495 5.0118 13.7257 5.0243 13.7042C5.0368 13.6827 5.05348 13.6639 5.07335 13.649C5.09323 13.634 5.11589 13.6232 5.14001 13.6171L8.86507 12.5823C9.58118 12.3835 10.3209 12.2826 11.0642 12.2826H38.6823C39.417 12.2826 40.1484 12.3812 40.8569 12.5756L44.7239 13.6369C44.7674 13.6488 44.8052 13.6762 44.8302 13.7138C44.8551 13.7515 44.8655 13.7969 44.8595 13.8417C44.8535 13.8864 44.8314 13.9275 44.7974 13.9572C44.7634 13.987 44.7198 14.0033 44.6746 14.0033L44.6745 14.0029Z" fill="#B4D5F4"/>
<path d="M38.2749 17.7039C38.2749 17.8449 38.2472 17.9845 38.1932 18.1148C38.1392 18.245 38.0601 18.3634 37.9604 18.4631C37.8607 18.5628 37.7423 18.6419 37.6121 18.6959C37.4818 18.7499 37.3422 18.7776 37.2012 18.7776H12.8023C12.5175 18.7776 12.2444 18.6645 12.043 18.4631C11.8416 18.2618 11.7285 17.9886 11.7285 17.7039H38.2749Z" fill="#5D8AC6"/>
<path d="M10.7345 20.3773L39.1322 20.3773C39.2442 20.3773 39.335 20.2865 39.335 20.1745V18.9804C39.335 18.8684 39.2442 18.7777 39.1322 18.7777L10.7345 18.7777C10.6225 18.7777 10.5317 18.8684 10.5317 18.9804V20.1745C10.5317 20.2865 10.6225 20.3773 10.7345 20.3773Z" fill="#B4D5F4"/>
<path d="M12.9323 21.3616H14.3975V20.3772H12.9323V21.3616Z" fill="#3F3647"/>
<path d="M35.4694 21.3616H36.9346V20.3772H35.4694V21.3616Z" fill="#3F3647"/>
<path d="M32.6729 9.21019V20.4623C32.6729 20.533 32.7302 20.5904 32.8009 20.5904H34.1444C34.2151 20.5904 34.2725 20.533 34.2725 20.4623V9.21019C34.2725 9.13944 34.2151 9.08209 34.1444 9.08209H32.8009C32.7302 9.08209 32.6729 9.13944 32.6729 9.21019Z" fill="#FDB64E"/>
<path d="M15.7305 9.21019V20.4623C15.7305 20.533 15.7878 20.5904 15.8586 20.5904H17.202C17.2727 20.5904 17.3301 20.533 17.3301 20.4623V9.21019C17.3301 9.13944 17.2727 9.08209 17.202 9.08209H15.8586C15.7878 9.08209 15.7305 9.13944 15.7305 9.21019Z" fill="#FDB64E"/>
<path d="M32.6729 19.6155V20.5526C32.6729 20.5735 32.6898 20.5905 32.7108 20.5905H34.2345C34.2555 20.5905 34.2725 20.5735 34.2725 20.5526V19.6155C34.2725 19.5946 34.2555 19.5776 34.2345 19.5776H32.7108C32.6898 19.5776 32.6729 19.5946 32.6729 19.6155Z" fill="#F1924E"/>
<path d="M15.7305 19.6154V20.5524C15.7305 20.5734 15.7475 20.5904 15.7684 20.5904H17.2921C17.3131 20.5904 17.3301 20.5734 17.3301 20.5524V19.6154C17.3301 19.5944 17.3131 19.5774 17.2921 19.5774H15.7684C15.7475 19.5774 15.7305 19.5944 15.7305 19.6154Z" fill="#F1924E"/>
<path d="M24.8838 31.7075H18.74L11.6514 24.6188C11.7064 24.5245 11.7852 24.4463 11.8798 24.392C11.9745 24.3377 12.0818 24.3092 12.1909 24.3093H17.4856L24.8838 31.7075Z" fill="#D9EAFE"/>
<path d="M26.9715 29.7681V31.0846C26.9717 31.2091 26.9345 31.3308 26.8647 31.4339C26.7949 31.537 26.6957 31.6167 26.5799 31.6626L19.2266 24.3093H21.514L26.9715 29.7681Z" fill="#D9EAFE"/>
<path d="M41.6169 31.7075H35.4743L30.3848 26.6179V24.6872C30.3847 24.6376 30.3945 24.5884 30.4135 24.5426C30.4325 24.4967 30.4603 24.455 30.4954 24.4199C30.5305 24.3848 30.5722 24.357 30.6181 24.338C30.6639 24.319 30.7131 24.3092 30.7627 24.3093H34.2199L41.6169 31.7075Z" fill="#D9EAFE"/>
<path d="M43.3307 31.6802L35.96 24.3093H38.2474L42.2679 28.3297L43.5359 31.1754C43.5565 31.2219 43.5676 31.2721 43.5684 31.3229C43.5692 31.3738 43.5597 31.4243 43.5406 31.4714C43.5214 31.5185 43.493 31.5613 43.4569 31.5971C43.4209 31.633 43.3779 31.6612 43.3307 31.6802Z" fill="#D9EAFE"/>
<path d="M20.3726 49.7726C20.1598 49.7726 19.9519 49.7095 19.775 49.5914C19.5981 49.4732 19.4602 49.3052 19.3788 49.1087C19.2974 48.9121 19.276 48.6959 19.3175 48.4872C19.359 48.2786 19.4614 48.0869 19.6118 47.9365C19.7622 47.786 19.9538 47.6835 20.1625 47.642C20.3711 47.6004 20.5874 47.6217 20.7839 47.703C20.9805 47.7844 21.1485 47.9222 21.2668 48.0991C21.385 48.2759 21.4481 48.4838 21.4482 48.6966C21.448 48.9818 21.3346 49.2553 21.1329 49.457C20.9312 49.6588 20.6578 49.7723 20.3726 49.7726Z" fill="#3F3647"/>
<path d="M48.4155 49.7726C48.2028 49.7726 47.9948 49.7095 47.8179 49.5914C47.6411 49.4732 47.5032 49.3052 47.4218 49.1087C47.3403 48.9121 47.319 48.6959 47.3605 48.4872C47.402 48.2786 47.5044 48.0869 47.6548 47.9365C47.8052 47.786 47.9968 47.6835 48.2054 47.642C48.4141 47.6004 48.6303 47.6217 48.8269 47.703C49.0235 47.7844 49.1915 47.9222 49.3097 48.0991C49.428 48.2759 49.4911 48.4838 49.4912 48.6966C49.4909 48.9818 49.3775 49.2553 49.1758 49.457C48.9742 49.6587 48.7007 49.7722 48.4155 49.7726Z" fill="#3F3647"/>
<path d="M40.625 29.3042H43.4268C43.7605 29.3042 44.0806 29.4368 44.3166 29.6728C44.5526 29.9088 44.6852 30.2288 44.6852 30.5626V31.916C44.6852 31.9729 44.674 32.0293 44.6522 32.0819C44.6304 32.1345 44.5984 32.1823 44.5582 32.2226C44.5179 32.2628 44.4701 32.2948 44.4175 32.3165C44.3649 32.3383 44.3086 32.3496 44.2516 32.3496H40.625C40.51 32.3496 40.3997 32.3039 40.3184 32.2226C40.2371 32.1413 40.1914 32.031 40.1914 31.916V29.7377C40.1914 29.6228 40.2371 29.5125 40.3184 29.4312C40.3997 29.3499 40.51 29.3042 40.625 29.3042Z" fill="#FDBB67"/>
<path d="M44.685 30.5625V31.916C44.685 32.0308 44.6394 32.1408 44.5582 32.2219C44.4771 32.303 44.3671 32.3486 44.2524 32.3487H40.6252C40.5683 32.3488 40.512 32.3377 40.4594 32.316C40.4068 32.2943 40.359 32.2624 40.3187 32.2222C40.2784 32.1821 40.2464 32.1343 40.2246 32.0818C40.2027 32.0293 40.1915 31.9729 40.1914 31.916V31.7059H43.6086C43.6656 31.706 43.722 31.6948 43.7747 31.6731C43.8274 31.6513 43.8752 31.6193 43.9155 31.579C43.9558 31.5387 43.9878 31.4909 44.0096 31.4382C44.0314 31.3856 44.0426 31.3291 44.0425 31.2721V29.9197C44.0425 29.7446 44.0061 29.5715 43.9355 29.4113C44.1585 29.5099 44.348 29.6713 44.4811 29.8756C44.6142 30.08 44.685 30.3186 44.685 30.5625Z" fill="#F97304"/>
<path d="M40.1914 30.2974H42.5242C42.5852 30.2974 42.6455 30.3094 42.7019 30.3327C42.7582 30.3561 42.8094 30.3903 42.8525 30.4334C42.8957 30.4765 42.9299 30.5277 42.9532 30.584C42.9766 30.6404 42.9886 30.7008 42.9886 30.7618V30.8918C42.9886 30.9527 42.9766 31.0131 42.9532 31.0695C42.9299 31.1258 42.8957 31.177 42.8525 31.2201C42.8094 31.2633 42.7582 31.2975 42.7019 31.3208C42.6455 31.3441 42.5852 31.3562 42.5242 31.3562H40.1914V30.2974Z" fill="#F0733B"/>
</svg>
