<svg width="46" height="46" viewBox="0 0 46 46" fill="none" xmlns="http://www.w3.org/2000/svg">
<path d="M11.5 23C11.5 29.3513 16.6487 34.5 23 34.5C29.3513 34.5 34.5 29.3513 34.5 23C34.5 16.6487 29.3513 11.5 23 11.5C16.6487 11.5 11.5 16.6487 11.5 23Z" fill="#F00073"/>
<path d="M23.0008 18.1125C24.582 18.1125 24.7977 18.1125 25.4445 18.1125C26.0195 18.1125 26.307 18.2563 26.5227 18.3281C26.8102 18.4719 27.0258 18.5438 27.2414 18.7594C27.457 18.975 27.6008 19.1906 27.6727 19.4781C27.7445 19.6938 27.8164 19.9813 27.8883 20.5563C27.8883 21.2031 27.8883 21.3469 27.8883 23C27.8883 24.6531 27.8883 24.7969 27.8883 25.4438C27.8883 26.0188 27.7445 26.3063 27.6727 26.5219C27.5289 26.8094 27.457 27.025 27.2414 27.2406C27.0258 27.4563 26.8102 27.6 26.5227 27.6719C26.307 27.7438 26.0195 27.8156 25.4445 27.8875C24.7977 27.8875 24.6539 27.8875 23.0008 27.8875C21.3477 27.8875 21.2039 27.8875 20.557 27.8875C19.982 27.8875 19.6945 27.7438 19.4789 27.6719C19.1914 27.5281 18.9758 27.4563 18.7602 27.2406C18.5445 27.025 18.4008 26.8094 18.3289 26.5219C18.257 26.3063 18.1852 26.0188 18.1133 25.4438C18.1133 24.7969 18.1133 24.6531 18.1133 23C18.1133 21.3469 18.1133 21.2031 18.1133 20.5563C18.1133 19.9813 18.257 19.6938 18.3289 19.4781C18.4727 19.1906 18.5445 18.975 18.7602 18.7594C18.9758 18.5438 19.1914 18.4 19.4789 18.3281C19.6945 18.2563 19.982 18.1844 20.557 18.1125C21.2039 18.1125 21.4195 18.1125 23.0008 18.1125ZM23.0008 17.0344C21.3477 17.0344 21.2039 17.0344 20.557 17.0344C19.9102 17.0344 19.4789 17.1781 19.1195 17.3219C18.7602 17.4656 18.4008 17.6813 18.0414 18.0406C17.682 18.4 17.5383 18.6875 17.3227 19.1188C17.1789 19.4781 17.107 19.9094 17.0352 20.5563C17.0352 21.2031 17.0352 21.4188 17.0352 23C17.0352 24.6531 17.0352 24.7969 17.0352 25.4438C17.0352 26.0906 17.1789 26.5219 17.3227 26.8813C17.4664 27.2406 17.682 27.6 18.0414 27.9594C18.4008 28.3188 18.6883 28.4625 19.1195 28.6781C19.4789 28.8219 19.9102 28.8938 20.557 28.9656C21.2039 28.9656 21.4195 28.9656 23.0008 28.9656C24.582 28.9656 24.7977 28.9656 25.4445 28.9656C26.0914 28.9656 26.5227 28.8219 26.882 28.6781C27.2414 28.5344 27.6008 28.3188 27.9602 27.9594C28.3195 27.6 28.4633 27.3125 28.6789 26.8813C28.8227 26.5219 28.8945 26.0906 28.9664 25.4438C28.9664 24.7969 28.9664 24.5813 28.9664 23C28.9664 21.4188 28.9664 21.2031 28.9664 20.5563C28.9664 19.9094 28.8227 19.4781 28.6789 19.1188C28.5352 18.7594 28.3195 18.4 27.9602 18.0406C27.6008 17.6813 27.3133 17.5375 26.882 17.3219C26.5227 17.1781 26.0914 17.1063 25.4445 17.0344C24.7977 17.0344 24.6539 17.0344 23.0008 17.0344Z" fill="white"/>
<path d="M23.0008 19.9094C21.2758 19.9094 19.9102 21.275 19.9102 23C19.9102 24.725 21.2758 26.0906 23.0008 26.0906C24.7258 26.0906 26.0914 24.725 26.0914 23C26.0914 21.275 24.7258 19.9094 23.0008 19.9094ZM23.0008 25.0125C21.9227 25.0125 20.9883 24.15 20.9883 23C20.9883 21.9219 21.8508 20.9875 23.0008 20.9875C24.0789 20.9875 25.0133 21.85 25.0133 23C25.0133 24.0781 24.0789 25.0125 23.0008 25.0125Z" fill="white"/>
<path d="M26.1633 20.5563C26.5602 20.5563 26.882 20.2345 26.882 19.8375C26.882 19.4405 26.5602 19.1188 26.1633 19.1188C25.7663 19.1188 25.4445 19.4405 25.4445 19.8375C25.4445 20.2345 25.7663 20.5563 26.1633 20.5563Z" fill="white"/>
<rect x="0.15" y="0.15" width="45.7" height="45.7" rx="22.85" stroke="black" stroke-width="0.3"/>
</svg>
