<svg width="32" height="33" viewBox="0 0 32 33" fill="none" xmlns="http://www.w3.org/2000/svg">
<path fill-rule="evenodd" clip-rule="evenodd" d="M16.0003 3.93628C14.7116 3.93628 13.6669 4.98095 13.6669 6.26961C13.6669 7.55828 14.7116 8.60295 16.0003 8.60295C17.2889 8.60295 18.3336 7.55828 18.3336 6.26961C18.3336 4.98095 17.2889 3.93628 16.0003 3.93628ZM11.6669 6.26961C11.6669 3.87638 13.607 1.93628 16.0003 1.93628C18.3935 1.93628 20.3336 3.87638 20.3336 6.26961C20.3336 8.66285 18.3935 10.6029 16.0003 10.6029C13.607 10.6029 11.6669 8.66285 11.6669 6.26961ZM16.0003 13.2971C15.5254 13.2971 15.0948 13.3244 14.8522 13.3655L13.6635 13.5657C10.9801 14.0176 9.00027 16.3678 9.00027 19.1366C9.00027 20.5776 8.2876 21.9275 7.09423 22.7314L6.95926 22.8224C6.61957 23.0512 6.25093 23.2334 5.86307 23.3641L4.31947 23.884C3.79608 24.0603 3.22887 23.7789 3.05258 23.2555C2.8763 22.7321 3.15768 22.1649 3.68107 21.9886L5.22467 21.4687C5.44264 21.3953 5.65021 21.2927 5.84187 21.1636L5.97684 21.0727C6.61365 20.6437 7.00027 19.9181 7.00027 19.1366C7.00027 15.4064 9.67041 12.21 13.3313 11.5935L14.518 11.3937C14.5178 11.3937 14.5181 11.3936 14.518 11.3937C14.9238 11.3249 15.4844 11.2971 16.0002 11.2971C16.5159 11.2971 17.0762 11.3247 17.4824 11.3936C17.4822 11.3936 17.4825 11.3937 17.4824 11.3936L18.6692 11.5935C22.3301 12.21 25.0003 15.4064 25.0003 19.1366C25.0003 19.9181 25.3869 20.6437 26.0237 21.0727L26.1587 21.1636C26.3503 21.2927 26.5579 21.3953 26.7759 21.4687L28.3195 21.9886C28.8429 22.1649 29.1242 22.7321 28.948 23.2555C28.7717 23.7789 28.2045 24.0603 27.6811 23.884L26.1375 23.3641C25.7496 23.2334 25.381 23.0512 25.0413 22.8224L24.9063 22.7314C23.7129 21.9275 23.0003 20.5776 23.0003 19.1366C23.0003 16.3678 21.0205 14.0176 18.3371 13.5657L17.1481 13.3655C16.9057 13.3243 16.4753 13.2971 16.0003 13.2971ZM11.8669 21.0029C12.1983 20.5611 12.8251 20.4716 13.2669 20.8029C13.7088 21.1343 13.7983 21.7611 13.4669 22.2029L12.2343 23.8465C12.2245 23.8596 12.2148 23.8725 12.2052 23.8852C12.0367 24.1101 11.9041 24.287 11.7514 24.4466C11.3756 24.8395 10.9172 25.1439 10.4093 25.3378C10.2028 25.4166 9.98839 25.4701 9.71571 25.5382C9.70026 25.5421 9.68462 25.546 9.66878 25.5499L7.27756 26.1477C6.72279 26.2864 6.33361 26.7849 6.33361 27.3567C6.33361 28.045 6.89155 28.6029 7.57982 28.6029H8.4915C10.5527 28.6029 12.5583 27.9344 14.2073 26.6977L16.7336 24.8029C17.1754 24.4716 17.8022 24.5611 18.1336 25.0029C18.465 25.4448 18.3754 26.0716 17.9336 26.4029L16.7274 27.3076L17.3831 27.5535C18.095 27.8205 18.416 27.9405 18.7386 28.0413C19.7095 28.3448 20.7143 28.527 21.73 28.5837C22.0674 28.6026 22.4101 28.6029 23.1704 28.6029H24.4207C25.109 28.6029 25.6669 28.045 25.6669 27.3567C25.6669 26.7849 25.2778 26.2864 24.723 26.1477L22.7582 25.6565C22.7214 25.6473 22.685 25.6383 22.6491 25.6293C22.0149 25.4712 21.5145 25.3465 21.0673 25.0886C20.9337 25.0116 20.805 24.9261 20.6821 24.8329C20.2709 24.5208 19.9618 24.108 19.57 23.5849C19.5478 23.5552 19.5253 23.5252 19.5025 23.4949L18.5336 22.2029C18.2022 21.7611 18.2918 21.1343 18.7336 20.8029C19.1754 20.4716 19.8022 20.5611 20.1336 21.0029L21.1025 22.2949C21.5939 22.95 21.7312 23.1183 21.8912 23.2398C21.9471 23.2822 22.0056 23.321 22.0664 23.356C22.2404 23.4564 22.4488 23.5176 23.2433 23.7163L25.2081 24.2074C26.6532 24.5687 27.6669 25.8672 27.6669 27.3567C27.6669 29.1496 26.2136 30.6029 24.4207 30.6029H23.1367C22.4188 30.6029 22.018 30.603 21.6184 30.5806C20.438 30.5147 19.2703 30.3029 18.1419 29.9502C17.7599 29.8308 17.3846 29.6901 16.7125 29.438L14.8024 28.7218C12.931 29.9463 10.7386 30.6029 8.4915 30.6029H7.57982C5.78698 30.6029 4.33361 29.1496 4.33361 27.3567C4.33361 25.8672 5.34739 24.5687 6.79249 24.2074L9.18371 23.6096C9.52462 23.5244 9.61569 23.4999 9.69603 23.4693C9.9269 23.3811 10.1353 23.2428 10.3061 23.0642C10.3655 23.0021 10.4234 22.9276 10.6343 22.6465L11.8669 21.0029Z" fill="#1C274C"/>
</svg>
