<svg width="42" height="42" viewBox="0 0 42 42" fill="none" xmlns="http://www.w3.org/2000/svg">
<g clip-path="url(#clip0_175_1095)">
<path d="M42 39.4799C42 40.1483 41.7345 40.7893 41.2619 41.2619C40.7893 41.7344 40.1483 41.9999 39.48 41.9999H2.52C1.85165 41.9999 1.21068 41.7344 0.738091 41.2619C0.265499 40.7893 0 40.1483 0 39.4799L0 6.71995C0 6.05161 0.265499 5.41063 0.738091 4.93804C1.21068 4.46545 1.85165 4.19995 2.52 4.19995H39.48C40.1483 4.19995 40.7893 4.46545 41.2619 4.93804C41.7345 5.41063 42 6.05161 42 6.71995V39.4799Z" fill="#27AE60"/>
<path fill-rule="evenodd" clip-rule="evenodd" d="M34.4405 36.54C34.4405 36.7627 34.352 36.9764 34.1945 37.1339C34.037 37.2915 33.8233 37.38 33.6005 37.38H8.40055C8.17777 37.38 7.96411 37.2915 7.80658 37.1339C7.64905 36.9764 7.56055 36.7627 7.56055 36.54V7.55997C7.56055 7.33719 7.64905 7.12353 7.80658 6.966C7.96411 6.80847 8.17777 6.71997 8.40055 6.71997H33.6005C33.8233 6.71997 34.037 6.80847 34.1945 6.966C34.352 7.12353 34.4405 7.33719 34.4405 7.55997V36.54Z" fill="white"/>
<path fill-rule="evenodd" clip-rule="evenodd" d="M30.24 8.4H11.76C11.4258 8.4 11.1053 8.26725 10.869 8.03095C10.6327 7.79466 10.5 7.47417 10.5 7.14V4.2C10.5 3.86583 10.6327 3.54534 10.869 3.30905C11.1053 3.07275 11.4258 2.94 11.76 2.94H18.06C18.06 2.16026 18.3697 1.41246 18.9211 0.861106C19.4725 0.309749 20.2203 0 21 0C21.7797 0 22.5275 0.309749 23.0789 0.861106C23.6303 1.41246 23.94 2.16026 23.94 2.94H30.24C30.5742 2.94 30.8947 3.07275 31.131 3.30905C31.3673 3.54534 31.5 3.86583 31.5 4.2V7.14C31.5 7.47417 31.3673 7.79466 31.131 8.03095C30.8947 8.26725 30.5742 8.4 30.24 8.4ZM21 1.68C20.8345 1.68 20.6707 1.71259 20.5178 1.77591C20.3649 1.83923 20.226 1.93204 20.109 2.04905C19.992 2.16605 19.8992 2.30495 19.8359 2.45782C19.7726 2.61069 19.74 2.77453 19.74 2.94C19.74 3.10547 19.7726 3.26931 19.8359 3.42218C19.8992 3.57505 19.992 3.71395 20.109 3.83095C20.226 3.94796 20.3649 4.04077 20.5178 4.10409C20.6707 4.16741 20.8345 4.2 21 4.2C21.3342 4.2 21.6547 4.06725 21.891 3.83095C22.1272 3.59466 22.26 3.27417 22.26 2.94C22.26 2.60583 22.1272 2.28534 21.891 2.04905C21.6547 1.81275 21.3342 1.68 21 1.68Z" fill="#BDC3C7"/>
<path fill-rule="evenodd" clip-rule="evenodd" d="M30.24 8.40005H11.76C11.4258 8.40005 11.1053 8.2673 10.869 8.031C10.6327 7.79471 10.5 7.47422 10.5 7.14005V6.30005C10.5 6.63422 10.6327 6.95471 10.869 7.191C11.1053 7.4273 11.4258 7.56005 11.76 7.56005H30.24C30.5742 7.56005 30.8947 7.4273 31.131 7.191C31.3673 6.95471 31.5 6.63422 31.5 6.30005V7.14005C31.5 7.47422 31.3673 7.79471 31.131 8.031C30.8947 8.2673 30.5742 8.40005 30.24 8.40005Z" fill="#A1A6A9"/>
<path opacity="0.15" fill-rule="evenodd" clip-rule="evenodd" d="M39.48 40.74H2.52C1.85165 40.74 1.21068 40.4745 0.738091 40.0019C0.265499 39.5293 0 38.8883 0 38.22L0 39.48C0 40.1483 0.265499 40.7893 0.738091 41.2619C1.21068 41.7345 1.85165 42 2.52 42H39.48C40.1483 42 40.7893 41.7345 41.2619 41.2619C41.7345 40.7893 42 40.1483 42 39.48V38.22C42 38.8883 41.7345 39.5293 41.2619 40.0019C40.7893 40.4745 40.1483 40.74 39.48 40.74Z" fill="black"/>
<path fill-rule="evenodd" clip-rule="evenodd" d="M17.2198 17.2196V18.4796H30.2398V17.2196H17.2198ZM17.2198 23.1001H30.2398V21.8396H17.2198V23.1001ZM17.2198 27.7192H30.2398V26.4596H17.2198V27.7192ZM17.2198 32.3396H30.2398V31.0796H17.2198V32.3396ZM11.7598 19.3196H14.6998V16.3796H11.7598V19.3196ZM11.7598 23.9396H14.6998V20.9996H11.7598V23.9396ZM11.7598 28.5596H14.6998V25.6196H11.7598V28.5596ZM11.7598 33.1801H14.6998V30.2396H11.7598V33.1801Z" fill="#BDC3C7"/>
<path fill-rule="evenodd" clip-rule="evenodd" d="M17.2198 12.18V13.4405H30.2398V12.18H17.2198ZM15.0891 11.6702L14.7917 11.3707C14.782 11.3609 14.7704 11.3532 14.7576 11.3479C14.7449 11.3426 14.7312 11.3398 14.7174 11.3398C14.7036 11.3398 14.6899 11.3426 14.6772 11.3479C14.6644 11.3532 14.6528 11.3609 14.6431 11.3707L13.0773 12.926C13.0676 12.9358 13.056 12.9437 13.0433 12.949C13.0305 12.9544 13.0168 12.9572 13.003 12.9572C12.9891 12.9572 12.9754 12.9544 12.9627 12.949C12.9499 12.9437 12.9383 12.9358 12.9286 12.926L12.2428 12.2288C12.233 12.219 12.2214 12.2112 12.2087 12.2059C12.1959 12.2006 12.1822 12.1979 12.1684 12.1979C12.1546 12.1979 12.1409 12.2006 12.1282 12.2059C12.1154 12.2112 12.1038 12.219 12.0941 12.2288L11.7908 12.5009C11.7811 12.5105 11.7733 12.522 11.768 12.5346C11.7627 12.5472 11.7599 12.5607 11.7598 12.5744L11.7644 12.5971H11.7598V13.0163H11.7644L11.7908 13.0696L12.4826 13.7941L12.6313 13.9432L12.9286 14.2427C12.9384 14.2524 12.95 14.2602 12.9627 14.2655C12.9755 14.2708 12.9892 14.2735 13.003 14.2735C13.0168 14.2735 13.0305 14.2708 13.0432 14.2655C13.056 14.2602 13.0676 14.2524 13.0773 14.2427L15.0891 12.2388L15.1172 12.1784H15.1198V11.7592H15.1172C15.1197 11.7432 15.1185 11.7268 15.1136 11.7114C15.1087 11.6959 15.1003 11.6818 15.0891 11.6702Z" fill="#27AE60"/>
<path fill-rule="evenodd" clip-rule="evenodd" d="M21.0007 1.68012C21.2605 1.68059 21.5137 1.76163 21.7256 1.91207C21.9374 2.06252 22.0973 2.27496 22.1834 2.52012C22.2304 2.38866 22.2607 2.2488 22.2607 2.10054C22.2607 1.76631 22.1279 1.44577 21.8915 1.20944C21.6552 0.973104 21.3347 0.840332 21.0004 0.840332C20.6662 0.840332 20.3457 0.973104 20.1093 1.20944C19.873 1.44577 19.7402 1.76631 19.7402 2.10054C19.7402 2.2488 19.7705 2.38866 19.8175 2.52054C19.9035 2.27527 20.0635 2.06272 20.2754 1.9122C20.4874 1.76168 20.7407 1.68059 21.0007 1.68012Z" fill="#A1A6A9"/>
</g>
<defs>
<clipPath id="clip0_175_1095">
<rect width="42" height="42" fill="white"/>
</clipPath>
</defs>
</svg>
