<svg width="32" height="33" viewBox="0 0 32 33" fill="none" xmlns="http://www.w3.org/2000/svg">
<path fill-rule="evenodd" clip-rule="evenodd" d="M13.351 18.8045C12.7487 18.2844 12.2655 17.6175 11.9038 16.8735C11.0688 15.1556 10.821 12.9458 11.1256 10.796C11.7317 6.51741 14.6612 1.93628 20.4157 1.93628C20.968 1.93628 21.4157 2.38399 21.4157 2.93628C21.4157 3.48856 20.968 3.93628 20.4157 3.93628C16.0368 3.93628 13.633 7.35515 13.1058 11.0765C12.9609 12.0995 12.9681 13.1041 13.1089 14.0146C13.2182 13.8747 13.3374 13.7429 13.4655 13.6203C13.9856 13.0179 14.6525 12.5348 15.3965 12.1731C17.1143 11.338 19.3241 11.0903 21.4739 11.3949C25.7525 12.001 30.3337 14.9305 30.3337 20.685C30.3337 21.2373 29.8859 21.685 29.3337 21.685C28.7814 21.685 28.3337 21.2373 28.3337 20.685C28.3337 16.3061 24.9148 13.9023 21.1934 13.3751C20.2756 13.2451 19.3725 13.2375 18.5389 13.339C19.3913 13.8924 20.0507 14.7163 20.5122 15.6658C21.3473 17.3836 21.595 19.5934 21.2904 21.7432C20.6843 26.0218 17.7548 30.6029 12.0003 30.6029C11.448 30.6029 11.0003 30.1552 11.0003 29.6029C11.0003 29.0507 11.448 28.6029 12.0003 28.6029C16.3792 28.6029 18.783 25.1841 19.3102 21.4627C19.4715 20.3242 19.4443 19.2085 19.2544 18.2198C18.7327 19.3619 17.7618 20.2188 16.6042 20.7815C14.8863 21.6165 12.6765 21.8643 10.5267 21.5597C6.24812 20.9536 1.66699 18.0241 1.66699 12.2696C1.66699 11.7173 2.11471 11.2696 2.66699 11.2696C3.21928 11.2696 3.66699 11.7173 3.66699 12.2696C3.66699 16.6485 7.08586 19.0523 10.8073 19.5795C12.0182 19.751 13.2034 19.7094 14.2373 19.4854C13.9077 19.3043 13.609 19.074 13.351 18.8045ZM16.1783 17.9269C15.6377 17.8836 15.1563 17.6906 14.7389 17.359C14.5228 17.109 14.3798 16.7941 14.343 16.4475C14.3864 15.907 14.5793 15.4256 14.911 15.0082C15.2031 14.7557 15.5839 14.6029 16.0003 14.6029C16.9208 14.6029 17.667 15.3491 17.667 16.2696C17.667 17.13 17.0151 17.8381 16.1783 17.9269Z" fill="#1C274C"/>
</svg>
