<svg width="150" height="177" viewBox="0 0 150 177" fill="none" xmlns="http://www.w3.org/2000/svg">
<g clip-path="url(#clip0_119_2760)">
<path d="M146.61 34.7545L27.2562 4.70411C26.6226 4.54459 25.9364 4.63855 25.4074 5.02154C24.2511 5.85872 24.2656 7.47251 25.2103 8.33598L49.2744 30.3348C49.2768 30.3369 49.2781 30.3401 49.2778 30.3436L44.8803 75.1846C44.7355 76.7401 46.32 77.9551 47.784 77.3862L79.8349 64.914C79.8385 64.9125 79.8427 64.9133 79.8458 64.9161L96.4442 80.3633C97.2359 81.0996 98.4902 81.1202 99.3051 80.4104L126.895 56.3906C127.785 55.6151 127.879 54.2641 127.103 53.3733C126.328 52.4823 124.977 52.3894 124.086 53.1648L97.9556 75.9149C97.9515 75.9182 97.9457 75.9182 97.9419 75.9146L64.8403 45.1088C64.8336 45.1028 64.8376 45.0917 64.8466 45.0908L139.81 39.4504C139.82 39.4496 139.825 39.462 139.818 39.4684L132.009 46.2667C131.121 47.0396 130.94 48.4008 131.69 49.3075C132.46 50.2373 133.838 50.3448 134.743 49.5578L147.507 38.445C147.587 38.375 147.663 38.2965 147.732 38.2149C148.75 37.0179 148.12 35.1348 146.61 34.7545ZM76.3515 61.6641C76.357 61.6693 76.3551 61.6788 76.348 61.6814L50.8371 71.6084C50.8287 71.6115 50.8205 71.6033 50.8238 71.5948L60.6108 47.0345C60.6133 47.0278 60.622 47.0259 60.6276 47.0308L76.3515 61.6641ZM117.921 36.8081L59.6259 41.1943C58.8219 41.256 58.0986 41.7851 57.7997 42.5351L50.6369 60.5097C50.6323 60.5209 50.6158 60.5167 50.617 60.505L53.4336 31.7864C53.4342 31.7806 53.439 31.7766 53.4447 31.7771L117.921 36.7873C117.934 36.7882 117.934 36.8069 117.921 36.8081ZM120.99 32.7357L52.414 27.407C52.4117 27.4067 52.4096 27.4059 52.4079 27.4043L34.3867 10.9302C34.3789 10.9229 34.3857 10.9097 34.3962 10.9123L120.993 32.7154C121.005 32.7185 121.002 32.7368 120.99 32.7357Z" fill="#D3D3D3"/>
<path d="M26.0698 92.6622C25.4859 92.5243 24.8875 92.3988 24.2915 92.2893C23.1299 92.0755 22.0151 92.8435 21.801 94.0051C21.5953 95.1203 22.2957 96.1929 23.3799 96.4659C23.4249 96.4772 23.4705 96.4872 23.5168 96.4956C24.0437 96.5928 24.5722 96.7035 25.0877 96.8251C26.2372 97.0963 27.389 96.3842 27.6602 95.235C27.9313 94.0857 27.2154 92.9257 26.0698 92.6622Z" fill="#D3D3D3"/>
<path d="M35.8928 96.6903C34.9053 96.0704 33.8492 95.4946 32.7542 94.9789C31.6867 94.4751 30.4119 94.9335 29.9083 96.0022C29.4049 97.0704 29.8632 98.3449 30.9316 98.8484C31.872 99.2914 32.7765 99.7844 33.6193 100.313C34.6072 100.933 35.9478 100.626 36.5675 99.6388C37.1951 98.638 36.8927 97.3179 35.8928 96.6903Z" fill="#D3D3D3"/>
<path d="M9.46885 110.447C9.54497 109.461 9.69668 108.462 9.92021 107.479C10.1821 106.327 9.45736 105.182 8.30886 104.919C7.15726 104.657 6.01133 105.379 5.74956 106.531C5.47978 107.717 5.29646 108.925 5.20446 110.119C5.11487 111.28 6.01 112.326 7.17231 112.415C8.35015 112.506 9.37812 111.625 9.46885 110.447Z" fill="#D3D3D3"/>
<path d="M16.361 125.802C15.5628 125.27 14.8114 124.654 14.1278 123.969C13.2929 123.133 11.9392 123.132 11.1032 123.967C10.2677 124.801 10.2666 126.155 11.1011 126.991C11.985 127.876 12.9565 128.673 13.9904 129.362C15.0128 130.042 16.4368 129.699 17.039 128.631C17.5818 127.669 17.2798 126.414 16.361 125.802Z" fill="#D3D3D3"/>
<path d="M29.496 85.0029C29.01 83.9265 27.743 83.4481 26.6669 83.934C25.6112 84.4106 24.5614 84.9354 23.5474 85.4944C22.5127 86.064 22.136 87.3645 22.7054 88.3991C23.267 89.4193 24.5892 89.8027 25.6099 89.2407C26.5257 88.7365 27.4737 88.2624 28.4271 87.8322C29.5036 87.3459 29.9821 86.0795 29.496 85.0029Z" fill="#D3D3D3"/>
<path d="M10.8759 119.158C10.4873 118.268 10.1706 117.328 9.93468 116.364C9.6539 115.217 8.49579 114.515 7.34908 114.795C6.20195 115.076 5.49969 116.234 5.78047 117.381C6.07434 118.582 6.4702 119.756 6.95629 120.869C7.45909 122.022 8.89427 122.494 9.98476 121.867C10.9165 121.33 11.3059 120.143 10.8759 119.158Z" fill="#D3D3D3"/>
<path d="M13.311 96.3462C12.3705 95.632 11.029 95.8157 10.3147 96.7562C9.52728 97.7928 8.83495 98.834 8.31182 99.766C7.7338 100.796 8.10025 102.099 9.12992 102.678C9.29885 102.772 9.47563 102.842 9.65527 102.887C10.5687 103.117 11.5584 102.72 12.041 101.859C12.34 101.327 12.8739 100.458 13.7208 99.3422C14.4353 98.4017 14.2519 97.0603 13.311 96.3462Z" fill="#D3D3D3"/>
<path d="M20.7261 89.7029C19.9997 88.7709 18.6563 88.6043 17.7249 89.3305C16.8071 90.0455 15.9098 90.8044 15.0586 91.586C14.1882 92.3846 14.1301 93.7374 14.9287 94.6076C15.7171 95.4669 17.0917 95.5248 17.9502 94.7374C18.7173 94.0334 19.526 93.3494 20.3536 92.7047C21.2853 91.9785 21.452 90.6346 20.7261 89.7029Z" fill="#D3D3D3"/>
<path d="M43.5876 104.412C42.986 103.362 42.2598 102.341 41.4289 101.377C40.6579 100.483 39.3076 100.383 38.4128 101.155C37.5185 101.926 37.4188 103.276 38.1902 104.171C38.843 104.928 39.4102 105.724 39.8758 106.537C40.4552 107.549 41.7829 107.909 42.7944 107.33C43.8193 106.743 44.1744 105.437 43.5876 104.412Z" fill="#D3D3D3"/>
<path d="M26.7066 130.546C26.7486 129.366 25.8263 128.376 24.6454 128.333C23.7345 128.301 22.7982 128.195 21.8597 128.019L21.6963 127.988C20.5382 127.757 19.4117 128.508 19.1805 129.667C18.9562 130.79 19.6556 131.882 20.7536 132.159C20.7881 132.167 20.8237 132.175 20.8589 132.182L21.0732 132.224C22.2186 132.439 23.3694 132.568 24.4937 132.608C25.6741 132.649 26.6647 131.727 26.7066 130.546Z" fill="#D3D3D3"/>
<path d="M45.5493 115.436C45.7673 114.155 45.8434 112.882 45.7752 111.652C45.7098 110.473 44.7003 109.569 43.5214 109.635C42.3421 109.701 41.4394 110.71 41.5046 111.889C41.5553 112.8 41.4973 113.752 41.3328 114.718C41.1371 115.867 41.9332 116.99 43.082 117.186C44.2307 117.381 45.3537 116.585 45.5493 115.436Z" fill="#D3D3D3"/>
<path d="M42.223 119.425C41.2057 118.825 39.8949 119.162 39.2936 120.178C38.793 121.025 38.2166 121.834 37.5807 122.584C36.8162 123.484 36.9265 124.833 37.8272 125.598C38.7158 126.353 40.0875 126.239 40.8413 125.351C41.634 124.417 42.3521 123.409 42.9757 122.354C43.5767 121.338 43.2396 120.026 42.223 119.425Z" fill="#D3D3D3"/>
<path d="M39.1158 82.4695C38.8898 81.3098 37.7668 80.5534 36.6077 80.7795C35.4693 81.0012 34.3293 81.2682 33.2198 81.5731C32.334 81.8163 31.6885 82.626 31.6496 83.5441C31.6068 84.5463 32.2936 85.4652 33.2661 85.71C33.6121 85.7971 33.9844 85.7987 34.3529 85.6975C35.3589 85.4211 36.393 85.1788 37.4258 84.9776C38.5852 84.7516 39.3418 83.6286 39.1158 82.4695Z" fill="#D3D3D3"/>
<path d="M35.9903 127.134C35.4104 126.105 34.1069 125.74 33.0777 126.32C32.2283 126.798 31.3327 127.198 30.4152 127.509C29.2964 127.888 28.6971 129.102 29.076 130.22C29.4494 131.324 30.6834 131.934 31.7877 131.56C32.9561 131.164 34.0964 130.655 35.1766 130.046C36.2055 129.467 36.5699 128.163 35.9903 127.134Z" fill="#D3D3D3"/>
<path d="M47.4759 81.9981C47.4588 80.8176 46.4872 79.8746 45.3067 79.8908C44.7097 79.8995 44.1092 79.9185 43.5222 79.9471C42.4035 80.0023 41.4973 80.9485 41.4892 82.0683C41.4805 83.2801 42.5221 84.278 43.7328 84.219C44.2706 84.1924 44.8205 84.175 45.3683 84.1671C46.5488 84.1501 47.4926 83.179 47.4759 81.9981Z" fill="#D3D3D3"/>
<path d="M1.33782 97.4771C0.755306 96.4492 -0.548797 96.088 -1.5771 96.6698C-1.84023 96.8186 -2.10234 96.9716 -2.36438 97.1277C-3.06568 97.5471 -3.76842 98.0002 -4.45338 98.4748C-5.42406 99.1472 -5.66619 100.479 -4.99393 101.45C-4.33069 102.408 -2.97587 102.654 -2.01832 101.991C-1.41157 101.571 -0.789466 101.17 -0.170036 100.799C0.0624401 100.66 0.296221 100.524 0.530274 100.392C1.55843 99.8095 1.91951 98.5047 1.33782 97.4771Z" fill="#D3D3D3"/>
<path d="M8.97642 94.731C8.63668 93.6002 7.44423 92.9587 6.31316 93.2983C5.73795 93.471 5.15892 93.6601 4.59147 93.8602C3.4777 94.2536 2.89322 95.4747 3.28627 96.5885C3.67377 97.687 4.91474 98.2814 6.0145 97.8936C6.51848 97.7159 7.03267 97.5478 7.54372 97.3945C8.67487 97.0546 9.31638 95.8621 8.97642 94.731Z" fill="#D3D3D3"/>
</g>
<defs>
<clipPath id="clip0_119_2760">
<rect width="145.698" height="145.698" fill="white" transform="translate(8.57324) rotate(14.132)"/>
</clipPath>
</defs>
</svg>
