<svg width="66" height="66" viewBox="0 0 66 66" fill="none" xmlns="http://www.w3.org/2000/svg">
<path fill-rule="evenodd" clip-rule="evenodd" d="M45.1653 42.997C47.1295 38.8248 46.8207 33.9397 44.3507 30.0458C41.8807 26.1519 37.5887 23.7936 32.9778 23.7936C32.9757 23.7936 32.9757 23.7936 32.9737 23.7936C28.381 23.7936 24.1093 26.1397 21.6454 30.0153C19.1835 33.8909 18.8728 38.7578 20.8248 42.9137C23.7051 49.0562 26.7642 55.5745 28.964 60.2626C29.6973 61.8267 31.2715 62.8281 33.0001 62.8281C34.7287 62.8281 36.3029 61.8308 37.0382 60.2667C39.236 55.5989 42.285 49.1172 45.1653 42.997Z" fill="#FF4E42"/>
<path fill-rule="evenodd" clip-rule="evenodd" d="M37.0832 24.4334C38.0805 25.2906 38.9621 26.2981 39.6852 27.4397C42.1552 31.3336 42.464 36.2208 40.4998 40.3929C37.6195 46.5111 34.5705 52.9928 32.3727 57.6606C31.7227 59.0439 30.4166 59.9843 28.9277 60.1834L28.9643 60.2626C29.6976 61.8267 31.2718 62.8281 33.0004 62.8281C34.729 62.8281 36.3032 61.8308 37.0385 60.2667C39.2363 55.5989 42.2852 49.1172 45.1655 42.997C47.1298 38.8248 46.821 33.9397 44.351 30.0458C42.6366 27.3442 40.0468 25.382 37.0832 24.4334Z" fill="#DB3033"/>
<path fill-rule="evenodd" clip-rule="evenodd" d="M31.1052 4.93344L29.2385 7.71422C29.206 7.76297 29.1552 7.79953 29.0983 7.81578L25.8768 8.72984C25.1455 8.93906 24.5646 9.49766 24.331 10.2208C24.0953 10.9439 24.2355 11.7381 24.7068 12.3373L26.7746 14.9698C26.8111 15.0166 26.8294 15.0755 26.8274 15.1344L26.7014 18.4819C26.675 19.2416 27.0264 19.9667 27.6419 20.4136C28.2574 20.8605 29.0557 20.9722 29.7707 20.7102L32.913 19.5564C32.9699 19.5361 33.0308 19.5361 33.0877 19.5564L36.23 20.7102C36.945 20.9722 37.7433 20.8605 38.3588 20.4136C38.9743 19.9667 39.3257 19.2416 39.2993 18.4819L39.1733 15.1344C39.1713 15.0755 39.1896 15.0166 39.2261 14.9698L41.2939 12.3373C41.7652 11.7381 41.9054 10.9439 41.6697 10.2208C41.4361 9.49766 40.8552 8.93906 40.1239 8.72984L36.9024 7.81578C36.8455 7.79953 36.7947 7.76297 36.7622 7.71422L34.8955 4.93344C34.473 4.30172 33.7621 3.92188 33.0004 3.92188C32.2386 3.92188 31.5277 4.30172 31.1052 4.93344Z" fill="#FFD365"/>
<path fill-rule="evenodd" clip-rule="evenodd" d="M37.4337 7.96606C37.3769 8.07372 37.3078 8.17731 37.2306 8.27481L35.1628 10.9073C35.1262 10.954 35.108 11.0129 35.11 11.0718L35.2359 14.4193C35.2623 15.179 34.9109 15.9042 34.2955 16.3511C33.68 16.7979 32.8817 16.9097 32.1667 16.6476L29.0244 15.4939C28.9675 15.4736 28.9065 15.4736 28.8497 15.4939L26.7859 16.2515L26.7006 18.4818C26.6742 19.2415 27.0256 19.9667 27.6411 20.4136C28.2565 20.8604 29.0548 20.9722 29.7698 20.7101L32.9122 19.5564C32.969 19.5361 33.03 19.5361 33.0869 19.5564L36.2292 20.7101C36.9442 20.9722 37.7425 20.8604 38.358 20.4136C38.9734 19.9667 39.3248 19.2415 39.2984 18.4818L39.1725 15.1343C39.1705 15.0754 39.1887 15.0165 39.2253 14.9698L41.2931 12.3373C41.7644 11.7381 41.9045 10.9439 41.6689 10.2208C41.4353 9.49763 40.8544 8.93903 40.1231 8.72981L37.4337 7.96606Z" fill="#FFBE32"/>
<path fill-rule="evenodd" clip-rule="evenodd" d="M49.5992 8.7644L47.96 11.206C47.9478 11.2263 47.9275 11.2385 47.9051 11.2466L45.0776 12.0489C44.3951 12.2439 43.8528 12.7639 43.6334 13.4383C43.414 14.1147 43.5461 14.8541 43.9848 15.4107L45.8008 17.7242C45.815 17.7425 45.8211 17.7649 45.8211 17.7892L45.7114 20.7264C45.685 21.4353 46.014 22.1117 46.5868 22.5282C47.1617 22.9466 47.9051 23.0502 48.5714 22.8044L51.3318 21.7928C51.3542 21.7847 51.3786 21.7847 51.3989 21.7928L54.1593 22.8044C54.8256 23.0502 55.5711 22.9466 56.1439 22.5282C56.7187 22.1117 57.0478 21.4353 57.0214 20.7264L56.9097 17.7892C56.9097 17.7649 56.9178 17.7425 56.932 17.7242L58.7479 15.4107C59.1867 14.8541 59.3167 14.1147 59.0973 13.4383C58.8779 12.7639 58.3376 12.2439 57.6551 12.0489L54.8256 11.2466C54.8033 11.2385 54.785 11.2263 54.7728 11.206L53.1336 8.7644C52.7375 8.17534 52.0753 7.8219 51.3664 7.8219C50.6554 7.8219 49.9933 8.17534 49.5992 8.7644Z" fill="#FFD365"/>
<path fill-rule="evenodd" clip-rule="evenodd" d="M54.781 11.2181C54.7505 11.2628 54.718 11.3055 54.6855 11.3481L52.8696 13.6617C52.8553 13.68 52.8472 13.7024 52.8472 13.7267L52.9589 16.6639C52.9853 17.3728 52.6563 18.0492 52.0814 18.4656C51.5086 18.8841 50.7632 18.9877 50.0969 18.7419L47.3364 17.7303C47.3161 17.7222 47.2918 17.7222 47.2694 17.7303L45.8028 18.2686L45.7114 20.7264C45.685 21.4353 46.0141 22.1117 46.5869 22.5281C47.1617 22.9466 47.9052 23.0502 48.5714 22.8044L51.3319 21.7928C51.3543 21.7847 51.3786 21.7847 51.3989 21.7928L54.1594 22.8044C54.8257 23.0502 55.5711 22.9466 56.1439 22.5281C56.7188 22.1117 57.0478 21.4353 57.0214 20.7264L56.9097 17.7892C56.9097 17.7649 56.9178 17.7425 56.9321 17.7242L58.748 15.4106C59.1868 14.8541 59.3167 14.1147 59.0974 13.4383C58.878 12.7639 58.3377 12.2439 57.6552 12.0489L54.8257 11.2466C54.8094 11.2405 54.7932 11.2303 54.781 11.2181Z" fill="#FFBE32"/>
<path fill-rule="evenodd" clip-rule="evenodd" d="M12.8662 8.7644L11.227 11.206C11.2148 11.2263 11.1965 11.2385 11.1742 11.2466L8.34464 12.0489C7.66214 12.2439 7.12183 12.7639 6.90245 13.4383C6.68308 14.1147 6.81308 14.8541 7.25183 15.4107L9.06777 17.7242C9.08199 17.7425 9.09011 17.7649 9.09011 17.7892L8.97839 20.7264C8.95199 21.4353 9.28105 22.1117 9.85589 22.5282C10.4287 22.9466 11.1742 23.0502 11.8404 22.8044L14.6009 21.7928C14.6212 21.7847 14.6456 21.7847 14.6679 21.7928L17.4284 22.8044C18.0946 23.0502 18.8381 22.9466 19.4129 22.5282C19.9857 22.1117 20.3148 21.4353 20.2884 20.7264L20.1787 17.7892C20.1787 17.7649 20.1848 17.7425 20.199 17.7242L22.015 15.4107C22.4537 14.8541 22.5857 14.1147 22.3664 13.4383C22.147 12.7639 21.6046 12.2439 20.9221 12.0489L18.0946 11.2466C18.0723 11.2385 18.052 11.2263 18.0398 11.206L16.4006 8.7644C16.0065 8.17534 15.3443 7.8219 14.6334 7.8219C13.9245 7.8219 13.2623 8.17534 12.8662 8.7644Z" fill="#FFD365"/>
<path fill-rule="evenodd" clip-rule="evenodd" d="M18.0476 11.2181C18.0191 11.2628 17.9866 11.3055 17.9521 11.3481L16.1362 13.6617C16.1219 13.68 16.1159 13.7024 16.1159 13.7267L16.2255 16.6639C16.2519 17.3728 15.9229 18.0492 15.3501 18.4656C14.7752 18.8841 14.0318 18.9877 13.3655 18.7419L10.6051 17.7303C10.5827 17.7222 10.5584 17.7222 10.538 17.7303L9.07148 18.2686L8.97804 20.7264C8.95163 21.4353 9.2807 22.1117 9.85554 22.5281C10.4284 22.9466 11.1738 23.0502 11.8401 22.8044L14.6005 21.7928C14.6209 21.7847 14.6452 21.7847 14.6676 21.7928L17.428 22.8044C18.0943 23.0502 18.8377 22.9466 19.4126 22.5281C19.9854 22.1117 20.3144 21.4353 20.288 20.7264L20.1784 17.7892C20.1784 17.7649 20.1844 17.7425 20.1987 17.7242L22.0146 15.4106C22.4534 14.8541 22.5854 14.1147 22.366 13.4383C22.1466 12.7639 21.6043 12.2439 20.9218 12.0489L18.0943 11.2466C18.076 11.2405 18.0598 11.2303 18.0476 11.2181Z" fill="#FFBE32"/>
<path d="M33.0259 44.3275C36.9041 44.3275 40.048 41.1836 40.048 37.3055C40.048 33.4273 36.9041 30.2834 33.0259 30.2834C29.1478 30.2834 26.0039 33.4273 26.0039 37.3055C26.0039 41.1836 29.1478 44.3275 33.0259 44.3275Z" fill="#93152C"/>
<path fill-rule="evenodd" clip-rule="evenodd" d="M30.0562 43.6674C29.6337 42.7655 29.3981 41.76 29.3981 40.6977C29.3981 36.822 32.5425 33.6756 36.4181 33.6756C37.4805 33.6756 38.4859 33.9133 39.3878 34.3358C38.2686 31.943 35.8392 30.2834 33.0259 30.2834C29.1503 30.2834 26.0039 33.4299 26.0039 37.3055C26.0039 40.1188 27.6634 42.5481 30.0562 43.6674Z" fill="#7A0C2A"/>
</svg>
