<svg width="32" height="33" viewBox="0 0 32 33" fill="none" xmlns="http://www.w3.org/2000/svg">
<path fill-rule="evenodd" clip-rule="evenodd" d="M16.0003 1.93628C16.5526 1.93628 17.0003 2.38399 17.0003 2.93628V5.60295C17.0003 6.15523 16.5526 6.60295 16.0003 6.60295C15.448 6.60295 15.0003 6.15523 15.0003 5.60295V2.93628C15.0003 2.38399 15.448 1.93628 16.0003 1.93628ZM4.89186 5.2244C5.26453 4.8168 5.89706 4.78848 6.30466 5.16115L9.26734 7.86993C9.67494 8.24259 9.70326 8.87513 9.33059 9.28272C8.95793 9.69032 8.3254 9.71864 7.9178 9.34597L4.95511 6.63719C4.54751 6.26453 4.51919 5.63199 4.89186 5.2244ZM27.1088 5.2244C27.4815 5.63199 27.4531 6.26453 27.0455 6.63719L24.0829 9.34597C23.6753 9.71864 23.0427 9.69032 22.6701 9.28272C22.2974 8.87513 22.3257 8.24259 22.7333 7.86993L25.696 5.16115C26.1036 4.78848 26.7361 4.8168 27.1088 5.2244ZM16.0003 10.6029C12.8707 10.6029 10.3337 13.14 10.3337 16.2696C10.3337 19.3992 12.8707 21.9363 16.0003 21.9363C19.1299 21.9363 21.667 19.3992 21.667 16.2696C21.667 13.14 19.1299 10.6029 16.0003 10.6029ZM8.33366 16.2696C8.33366 12.0354 11.7661 8.60295 16.0003 8.60295C20.2345 8.60295 23.667 12.0354 23.667 16.2696C23.667 20.5038 20.2345 23.9363 16.0003 23.9363C11.7661 23.9363 8.33366 20.5038 8.33366 16.2696ZM1.66699 16.2696C1.66699 15.7173 2.11471 15.2696 2.66699 15.2696H5.33366C5.88594 15.2696 6.33366 15.7173 6.33366 16.2696C6.33366 16.8219 5.88594 17.2696 5.33366 17.2696H2.66699C2.11471 17.2696 1.66699 16.8219 1.66699 16.2696ZM25.667 16.2696C25.667 15.7173 26.1147 15.2696 26.667 15.2696H29.3337C29.8859 15.2696 30.3337 15.7173 30.3337 16.2696C30.3337 16.8219 29.8859 17.2696 29.3337 17.2696H26.667C26.1147 17.2696 25.667 16.8219 25.667 16.2696ZM22.701 22.9699C23.0916 22.5794 23.7247 22.5794 24.1152 22.9699L27.0779 25.933C27.4684 26.3235 27.4684 26.9567 27.0778 27.3472C26.6873 27.7377 26.0541 27.7377 25.6636 27.3471L22.7009 24.3841C22.3104 23.9935 22.3105 23.3604 22.701 22.9699ZM9.29988 22.9701C9.6904 23.3606 9.6904 23.9937 9.29988 24.3843L6.33692 27.3472C5.94639 27.7378 5.31323 27.7378 4.9227 27.3472C4.53218 26.9567 4.53218 26.3235 4.9227 25.933L7.88567 22.9701C8.27619 22.5795 8.90936 22.5795 9.29988 22.9701ZM16.0003 25.9363C16.5526 25.9363 17.0003 26.384 17.0003 26.9363V29.6029C17.0003 30.1552 16.5526 30.6029 16.0003 30.6029C15.448 30.6029 15.0003 30.1552 15.0003 29.6029V26.9363C15.0003 26.384 15.448 25.9363 16.0003 25.9363Z" fill="#1C274C"/>
</svg>
