<svg width="36" height="37" viewBox="0 0 36 37" fill="none" xmlns="http://www.w3.org/2000/svg">
<path fill-rule="evenodd" clip-rule="evenodd" d="M15.7957 2.47404C16.235 2.91338 16.235 3.62569 15.7957 4.06503C15.4066 4.45411 15.4066 5.08495 15.7957 5.47404C17.0634 6.7418 17.0634 8.79726 15.7957 10.065C15.3563 10.5044 14.644 10.5044 14.2047 10.065C13.7653 9.62569 13.7653 8.91338 14.2047 8.47404C14.5938 8.08495 14.5938 7.45411 14.2047 7.06503C12.9369 5.79726 12.9369 3.7418 14.2047 2.47404C14.644 2.0347 15.3563 2.0347 15.7957 2.47404ZM9.04545 4.72404C9.48479 5.16338 9.48479 5.87569 9.04545 6.31503L8.87127 6.4892C8.5064 6.85408 8.46534 7.43172 8.77495 7.84453C9.75639 9.15311 9.62625 10.9842 8.46962 12.1409L8.29545 12.315C7.85611 12.7544 7.1438 12.7544 6.70446 12.315C6.26512 11.8757 6.26512 11.1634 6.70446 10.724L6.87863 10.5499C7.24351 10.185 7.28456 9.60734 6.97495 9.19453C5.99352 7.88595 6.12365 6.05484 7.28028 4.89821L7.45446 4.72404C7.8938 4.2847 8.60611 4.2847 9.04545 4.72404ZM23.2954 4.72404C23.7348 5.16338 23.7348 5.87569 23.2954 6.31503L23.1213 6.4892C22.7564 6.85408 22.7153 7.43172 23.025 7.84453C24.0064 9.15311 23.8763 10.9842 22.7196 12.1409L22.5454 12.315C22.1061 12.7544 21.3938 12.7544 20.9545 12.315C20.5151 11.8757 20.5151 11.1634 20.9545 10.724L21.1286 10.5499C21.4935 10.185 21.5346 9.60734 21.225 9.19453C20.2435 7.88595 20.3736 6.05484 21.5303 4.89821L21.7045 4.72404C22.1438 4.2847 22.8561 4.2847 23.2954 4.72404ZM6.97106 14.1445C7.00494 14.1445 7.0393 14.1445 7.07418 14.1445H22.9257C22.9606 14.1445 22.995 14.1445 23.0288 14.1445C23.5728 14.1443 23.9902 14.1441 24.351 14.2082C25.3435 14.3847 26.2036 14.9086 26.8109 15.6445H28.5C31.6066 15.6445 34.125 18.1629 34.125 21.2695C34.125 24.3761 31.6066 26.8945 28.5 26.8945H26.4716C25.8145 28.5893 24.673 30.0741 23.1653 31.1491C21.5729 32.2844 19.666 32.8945 17.7104 32.8945H12.2895C10.3339 32.8945 8.427 32.2844 6.83463 31.1491C4.67343 29.6082 3.26471 27.2252 2.95657 24.5889L2.35555 19.4468C2.3515 19.4122 2.34749 19.378 2.34355 19.3444C2.28015 18.8041 2.23152 18.3896 2.25335 18.0238C2.36696 16.1199 3.77106 14.5421 5.64894 14.2082C6.00975 14.1441 6.42707 14.1443 6.97106 14.1445ZM24.7024 24.9761C24.5 25.1796 24.375 25.4599 24.375 25.7695C24.375 25.8522 24.3839 25.9327 24.4008 26.0103C23.9056 27.3287 23.0268 28.4845 21.8591 29.317C20.648 30.1805 19.1977 30.6445 17.7104 30.6445H12.2895C10.8022 30.6445 9.35189 30.1805 8.14082 29.317C6.49712 28.1451 5.42571 26.3327 5.19135 24.3277L4.59033 19.1856C4.5096 18.4949 4.49102 18.2975 4.49935 18.1578C4.55099 17.2924 5.18922 16.5752 6.0428 16.4235C6.18059 16.399 6.37873 16.3945 7.07418 16.3945H22.9257C23.6212 16.3945 23.8193 16.399 23.9571 16.4235C24.8107 16.5752 25.4489 17.2924 25.5005 18.1578C25.5089 18.2975 25.4903 18.4949 25.4096 19.1856L24.8085 24.3277C24.783 24.5463 24.7475 24.7627 24.7024 24.9761ZM27.0367 24.6445H28.5C30.3639 24.6445 31.875 23.1335 31.875 21.2695C31.875 19.4056 30.3639 17.8945 28.5 17.8945H27.7368C27.7407 17.9375 27.744 17.9806 27.7466 18.0238C27.7684 18.3896 27.7198 18.8041 27.6564 19.3444C27.6524 19.378 27.6484 19.4122 27.6444 19.4468L27.0433 24.5889C27.0412 24.6074 27.0389 24.626 27.0367 24.6445Z" fill="black"/>
</svg>
