<svg width="627" height="592" viewBox="0 0 627 592" fill="none" xmlns="http://www.w3.org/2000/svg">
<g filter="url(#filter0_d_287_1010)">
<path d="M486.334 288.693C461.872 396.588 281.79 447.721 274.147 449.786C272.129 450.346 270.003 450.397 267.96 449.936C265.917 449.475 264.021 448.515 262.441 447.142C256.433 441.994 115.951 318.46 140.412 210.564C146.185 185.234 161.789 163.224 183.8 149.363C205.812 135.501 232.433 130.92 257.824 136.625C289.714 143.827 314.532 163.821 326.69 190.887C349.34 171.682 380.364 164.301 412.253 171.503C437.632 177.265 459.684 192.839 473.572 214.809C487.46 236.779 492.049 263.35 486.334 288.693Z" fill="#C60C30"/>
</g>
<defs>
<filter id="filter0_d_287_1010" x="0.154694" y="0.829918" width="625.978" height="590.818" filterUnits="userSpaceOnUse" color-interpolation-filters="sRGB">
<feFlood flood-opacity="0" result="BackgroundImageFix"/>
<feColorMatrix in="SourceAlpha" type="matrix" values="0 0 0 0 0 0 0 0 0 0 0 0 0 0 0 0 0 0 127 0" result="hardAlpha"/>
<feOffset dy="4"/>
<feGaussianBlur stdDeviation="68.7"/>
<feComposite in2="hardAlpha" operator="out"/>
<feColorMatrix type="matrix" values="0 0 0 0 0.776471 0 0 0 0 0.0470588 0 0 0 0 0.188235 0 0 0 1 0"/>
<feBlend mode="normal" in2="BackgroundImageFix" result="effect1_dropShadow_287_1010"/>
<feBlend mode="normal" in="SourceGraphic" in2="effect1_dropShadow_287_1010" result="shape"/>
</filter>
</defs>
</svg>
