<svg width="42" height="42" viewBox="0 0 42 42" fill="none" xmlns="http://www.w3.org/2000/svg">
<g clip-path="url(#clip0_175_1052)">
<path d="M40.74 0H38.64C38.64 0.334173 38.5073 0.654659 38.271 0.890954C38.0347 1.12725 37.7142 1.26 37.38 1.26C37.0458 1.26 36.7253 1.12725 36.489 0.890954C36.2527 0.654659 36.12 0.334173 36.12 0L34.02 0C34.02 0.334173 33.8872 0.654659 33.651 0.890954C33.4147 1.12725 33.0942 1.26 32.76 1.26C32.4258 1.26 32.1053 1.12725 31.869 0.890954C31.6327 0.654659 31.5 0.334173 31.5 0L29.4 0C29.4 0.334173 29.2673 0.654659 29.031 0.890954C28.7947 1.12725 28.4742 1.26 28.14 1.26C27.8058 1.26 27.4853 1.12725 27.249 0.890954C27.0127 0.654659 26.88 0.334173 26.88 0L24.78 0C24.78 2.08782 23.0878 3.78 21 3.78C18.9122 3.78 17.22 2.08782 17.22 0H15.12C15.12 0.334173 14.9872 0.654659 14.751 0.890954C14.5147 1.12725 14.1942 1.26 13.86 1.26C13.5258 1.26 13.2053 1.12725 12.969 0.890954C12.7327 0.654659 12.6 0.334173 12.6 0L10.5 0C10.5 0.165466 10.4674 0.329311 10.4041 0.482181C10.3408 0.635051 10.248 0.773953 10.131 0.890955C10.014 1.00796 9.87505 1.10077 9.72218 1.16409C9.56931 1.22741 9.40547 1.26 9.24 1.26C9.07453 1.26 8.91069 1.22741 8.75782 1.16409C8.60495 1.10077 8.46605 1.00796 8.34904 0.890955C8.23204 0.773953 8.13923 0.635051 8.07591 0.482181C8.01259 0.329311 7.98 0.165466 7.98 0L5.88 0C5.88 0.165466 5.84741 0.329311 5.78409 0.482181C5.72077 0.635051 5.62796 0.773953 5.51095 0.890955C5.39395 1.00796 5.25505 1.10077 5.10218 1.16409C4.94931 1.22741 4.78547 1.26 4.62 1.26C4.45453 1.26 4.29069 1.22741 4.13782 1.16409C3.98495 1.10077 3.84605 1.00796 3.72905 0.890955C3.61204 0.773953 3.51923 0.635051 3.45591 0.482181C3.39259 0.329311 3.36 0.165466 3.36 0L1.26 0C1.26 0.334173 1.12725 0.654659 0.890954 0.890954C0.654659 1.12725 0.334173 1.26 0 1.26L0 33.18C0.334173 33.18 0.654659 33.3127 0.890954 33.549C1.12725 33.7853 1.26 34.1058 1.26 34.44H3.36C3.36 34.2745 3.39259 34.1107 3.45591 33.9578C3.51923 33.8049 3.61204 33.666 3.72905 33.549C3.84605 33.432 3.98495 33.3392 4.13782 33.2759C4.29069 33.2126 4.45453 33.18 4.62 33.18C4.78547 33.18 4.94931 33.2126 5.10218 33.2759C5.25505 33.3392 5.39395 33.432 5.51095 33.549C5.62796 33.666 5.72077 33.8049 5.78409 33.9578C5.84741 34.1107 5.88 34.2745 5.88 34.44H7.98C7.98 34.2745 8.01259 34.1107 8.07591 33.9578C8.13923 33.8049 8.23204 33.666 8.34904 33.549C8.46605 33.432 8.60495 33.3392 8.75782 33.2759C8.91069 33.2126 9.07453 33.18 9.24 33.18C9.40547 33.18 9.56931 33.2126 9.72218 33.2759C9.87505 33.3392 10.014 33.432 10.131 33.549C10.248 33.666 10.3408 33.8049 10.4041 33.9578C10.4674 34.1107 10.5 34.2745 10.5 34.44H12.6C12.6 34.1058 12.7327 33.7853 12.969 33.549C13.2053 33.3127 13.5258 33.18 13.86 33.18C14.1942 33.18 14.5147 33.3127 14.751 33.549C14.9872 33.7853 15.12 34.1058 15.12 34.44H17.22C17.22 32.3522 18.9122 30.66 21 30.66C23.0878 30.66 24.78 32.3522 24.78 34.44H26.88C26.88 34.1058 27.0127 33.7853 27.249 33.549C27.4853 33.3127 27.8058 33.18 28.14 33.18C28.4742 33.18 28.7947 33.3127 29.031 33.549C29.2673 33.7853 29.4 34.1058 29.4 34.44H31.5C31.5 34.1058 31.6327 33.7853 31.869 33.549C32.1053 33.3127 32.4258 33.18 32.76 33.18C33.0942 33.18 33.4147 33.3127 33.651 33.549C33.8872 33.7853 34.02 34.1058 34.02 34.44H36.12C36.12 34.1058 36.2527 33.7853 36.489 33.549C36.7253 33.3127 37.0458 33.18 37.38 33.18C37.7142 33.18 38.0347 33.3127 38.271 33.549C38.5073 33.7853 38.64 34.1058 38.64 34.44H40.74C40.74 34.1058 40.8727 33.7853 41.109 33.549C41.3453 33.3127 41.6658 33.18 42 33.18V1.26C41.6658 1.26 41.3453 1.12725 41.109 0.890954C40.8727 0.654659 40.74 0.334173 40.74 0V0Z" fill="#EBECED"/>
<path d="M40.74 0H38.64C38.64 0.334173 38.5073 0.654659 38.271 0.890954C38.0347 1.12725 37.7142 1.26 37.38 1.26C37.0458 1.26 36.7253 1.12725 36.489 0.890954C36.2527 0.654659 36.12 0.334173 36.12 0L34.02 0C34.02 0.334173 33.8872 0.654659 33.651 0.890954C33.4147 1.12725 33.0942 1.26 32.76 1.26C32.4258 1.26 32.1053 1.12725 31.869 0.890954C31.6327 0.654659 31.5 0.334173 31.5 0L29.4 0C29.4 0.334173 29.2673 0.654659 29.031 0.890954C28.7947 1.12725 28.4742 1.26 28.14 1.26C27.8058 1.26 27.4853 1.12725 27.249 0.890954C27.0127 0.654659 26.88 0.334173 26.88 0L24.78 0C24.78 2.08782 23.0878 3.78 21 3.78C18.9122 3.78 17.22 2.08782 17.22 0H15.12C15.12 0.334173 14.9872 0.654659 14.751 0.890954C14.5147 1.12725 14.1942 1.26 13.86 1.26C13.5258 1.26 13.2053 1.12725 12.969 0.890954C12.7327 0.654659 12.6 0.334173 12.6 0L10.5 0C10.5 0.165466 10.4674 0.329311 10.4041 0.482181C10.3408 0.635051 10.248 0.773953 10.131 0.890955C10.014 1.00796 9.87505 1.10077 9.72218 1.16409C9.56931 1.22741 9.40547 1.26 9.24 1.26C9.07453 1.26 8.91069 1.22741 8.75782 1.16409C8.60495 1.10077 8.46605 1.00796 8.34904 0.890955C8.23204 0.773953 8.13923 0.635051 8.07591 0.482181C8.01259 0.329311 7.98 0.165466 7.98 0L5.88 0C5.88 0.165466 5.84741 0.329311 5.78409 0.482181C5.72077 0.635051 5.62796 0.773953 5.51095 0.890955C5.39395 1.00796 5.25505 1.10077 5.10218 1.16409C4.94931 1.22741 4.78547 1.26 4.62 1.26C4.45453 1.26 4.29069 1.22741 4.13782 1.16409C3.98495 1.10077 3.84605 1.00796 3.72905 0.890955C3.61204 0.773953 3.51923 0.635051 3.45591 0.482181C3.39259 0.329311 3.36 0.165466 3.36 0L1.26 0C1.26 0.334173 1.12725 0.654659 0.890954 0.890954C0.654659 1.12725 0.334173 1.26 0 1.26L0 33.18C0.334173 33.18 0.654659 33.3127 0.890954 33.549C1.12725 33.7853 1.26 34.1058 1.26 34.44H3.36C3.36 34.2745 3.39259 34.1107 3.45591 33.9578C3.51923 33.8049 3.61204 33.666 3.72905 33.549C3.84605 33.432 3.98495 33.3392 4.13782 33.2759C4.29069 33.2126 4.45453 33.18 4.62 33.18C4.78547 33.18 4.94931 33.2126 5.10218 33.2759C5.25505 33.3392 5.39395 33.432 5.51095 33.549C5.62796 33.666 5.72077 33.8049 5.78409 33.9578C5.84741 34.1107 5.88 34.2745 5.88 34.44H7.98C7.98 34.2745 8.01259 34.1107 8.07591 33.9578C8.13923 33.8049 8.23204 33.666 8.34904 33.549C8.46605 33.432 8.60495 33.3392 8.75782 33.2759C8.91069 33.2126 9.07453 33.18 9.24 33.18C9.40547 33.18 9.56931 33.2126 9.72218 33.2759C9.87505 33.3392 10.014 33.432 10.131 33.549C10.248 33.666 10.3408 33.8049 10.4041 33.9578C10.4674 34.1107 10.5 34.2745 10.5 34.44H12.6C12.6 34.1058 12.7327 33.7853 12.969 33.549C13.2053 33.3127 13.5258 33.18 13.86 33.18C14.1942 33.18 14.5147 33.3127 14.751 33.549C14.9872 33.7853 15.12 34.1058 15.12 34.44H17.22C17.22 32.3522 18.9122 30.66 21 30.66C23.0878 30.66 24.78 32.3522 24.78 34.44H26.88C26.88 34.1058 27.0127 33.7853 27.249 33.549C27.4853 33.3127 27.8058 33.18 28.14 33.18C28.4742 33.18 28.7947 33.3127 29.031 33.549C29.2673 33.7853 29.4 34.1058 29.4 34.44H31.5C31.5 34.1058 31.6327 33.7853 31.869 33.549C32.1053 33.3127 32.4258 33.18 32.76 33.18C33.0942 33.18 33.4147 33.3127 33.651 33.549C33.8872 33.7853 34.02 34.1058 34.02 34.44H36.12C36.12 34.1058 36.2527 33.7853 36.489 33.549C36.7253 33.3127 37.0458 33.18 37.38 33.18C37.7142 33.18 38.0347 33.3127 38.271 33.549C38.5073 33.7853 38.64 34.1058 38.64 34.44H40.74C40.74 34.1058 40.8727 33.7853 41.109 33.549C41.3453 33.3127 41.6658 33.18 42 33.18V1.26C41.6658 1.26 41.3453 1.12725 41.109 0.890954C40.8727 0.654659 40.74 0.334173 40.74 0V0Z" fill="#EBECED"/>
<path d="M36.1192 6.30005H5.87922C5.43366 6.30005 5.00634 6.47705 4.69128 6.79211C4.37622 7.10717 4.19922 7.53448 4.19922 7.98005V26.46C4.19922 26.9056 4.37622 27.3329 4.69128 27.648C5.00634 27.963 5.43366 28.14 5.87922 28.14H36.1192C36.5648 28.14 36.9921 27.963 37.3072 27.648C37.6222 27.3329 37.7992 26.9056 37.7992 26.46V7.98005C37.7992 7.53448 37.6222 7.10717 37.3072 6.79211C36.9921 6.47705 36.5648 6.30005 36.1192 6.30005ZM36.9592 26.04C36.9592 26.3742 36.8265 26.6947 36.5902 26.931C36.3539 27.1673 36.0334 27.3 35.6992 27.3H6.29922C5.96505 27.3 5.64456 27.1673 5.40826 26.931C5.17197 26.6947 5.03922 26.3742 5.03922 26.04V8.40005C5.03922 8.06588 5.17197 7.74539 5.40826 7.50909C5.64456 7.2728 5.96505 7.14005 6.29922 7.14005H35.6992C36.0334 7.14005 36.3539 7.2728 36.5902 7.50909C36.8265 7.74539 36.9592 8.06588 36.9592 8.40005V26.04Z" fill="#BDC2C7"/>
<path d="M40.74 35.28H38.64C38.64 35.6142 38.5073 35.9347 38.271 36.171C38.0347 36.4073 37.7142 36.54 37.38 36.54C37.0458 36.54 36.7253 36.4073 36.489 36.171C36.2527 35.9347 36.12 35.6142 36.12 35.28H34.02C34.02 35.6142 33.8872 35.9347 33.651 36.171C33.4147 36.4073 33.0942 36.54 32.76 36.54C32.4258 36.54 32.1053 36.4073 31.869 36.171C31.6327 35.9347 31.5 35.6142 31.5 35.28H29.4C29.4 35.6142 29.2673 35.9347 29.031 36.171C28.7947 36.4073 28.4742 36.54 28.14 36.54C27.8058 36.54 27.4853 36.4073 27.249 36.171C27.0127 35.9347 26.88 35.6142 26.88 35.28H24.78C24.78 37.3678 23.0878 39.06 21 39.06C18.9122 39.06 17.22 37.3678 17.22 35.28H15.12C15.12 35.6142 14.9872 35.9347 14.751 36.171C14.5147 36.4073 14.1942 36.54 13.86 36.54C13.5258 36.54 13.2053 36.4073 12.969 36.171C12.7327 35.9347 12.6 35.6142 12.6 35.28H10.5C10.5 35.4455 10.4674 35.6093 10.4041 35.7622C10.3408 35.9151 10.248 36.054 10.131 36.171C10.014 36.288 9.87505 36.3808 9.72218 36.4441C9.56931 36.5074 9.40547 36.54 9.24 36.54C9.07453 36.54 8.91069 36.5074 8.75782 36.4441C8.60495 36.3808 8.46605 36.288 8.34904 36.171C8.23204 36.054 8.13923 35.9151 8.07591 35.7622C8.01259 35.6093 7.98 35.4455 7.98 35.28H5.88C5.88 35.4455 5.84741 35.6093 5.78409 35.7622C5.72077 35.9151 5.62796 36.054 5.51095 36.171C5.39395 36.288 5.25505 36.3808 5.10218 36.4441C4.94931 36.5074 4.78547 36.54 4.62 36.54C4.45453 36.54 4.29069 36.5074 4.13782 36.4441C3.98495 36.3808 3.84605 36.288 3.72905 36.171C3.61204 36.054 3.51923 35.9151 3.45591 35.7622C3.39259 35.6093 3.36 35.4455 3.36 35.28H1.26C1.26 35.6142 1.12725 35.9347 0.890954 36.171C0.654659 36.4073 0.334173 36.54 0 36.54L0 42H42V36.54C41.6658 36.54 41.3453 36.4073 41.109 36.171C40.8727 35.9347 40.74 35.6142 40.74 35.28Z" fill="#EBECED"/>
<path d="M40.74 35.28H38.64C38.64 35.6142 38.5073 35.9347 38.271 36.171C38.0347 36.4073 37.7142 36.54 37.38 36.54C37.0458 36.54 36.7253 36.4073 36.489 36.171C36.2527 35.9347 36.12 35.6142 36.12 35.28H34.02C34.02 35.6142 33.8872 35.9347 33.651 36.171C33.4147 36.4073 33.0942 36.54 32.76 36.54C32.4258 36.54 32.1053 36.4073 31.869 36.171C31.6327 35.9347 31.5 35.6142 31.5 35.28H29.4C29.4 35.6142 29.2673 35.9347 29.031 36.171C28.7947 36.4073 28.4742 36.54 28.14 36.54C27.8058 36.54 27.4853 36.4073 27.249 36.171C27.0127 35.9347 26.88 35.6142 26.88 35.28H24.78C24.78 37.3678 23.0878 39.06 21 39.06C18.9122 39.06 17.22 37.3678 17.22 35.28H15.12C15.12 35.6142 14.9872 35.9347 14.751 36.171C14.5147 36.4073 14.1942 36.54 13.86 36.54C13.5258 36.54 13.2053 36.4073 12.969 36.171C12.7327 35.9347 12.6 35.6142 12.6 35.28H10.5C10.5 35.4455 10.4674 35.6093 10.4041 35.7622C10.3408 35.9151 10.248 36.054 10.131 36.171C10.014 36.288 9.87505 36.3808 9.72218 36.4441C9.56931 36.5074 9.40547 36.54 9.24 36.54C9.07453 36.54 8.91069 36.5074 8.75782 36.4441C8.60495 36.3808 8.46605 36.288 8.34904 36.171C8.23204 36.054 8.13923 35.9151 8.07591 35.7622C8.01259 35.6093 7.98 35.4455 7.98 35.28H5.88C5.88 35.4455 5.84741 35.6093 5.78409 35.7622C5.72077 35.9151 5.62796 36.054 5.51095 36.171C5.39395 36.288 5.25505 36.3808 5.10218 36.4441C4.94931 36.5074 4.78547 36.54 4.62 36.54C4.45453 36.54 4.29069 36.5074 4.13782 36.4441C3.98495 36.3808 3.84605 36.288 3.72905 36.171C3.61204 36.054 3.51923 35.9151 3.45591 35.7622C3.39259 35.6093 3.36 35.4455 3.36 35.28H1.26C1.26 35.6142 1.12725 35.9347 0.890954 36.171C0.654659 36.4073 0.334173 36.54 0 36.54L0 42H42V36.54C41.6658 36.54 41.3453 36.4073 41.109 36.171C40.8727 35.9347 40.74 35.6142 40.74 35.28Z" fill="#EBECED"/>
<path d="M15.2111 21.0706C15.1611 20.9816 15.0978 20.9009 15.0233 20.8312C14.9344 20.7494 14.8298 20.6866 14.7159 20.6464C14.5903 20.5993 14.4295 20.5754 14.2337 20.5754C13.8263 20.5754 13.5231 20.6842 13.324 20.9005C13.1249 21.1172 13.0254 21.4969 13.0254 22.0391C13.0254 22.2592 13.0447 22.4608 13.0838 22.643C13.1228 22.8257 13.1774 22.969 13.2476 23.074C13.3442 23.2222 13.4677 23.3339 13.6184 23.4108C13.7692 23.4877 13.967 23.525 14.2119 23.525C14.6483 23.525 14.9557 23.4053 15.1342 23.1655C15.3127 22.9257 15.4022 22.5464 15.4022 22.029C15.4022 21.7976 15.3753 21.5758 15.3207 21.3629C15.2967 21.2612 15.2599 21.1629 15.2111 21.0706ZM14.5563 22.6325C14.5277 22.7548 14.4836 22.8442 14.4236 22.9009C14.3664 22.9562 14.2897 22.9865 14.2102 22.9853C14.0859 22.9853 13.991 22.919 13.9255 22.7854C13.8599 22.6531 13.8272 22.4045 13.8272 22.0412C13.8272 21.6825 13.857 21.436 13.9162 21.3028C13.9759 21.1697 14.0725 21.1029 14.206 21.1029C14.3371 21.1029 14.4349 21.168 14.5004 21.2982C14.566 21.4292 14.5987 21.6833 14.5987 22.0622C14.5987 22.3209 14.5849 22.5112 14.5563 22.6325ZM17.6441 21.9437C17.7634 21.8652 17.8508 21.7854 17.9062 21.7022C17.9801 21.5905 18.0171 21.4708 18.0171 21.3423C18.0171 21.1226 17.9243 20.9391 17.7382 20.7934C17.5522 20.648 17.2653 20.575 16.8764 20.575C16.5828 20.575 16.3468 20.6338 16.1678 20.7501C15.9389 20.9021 15.8247 21.0974 15.8247 21.3364C15.8247 21.4817 15.8642 21.6103 15.9436 21.722C16.0019 21.8035 16.0943 21.8774 16.2212 21.9437C16.0557 22.0072 15.9335 22.0966 15.8541 22.2134C15.7747 22.3301 15.7348 22.4713 15.7348 22.6393C15.7348 22.8106 15.7772 22.9656 15.8617 23.1038C15.9465 23.2428 16.07 23.3478 16.2325 23.4192C16.3955 23.4906 16.6307 23.5267 16.939 23.5267C17.1032 23.5267 17.2573 23.5103 17.4022 23.4793C17.5318 23.4537 17.6552 23.4032 17.7655 23.3306C17.8625 23.263 17.9444 23.1672 18.0112 23.0433C18.0777 22.9205 18.1122 22.783 18.1116 22.6435C18.1116 22.4948 18.073 22.3604 17.9953 22.2382C17.9188 22.1155 17.8016 22.0177 17.6441 21.9437ZM16.6769 21.1487C16.7086 21.1183 16.7461 21.0946 16.7871 21.0791C16.8282 21.0636 16.872 21.0565 16.9159 21.0584C16.9597 21.0568 17.0035 21.0642 17.0444 21.0801C17.0854 21.0959 17.1226 21.12 17.154 21.1508C17.1852 21.1823 17.2096 21.22 17.2257 21.2614C17.2417 21.3028 17.249 21.3471 17.2472 21.3914C17.2472 21.4864 17.2174 21.5628 17.1578 21.6229C17.0981 21.6829 17.0221 21.7123 16.9297 21.7123C16.8251 21.7123 16.7416 21.6829 16.6786 21.622C16.6472 21.591 16.6226 21.5538 16.6064 21.5128C16.5902 21.4718 16.5828 21.4279 16.5845 21.3839C16.5829 21.3404 16.5903 21.2971 16.6062 21.2567C16.6221 21.2162 16.6461 21.1794 16.6769 21.1487ZM17.1859 22.9177C17.1091 22.9984 17.0225 23.0391 16.9259 23.0391C16.8251 23.0391 16.7361 22.9988 16.658 22.9194C16.5799 22.84 16.5408 22.7363 16.5408 22.6115C16.5408 22.4792 16.5782 22.3742 16.6529 22.2961C16.6861 22.2593 16.7267 22.2299 16.772 22.2099C16.8173 22.1898 16.8663 22.1796 16.9159 22.1798C17.0179 22.1798 17.1074 22.2201 17.1847 22.3003C17.2619 22.3801 17.3006 22.4843 17.3006 22.6094C17.3027 22.6658 17.2937 22.7221 17.274 22.775C17.2543 22.8279 17.2244 22.8764 17.1859 22.9177ZM20.354 21.9437C20.4728 21.8652 20.5602 21.7854 20.616 21.7022C20.69 21.5905 20.7273 21.4708 20.7273 21.3423C20.7273 21.1226 20.6341 20.9391 20.4485 20.7934C20.2628 20.648 19.9755 20.575 19.5866 20.575C19.293 20.575 19.057 20.6338 18.8785 20.7501C18.6496 20.9021 18.5354 21.0974 18.5354 21.3364C18.5354 21.4817 18.5753 21.6103 18.6542 21.722C18.7126 21.8035 18.805 21.8774 18.9323 21.9437C18.7668 22.0072 18.6446 22.0966 18.5652 22.2134C18.4858 22.3301 18.4463 22.4713 18.4463 22.6393C18.4463 22.8106 18.4888 22.9656 18.5732 23.1038C18.6576 23.2428 18.7815 23.3478 18.944 23.4192C19.1066 23.4906 19.3422 23.5267 19.6505 23.5267C19.8143 23.5267 19.9688 23.5103 20.1137 23.4793C20.2586 23.4473 20.3796 23.3978 20.4766 23.3306C20.5736 23.263 20.656 23.1672 20.7223 23.0433C20.7888 22.9205 20.8233 22.783 20.8227 22.6435C20.8227 22.4948 20.784 22.3604 20.7068 22.2382C20.6291 22.1155 20.5115 22.0177 20.354 21.9437ZM19.3871 21.1487C19.4188 21.1183 19.4563 21.0946 19.4974 21.0791C19.5385 21.0636 19.5822 21.0565 19.6261 21.0584C19.7223 21.0584 19.8017 21.089 19.8642 21.1508C19.8955 21.1823 19.9199 21.22 19.936 21.2614C19.952 21.3028 19.9594 21.3471 19.9575 21.3914C19.9591 21.434 19.952 21.4765 19.9367 21.5163C19.9214 21.556 19.8982 21.5923 19.8685 21.6229C19.8386 21.6526 19.8029 21.6759 19.7637 21.6913C19.7245 21.7067 19.6825 21.7138 19.6404 21.7123C19.5358 21.7123 19.4522 21.6829 19.3897 21.622C19.3582 21.5911 19.3335 21.554 19.3172 21.5129C19.3009 21.4719 19.2934 21.428 19.2951 21.3839C19.2932 21.3404 19.3004 21.297 19.3162 21.2565C19.3321 21.216 19.3562 21.1793 19.3871 21.1487ZM19.8958 22.9177C19.8189 22.9984 19.7324 23.0391 19.6358 23.0391C19.5354 23.0391 19.4459 22.9988 19.3678 22.9194C19.2897 22.84 19.2506 22.7363 19.2506 22.6115C19.2506 22.4792 19.288 22.3742 19.3628 22.2961C19.3959 22.2593 19.4365 22.2299 19.4818 22.2098C19.5271 22.1898 19.5761 22.1795 19.6257 22.1798C19.7273 22.1798 19.8172 22.2201 19.8945 22.3003C19.9722 22.3801 20.0104 22.4843 20.0104 22.6094C20.0126 22.6658 20.0035 22.7221 19.9838 22.775C19.9642 22.8279 19.9342 22.8764 19.8958 22.9177ZM23.249 20.575H22.5443L21.0726 22.4104V23.0756H22.5443V23.4776H23.249V22.9438H23.614V22.3285H23.249V20.575ZM22.5443 22.4469H21.7664L22.5443 21.4305V22.4469ZM25.3398 21.5737C25.2062 21.5737 25.0878 21.5968 24.9866 21.643C24.8752 21.6952 24.7742 21.7674 24.6888 21.856C24.714 21.5498 24.7522 21.3499 24.8056 21.2558C24.8786 21.126 24.9803 21.0617 25.1113 21.0617C25.1844 21.0617 25.2453 21.0844 25.2953 21.1298C25.3453 21.1751 25.3797 21.2533 25.4011 21.3633L26.2041 21.2663C26.165 21.1262 26.0963 20.9961 26.0025 20.8849C25.9115 20.7819 25.7965 20.7027 25.6678 20.6543C25.5342 20.6014 25.3511 20.5754 25.1197 20.5754C24.7274 20.5754 24.4217 20.6951 24.2007 20.9341C23.9807 21.1735 23.8694 21.551 23.8694 22.066C23.8694 22.4175 23.9223 22.7002 24.0273 22.9135C24.1323 23.1277 24.273 23.2827 24.449 23.3797C24.6249 23.4767 24.8585 23.5263 25.1491 23.5263C25.391 23.5263 25.5926 23.486 25.7531 23.4066C25.9135 23.3268 26.0395 23.2084 26.1294 23.053C26.2205 22.8971 26.265 22.7258 26.265 22.5368C26.265 22.2579 26.1756 22.0273 25.9963 21.8455C25.9115 21.7573 25.8095 21.6876 25.6965 21.6408C25.5835 21.5941 25.462 21.5712 25.3398 21.5737ZM25.3931 22.9131C25.3602 22.9511 25.3193 22.9815 25.2734 23.002C25.2275 23.0225 25.1776 23.0328 25.1273 23.032C25.0126 23.032 24.9148 22.9883 24.8358 22.9009C24.7568 22.8136 24.7173 22.6926 24.7173 22.538C24.7173 22.3864 24.7551 22.2692 24.8312 22.1878C24.8667 22.1482 24.9104 22.1168 24.9591 22.0956C25.0079 22.0745 25.0607 22.0641 25.1138 22.0651C25.2239 22.0651 25.3154 22.108 25.3898 22.192C25.4637 22.276 25.5006 22.3986 25.5006 22.5595C25.5002 22.7157 25.4645 22.8337 25.3931 22.9131ZM28.7073 21.8467C28.6226 21.7584 28.5205 21.6886 28.4075 21.6417C28.2944 21.5949 28.1728 21.572 28.0505 21.5746C27.9169 21.5746 27.7985 21.5977 27.6968 21.6439C27.5855 21.6963 27.4847 21.7684 27.399 21.8568C27.4251 21.5506 27.4637 21.3507 27.5162 21.257C27.5893 21.1268 27.6909 21.0626 27.8224 21.0626C27.8902 21.0608 27.956 21.0852 28.0064 21.1306C28.0559 21.176 28.0908 21.2537 28.1122 21.3641L28.9157 21.2671C28.8762 21.1271 28.8074 20.997 28.7136 20.8858C28.6225 20.7828 28.5076 20.7037 28.3789 20.6552C28.2453 20.6023 28.0622 20.5762 27.8304 20.5762C27.4385 20.5762 27.1328 20.6959 26.9114 20.9353C26.6913 21.1747 26.5809 21.5523 26.5809 22.0672C26.5809 22.4188 26.6334 22.7014 26.7384 22.9152C26.8438 23.1286 26.9841 23.2844 27.1601 23.381C27.336 23.4776 27.5696 23.5271 27.8602 23.5271C28.1025 23.5271 28.3046 23.4872 28.4642 23.4074C28.625 23.3281 28.7506 23.2096 28.8405 23.0546C28.9314 22.8979 28.9784 22.7196 28.9766 22.5385C28.9761 22.2583 28.8858 22.0277 28.7073 21.8467ZM28.103 22.9131C28.0699 22.9511 28.029 22.9815 27.983 23.002C27.937 23.0225 27.8871 23.0328 27.8367 23.032C27.7816 23.0326 27.727 23.0212 27.6767 22.9986C27.6264 22.9759 27.5817 22.9426 27.5456 22.9009C27.4667 22.8131 27.4268 22.6926 27.4268 22.538C27.4268 22.3864 27.4654 22.2692 27.5406 22.1878C27.5762 22.1483 27.6198 22.1169 27.6686 22.0957C27.7174 22.0746 27.7701 22.0641 27.8232 22.0651C27.9333 22.0651 28.0244 22.108 28.0992 22.192C28.1731 22.276 28.2105 22.3986 28.2105 22.5595C28.2105 22.7157 28.1748 22.8337 28.103 22.9131Z" fill="#C13E30"/>
<path d="M8.40047 16.8C8.28908 16.8 8.18225 16.8443 8.10348 16.9231C8.02472 17.0018 7.98047 17.1087 7.98047 17.22C7.98047 17.3314 8.02472 17.4383 8.10348 17.517C8.18225 17.5958 8.28908 17.64 8.40047 17.64C8.51186 17.64 8.61869 17.5958 8.69745 17.517C8.77622 17.4383 8.82047 17.3314 8.82047 17.22C8.82047 17.1087 8.77622 17.0018 8.69745 16.9231C8.61869 16.8443 8.51186 16.8 8.40047 16.8ZM12.6005 16.8C12.4891 16.8 12.3822 16.8443 12.3035 16.9231C12.2247 17.0018 12.1805 17.1087 12.1805 17.22C12.1805 17.3314 12.2247 17.4383 12.3035 17.517C12.3822 17.5958 12.4891 17.64 12.6005 17.64C12.7119 17.64 12.8187 17.5958 12.8975 17.517C12.9762 17.4383 13.0205 17.3314 13.0205 17.22C13.0205 17.1087 12.9762 17.0018 12.8975 16.9231C12.8187 16.8443 12.7119 16.8 12.6005 16.8ZM16.8005 16.8C16.6891 16.8 16.5822 16.8443 16.5035 16.9231C16.4247 17.0018 16.3805 17.1087 16.3805 17.22C16.3805 17.3314 16.4247 17.4383 16.5035 17.517C16.5822 17.5958 16.6891 17.64 16.8005 17.64C16.9119 17.64 17.0187 17.5958 17.0975 17.517C17.1762 17.4383 17.2205 17.3314 17.2205 17.22C17.2205 17.1087 17.1762 17.0018 17.0975 16.9231C17.0187 16.8443 16.9119 16.8 16.8005 16.8ZM21.0005 16.8C20.8891 16.8 20.7822 16.8443 20.7035 16.9231C20.6247 17.0018 20.5805 17.1087 20.5805 17.22C20.5805 17.3314 20.6247 17.4383 20.7035 17.517C20.7822 17.5958 20.8891 17.64 21.0005 17.64C21.1119 17.64 21.2187 17.5958 21.2975 17.517C21.3762 17.4383 21.4205 17.3314 21.4205 17.22C21.4205 17.1087 21.3762 17.0018 21.2975 16.9231C21.2187 16.8443 21.1119 16.8 21.0005 16.8ZM25.2005 16.8C25.0891 16.8 24.9823 16.8443 24.9035 16.9231C24.8247 17.0018 24.7805 17.1087 24.7805 17.22C24.7805 17.3314 24.8247 17.4383 24.9035 17.517C24.9823 17.5958 25.0891 17.64 25.2005 17.64C25.3119 17.64 25.4187 17.5958 25.4975 17.517C25.5762 17.4383 25.6205 17.3314 25.6205 17.22C25.6205 17.1087 25.5762 17.0018 25.4975 16.9231C25.4187 16.8443 25.3119 16.8 25.2005 16.8ZM29.4005 16.8C29.2891 16.8 29.1822 16.8443 29.1035 16.9231C29.0247 17.0018 28.9805 17.1087 28.9805 17.22C28.9805 17.3314 29.0247 17.4383 29.1035 17.517C29.1822 17.5958 29.2891 17.64 29.4005 17.64C29.5119 17.64 29.6187 17.5958 29.6975 17.517C29.7762 17.4383 29.8205 17.3314 29.8205 17.22C29.8205 17.1087 29.7762 17.0018 29.6975 16.9231C29.6187 16.8443 29.5119 16.8 29.4005 16.8ZM33.6005 16.8C33.4891 16.8 33.3822 16.8443 33.3035 16.9231C33.2247 17.0018 33.1805 17.1087 33.1805 17.22C33.1805 17.3314 33.2247 17.4383 33.3035 17.517C33.3822 17.5958 33.4891 17.64 33.6005 17.64C33.7119 17.64 33.8187 17.5958 33.8975 17.517C33.9762 17.4383 34.0205 17.3314 34.0205 17.22C34.0205 17.1087 33.9762 17.0018 33.8975 16.9231C33.8187 16.8443 33.7119 16.8 33.6005 16.8ZM10.5005 16.8C10.3891 16.8 10.2822 16.8443 10.2035 16.9231C10.1247 17.0018 10.0805 17.1087 10.0805 17.22C10.0805 17.3314 10.1247 17.4383 10.2035 17.517C10.2822 17.5958 10.3891 17.64 10.5005 17.64C10.6119 17.64 10.7187 17.5958 10.7975 17.517C10.8762 17.4383 10.9205 17.3314 10.9205 17.22C10.9205 17.1087 10.8762 17.0018 10.7975 16.9231C10.7187 16.8443 10.6119 16.8 10.5005 16.8ZM14.7005 16.8C14.5891 16.8 14.4822 16.8443 14.4035 16.9231C14.3247 17.0018 14.2805 17.1087 14.2805 17.22C14.2805 17.3314 14.3247 17.4383 14.4035 17.517C14.4822 17.5958 14.5891 17.64 14.7005 17.64C14.8119 17.64 14.9187 17.5958 14.9975 17.517C15.0762 17.4383 15.1205 17.3314 15.1205 17.22C15.1205 17.1087 15.0762 17.0018 14.9975 16.9231C14.9187 16.8443 14.8119 16.8 14.7005 16.8ZM18.9005 16.8C18.7891 16.8 18.6822 16.8443 18.6035 16.9231C18.5247 17.0018 18.4805 17.1087 18.4805 17.22C18.4805 17.3314 18.5247 17.4383 18.6035 17.517C18.6822 17.5958 18.7891 17.64 18.9005 17.64C19.0119 17.64 19.1187 17.5958 19.1975 17.517C19.2762 17.4383 19.3205 17.3314 19.3205 17.22C19.3205 17.1087 19.2762 17.0018 19.1975 16.9231C19.1187 16.8443 19.0119 16.8 18.9005 16.8ZM23.1005 16.8C22.9891 16.8 22.8822 16.8443 22.8035 16.9231C22.7247 17.0018 22.6805 17.1087 22.6805 17.22C22.6805 17.3314 22.7247 17.4383 22.8035 17.517C22.8822 17.5958 22.9891 17.64 23.1005 17.64C23.2119 17.64 23.3187 17.5958 23.3975 17.517C23.4762 17.4383 23.5205 17.3314 23.5205 17.22C23.5205 17.1087 23.4762 17.0018 23.3975 16.9231C23.3187 16.8443 23.2119 16.8 23.1005 16.8ZM27.3005 16.8C27.1891 16.8 27.0822 16.8443 27.0035 16.9231C26.9247 17.0018 26.8805 17.1087 26.8805 17.22C26.8805 17.3314 26.9247 17.4383 27.0035 17.517C27.0822 17.5958 27.1891 17.64 27.3005 17.64C27.4119 17.64 27.5187 17.5958 27.5975 17.517C27.6762 17.4383 27.7205 17.3314 27.7205 17.22C27.7205 17.1087 27.6762 17.0018 27.5975 16.9231C27.5187 16.8443 27.4119 16.8 27.3005 16.8ZM31.5005 16.8C31.3891 16.8 31.2822 16.8443 31.2035 16.9231C31.1247 17.0018 31.0805 17.1087 31.0805 17.22C31.0805 17.3314 31.1247 17.4383 31.2035 17.517C31.2822 17.5958 31.3891 17.64 31.5005 17.64C31.6119 17.64 31.7187 17.5958 31.7975 17.517C31.8762 17.4383 31.9205 17.3314 31.9205 17.22C31.9205 17.1087 31.8762 17.0018 31.7975 16.9231C31.7187 16.8443 31.6119 16.8 31.5005 16.8Z" fill="#5F6F7F"/>
<path d="M9.1093 10.9636L7.97656 13.8171H8.92744L9.07444 13.3462H10.132L10.2828 13.8171H11.258L10.1257 10.9636H9.1093ZM9.27688 12.7297L9.60616 11.704L9.9388 12.7297H9.27688ZM14.0271 11.3706C13.915 11.2377 13.7721 11.1341 13.6109 11.069C13.4429 10.9989 13.2228 10.9636 12.9498 10.9636H11.5663V13.8171H12.9498C13.1157 13.8171 13.3005 13.791 13.5046 13.7394C13.6541 13.7016 13.7936 13.626 13.9242 13.5126C14.0544 13.3987 14.156 13.2585 14.2295 13.09C14.303 12.922 14.3396 12.6856 14.3396 12.3807C14.3396 12.1858 14.3148 12.0018 14.2656 11.8279C14.2195 11.6603 14.1382 11.5044 14.0271 11.3706ZM13.3345 12.8935C13.2879 12.9955 13.2232 13.0669 13.1413 13.1081C13.059 13.1488 12.9208 13.1694 12.7259 13.1694H12.4979V11.6104H12.7301C12.9712 11.6104 13.1438 11.6662 13.248 11.7775C13.3521 11.8888 13.4042 12.0963 13.4042 12.3987C13.4042 12.6268 13.3811 12.7918 13.3345 12.8935ZM16.516 12.6999L16.0435 10.9636H14.8184V13.8171H15.5811V11.641L16.1678 13.8171H16.8583L17.4459 11.641V13.8171H18.2086V10.9636H16.9847L16.516 12.6999ZM18.8399 13.8171H19.7731V10.9636H18.8399V13.8171ZM20.2301 11.6683H21.1797V13.8171H22.1112V11.6683H23.0613V10.9636H20.2301V11.6683ZM25.9055 10.9153C25.4166 10.9153 25.0353 11.0451 24.7602 11.3046C24.4863 11.5642 24.349 11.9266 24.349 12.3928C24.349 12.7263 24.4179 13.0039 24.5561 13.2257C24.6947 13.4475 24.8757 13.6096 25.0979 13.7121C25.3205 13.8145 25.6019 13.8658 25.9421 13.8658C26.2768 13.8658 26.5557 13.8061 26.7795 13.6877C26.9963 13.5758 27.1753 13.4023 27.294 13.1892C27.4129 12.9758 27.4721 12.7024 27.4721 12.3689C27.4721 11.909 27.3365 11.5524 27.0643 11.2971C26.7938 11.0425 26.407 10.9153 25.9055 10.9153ZM26.3763 13.0216C26.2667 13.1446 26.1117 13.206 25.9122 13.206C25.7178 13.206 25.5641 13.1434 25.4502 13.0174C25.3368 12.8914 25.2806 12.6847 25.2806 12.3962C25.2806 12.1056 25.3381 11.8972 25.4519 11.7712C25.5657 11.6457 25.7161 11.5831 25.9034 11.5831C26.1 11.5831 26.255 11.6448 26.3692 11.7687C26.4834 11.8926 26.5401 12.0888 26.5401 12.3571C26.5401 12.6768 26.486 12.8981 26.3763 13.0216ZM29.985 12.5424L28.8497 10.9636H27.9803V13.8171H28.856V12.2505L29.985 13.8171H30.8628V10.9636H29.985V12.5424ZM32.4126 13.1711V12.6083H33.8616V12.0262H32.4126V11.573H33.975V10.9636H31.4789V13.8171H34.0199V13.1711H32.4126ZM33.3899 22.2284V22.1843L33.4004 22.2196L34.4399 21.4241H33.1799V21.4199H33.1497L32.7536 20.1599L32.3597 21.4233L32.1299 21.4241H31.0799L32.111 22.2158L32.1299 22.1553V22.2305L32.111 22.2158L31.7032 23.5199L32.7578 22.7122L32.7171 22.6816H32.7973L32.757 22.7122L33.8099 23.5199L33.4004 22.2196L33.3899 22.2284ZM33.1799 21.6337V21.5165L33.2169 21.6328L33.1799 21.6337ZM10.287 22.2284V22.1843L10.2979 22.2196L11.337 21.4233H10.077V21.4199H10.0463L9.65026 20.1599L9.25546 21.4233L9.02698 21.4241H7.97698L9.00808 22.2158L9.02698 22.1545V22.2305L9.00808 22.2158L8.60026 23.5199L9.65488 22.7122L9.61498 22.6816H9.6952L9.65488 22.7122L10.707 23.5199L10.2979 22.2196L10.287 22.2284ZM10.077 21.6337V21.5165L10.1135 21.6328L10.077 21.6337Z" fill="#35495E"/>
</g>
<defs>
<clipPath id="clip0_175_1052">
<rect width="42" height="42" fill="white"/>
</clipPath>
</defs>
</svg>
