<svg width="42" height="42" viewBox="0 0 42 42" fill="none" xmlns="http://www.w3.org/2000/svg">
<g clip-path="url(#clip0_175_1021)">
<path fill-rule="evenodd" clip-rule="evenodd" d="M9.765 33.1799L0 28.1399V13.7155L21.735 2.93994L31.5 7.97994V22.4699L9.765 33.1799Z" fill="#24AE5F"/>
<path fill-rule="evenodd" clip-rule="evenodd" d="M0 27.1128V28.3656L9.74106 33.3771L31.4223 22.7275V21.4747L9.74106 32.1242L0 27.1128ZM0 24.9204V26.1732L9.74106 31.1847L31.4223 20.5356V19.2823L9.74106 29.9318L0 24.9204ZM0 20.5351V21.788L9.74106 26.7994L31.4223 16.1503V14.8975L9.74106 25.5466L0 20.5351ZM0 22.7275V23.9804L9.74106 28.9918L31.4223 18.3423V17.0895L9.74106 27.7394L0 22.7275ZM0 18.3427V19.5956L9.74106 24.607L31.4223 13.9575V12.7051L9.74106 23.3542L0 18.3427ZM9.76542 18.9568L0 13.8954V15.1608L9.76542 20.2218L31.5013 9.46688V8.20142L9.76542 18.9568ZM0 16.1503V17.4032L9.76542 22.4146L31.5013 11.7651V10.5123L9.76542 21.1618L0 16.1503Z" fill="#1E9450"/>
<path fill-rule="evenodd" clip-rule="evenodd" d="M20.2167 38.5912L10.5 33.5793V21.2717L32.1279 10.6226L42.0008 15.6655V27.8455L20.2167 38.5912Z" fill="#24AE5F"/>
<path fill-rule="evenodd" clip-rule="evenodd" d="M10.5 32.3756V33.6285L20.265 38.6399L42 27.9904V26.7375L20.265 37.387L10.5 32.3756ZM10.5 30.1832V31.4361L20.265 36.4475L42 25.798V24.5451L20.265 35.1942L10.5 30.1832ZM10.5 25.798V27.0508L20.265 32.0623L42 21.4128V20.1599L20.265 30.8094L10.5 25.798ZM10.5 27.9904V29.2432L20.265 34.2551L42 23.6056V22.3527L20.265 33.0018L10.5 27.9904ZM10.5 23.6056V24.8584L20.265 29.8699L42 19.2204V17.9675L20.265 28.617L10.5 23.6056ZM20.265 26.2797L10.5 21.2687V22.5216L20.265 27.533L42 16.8835V15.6306L20.265 26.2797Z" fill="#1E9450"/>
<path opacity="0.1" d="M9.74106 18.9694L0 13.9651V28.3896L9.765 33.3901L9.74106 18.9694ZM20.2411 26.2921L10.5 21.2878V33.5904L20.265 38.5909L20.2411 26.2921Z" fill="black"/>
<path fill-rule="evenodd" clip-rule="evenodd" d="M25.1983 21.2558L20.4258 23.5486L16.351 21.3562L21.8689 18.6531C21.8689 18.6531 21.4859 17.5527 21.7202 17.3851C21.716 17.4048 13.5781 21.4557 13.5781 21.4557L20.543 24.9379L27.7031 21.3583C27.7031 21.3583 27.0022 21.3814 26.381 21.3558C25.7501 21.3306 25.1983 21.2558 25.1983 21.2558ZM30.8456 19.7875L39.2699 15.75L32.4244 12.0334L25.2709 15.6097C26.3554 15.5539 27.2437 16.0205 27.2437 16.0205L32.3366 13.5257L36.7247 15.7185L30.8489 18.5409L30.8456 19.7875Z" fill="#1E9450"/>
<path d="M26.9788 19.7223C27.2628 19.7311 27.546 19.6881 27.8146 19.5955L26.3324 18.8101L26.2064 18.8428L26.0452 18.8945C25.8255 18.9604 25.6004 19.0213 25.369 19.0764C25.1376 19.1314 24.9024 19.1658 24.6634 19.1797C24.4244 19.1935 24.1858 19.1793 23.9485 19.1373C23.6998 19.0914 23.4599 19.0068 23.2375 18.8865C22.9964 18.7588 22.8288 18.6219 22.7352 18.4762C22.6415 18.33 22.6066 18.1847 22.6302 18.0394C22.6537 17.8941 22.7293 17.7513 22.8561 17.6114C22.9977 17.4594 23.1605 17.3287 23.3395 17.2233L22.7935 16.9339L23.2055 16.7155L23.7515 17.0049C23.9874 16.9053 24.2309 16.8253 24.4798 16.7655C24.732 16.7046 24.9896 16.6688 25.2489 16.6584C25.5143 16.6488 25.7801 16.6681 26.0414 16.716C26.3156 16.7665 26.5819 16.8529 26.8335 16.973L25.8419 17.4984C25.637 17.3979 25.4131 17.3422 25.185 17.335C24.941 17.3241 24.7398 17.3607 24.5815 17.4447L25.8368 18.1099L26.0506 18.0419L26.2854 17.9701C26.7243 17.8378 27.1069 17.7592 27.4324 17.734C27.7579 17.7097 28.041 17.7139 28.2808 17.7471C28.5206 17.7807 28.7243 17.8332 28.8919 17.9041C29.0595 17.976 29.2027 18.0432 29.3207 18.1057C29.4249 18.1608 29.5303 18.2439 29.6374 18.3552C29.7445 18.4665 29.8075 18.5971 29.826 18.7475C29.8449 18.8979 29.8012 19.0638 29.6962 19.2448C29.5908 19.4258 29.3753 19.6152 29.0503 19.813L29.653 20.1327L29.241 20.3511L28.6382 20.0314C28.0788 20.2876 27.5084 20.417 26.9267 20.4195C26.345 20.4225 25.752 20.2881 25.1472 20.0167L26.1317 19.4951C26.3912 19.6391 26.6821 19.7171 26.9788 19.7223ZM28.4278 19.2061C28.4879 19.1419 28.5257 19.0755 28.5412 19.0071C28.5565 18.9371 28.5454 18.864 28.5101 18.8017C28.474 18.7332 28.3993 18.669 28.2854 18.6089C28.1059 18.5123 27.9031 18.4675 27.6995 18.4795C27.4933 18.4913 27.2149 18.5497 26.8646 18.6551L28.2262 19.3767C28.3001 19.3282 28.3678 19.2709 28.4278 19.2061ZM23.9737 17.8042C23.9269 17.8487 23.8947 17.9064 23.8813 17.9697C23.8762 17.9999 23.8773 18.0308 23.8843 18.0606C23.8914 18.0904 23.9044 18.1184 23.9225 18.1431C23.9607 18.2007 24.0296 18.2557 24.1291 18.3082C24.2854 18.3909 24.4546 18.4291 24.6373 18.4224C24.82 18.4157 25.0494 18.3666 25.3249 18.2758L24.1686 17.6635C24.0967 17.6999 24.031 17.7474 23.9737 17.8042Z" fill="#1E9450"/>
<path fill-rule="evenodd" clip-rule="evenodd" d="M14.5244 13.6957L9.75198 15.9885L5.67714 13.7961L11.1951 11.093C11.1951 11.093 10.8116 9.99261 11.0464 9.82503C11.0422 9.84477 2.9043 13.8957 2.9043 13.8957L9.86916 17.3779L17.0293 13.7982C17.0293 13.7982 16.3283 13.8213 15.7072 13.7957C15.0763 13.7705 14.5244 13.6957 14.5244 13.6957ZM20.1718 12.2274L28.5961 8.18997L21.7505 4.47339L14.5971 8.04969C15.6815 7.99383 16.5698 8.46045 16.5698 8.46045L21.6628 5.96565L26.0509 8.15847L20.1755 10.9809L20.1718 12.2274Z" fill="#1E9450"/>
<path d="M16.3054 12.1623C16.5894 12.1713 16.8727 12.1283 17.1412 12.0355L15.6586 11.2501L15.5326 11.2828L15.3713 11.3345C15.1477 11.4016 14.9222 11.4623 14.6951 11.5164C14.4637 11.5714 14.2285 11.6058 13.9895 11.6197C13.7506 11.6335 13.5124 11.6193 13.2747 11.5773C13.026 11.5314 12.7861 11.4468 12.5636 11.3265C12.3226 11.1988 12.155 11.0619 12.0613 10.9162C11.9677 10.77 11.9328 10.6247 11.9563 10.4794C11.9803 10.3341 12.0554 10.1917 12.1823 10.0518C12.3239 9.89987 12.4867 9.76916 12.6657 9.66375L12.1197 9.37437L12.5317 9.15597L13.0777 9.44535C13.3135 9.34576 13.5571 9.26569 13.806 9.20595C14.0582 9.14507 14.3158 9.10919 14.575 9.09885C14.8405 9.0892 15.1063 9.1085 15.3676 9.15639C15.6418 9.20689 15.9081 9.29331 16.1597 9.41343L15.1681 9.93885C14.9632 9.83832 14.7393 9.78262 14.5112 9.77547C14.2672 9.76455 14.066 9.80109 13.9076 9.88509L15.163 10.5504L15.3768 10.4819L15.6116 10.4101C16.0505 10.2778 16.4331 10.1992 16.7586 10.174C17.0841 10.1493 17.3672 10.1539 17.607 10.1871C17.8468 10.2207 18.0505 10.2732 18.2181 10.3446C18.3857 10.4164 18.5289 10.4836 18.6469 10.5462C18.7511 10.6012 18.8565 10.6843 18.9636 10.7956C19.0707 10.9069 19.1337 11.0376 19.1522 11.1879C19.1711 11.3383 19.1274 11.5042 19.0224 11.6852C18.917 11.8662 18.7015 12.0556 18.3764 12.2535L18.9791 12.5731L18.5671 12.7915L17.9644 12.4719C17.405 12.7281 16.8346 12.8574 16.2529 12.8599C15.6712 12.8629 15.0782 12.7285 14.4734 12.4572L15.4579 11.9355C15.7225 12.0804 16.0051 12.156 16.3054 12.1623ZM17.7544 11.6461C17.8145 11.5819 17.8523 11.5155 17.8674 11.4471C17.8827 11.3771 17.8716 11.304 17.8363 11.2417C17.8002 11.1732 17.7254 11.109 17.6116 11.0485C17.4321 10.9518 17.2292 10.9071 17.0257 10.9191L16.1908 11.0951L17.5524 11.8167C17.6272 11.7675 17.6944 11.7108 17.7544 11.6461ZM13.3003 10.2442C13.2535 10.2887 13.2213 10.3464 13.2079 10.4097C13.2028 10.4399 13.2039 10.4708 13.2109 10.5006C13.218 10.5304 13.231 10.5584 13.2491 10.5831C13.2877 10.6407 13.3562 10.6957 13.4557 10.7482C13.612 10.8309 13.7812 10.8691 13.9643 10.8624C14.147 10.8557 14.3764 10.8066 14.6519 10.7158L13.4956 10.1035C13.4235 10.1398 13.3576 10.1873 13.3003 10.2442Z" fill="#1E9450"/>
</g>
<defs>
<clipPath id="clip0_175_1021">
<rect width="42" height="42" fill="white"/>
</clipPath>
</defs>
</svg>
