<svg width="14" height="15" viewBox="0 0 14 15" fill="none" xmlns="http://www.w3.org/2000/svg">
<path d="M8.74935 13.8396H5.24935C2.08185 13.8396 0.728516 12.4862 0.728516 9.31875V5.81875C0.728516 2.65125 2.08185 1.29791 5.24935 1.29791H8.74935C11.9169 1.29791 13.2702 2.65125 13.2702 5.81875V9.31875C13.2702 12.4862 11.9169 13.8396 8.74935 13.8396ZM5.24935 2.17291C2.56018 2.17291 1.60352 3.12958 1.60352 5.81875V9.31875C1.60352 12.0079 2.56018 12.9646 5.24935 12.9646H8.74935C11.4385 12.9646 12.3952 12.0079 12.3952 9.31875V5.81875C12.3952 3.12958 11.4385 2.17291 8.74935 2.17291H5.24935Z" fill="#B7B7B7"/>
<path d="M9.04102 6.69373C8.31768 6.69373 7.72852 6.10456 7.72852 5.38123C7.72852 4.65789 8.31768 4.06873 9.04102 4.06873C9.76435 4.06873 10.3535 4.65789 10.3535 5.38123C10.3535 6.10456 9.76435 6.69373 9.04102 6.69373ZM9.04102 4.94373C8.80185 4.94373 8.60352 5.14206 8.60352 5.38123C8.60352 5.62039 8.80185 5.81873 9.04102 5.81873C9.28018 5.81873 9.47852 5.62039 9.47852 5.38123C9.47852 5.14206 9.28018 4.94373 9.04102 4.94373Z" fill="#B7B7B7"/>
<path d="M4.95898 6.69373C4.23565 6.69373 3.64648 6.10456 3.64648 5.38123C3.64648 4.65789 4.23565 4.06873 4.95898 4.06873C5.68232 4.06873 6.27148 4.65789 6.27148 5.38123C6.27148 6.10456 5.68232 6.69373 4.95898 6.69373ZM4.95898 4.94373C4.71982 4.94373 4.52148 5.14206 4.52148 5.38123C4.52148 5.62039 4.71982 5.81873 4.95898 5.81873C5.19815 5.81873 5.39648 5.62039 5.39648 5.38123C5.39648 5.14206 5.19815 4.94373 4.95898 4.94373Z" fill="#B7B7B7"/>
<path d="M7 11.9146C5.30833 11.9146 3.9375 10.5379 3.9375 8.85209C3.9375 8.32125 4.36917 7.88959 4.9 7.88959H9.1C9.63083 7.88959 10.0625 8.32125 10.0625 8.85209C10.0625 10.5379 8.69167 11.9146 7 11.9146ZM4.9 8.76459C4.85333 8.76459 4.8125 8.80542 4.8125 8.85209C4.8125 10.0596 5.7925 11.0396 7 11.0396C8.2075 11.0396 9.1875 10.0596 9.1875 8.85209C9.1875 8.80542 9.14667 8.76459 9.1 8.76459H4.9Z" fill="#B7B7B7"/>
</svg>
