<svg width="14" height="15" viewBox="0 0 14 15" fill="none" xmlns="http://www.w3.org/2000/svg">
<path d="M12.2493 7.42291H1.74935C1.18935 7.42291 0.728516 6.96208 0.728516 6.40208V4.46541C0.728516 4.06874 1.00267 3.66624 1.37017 3.52041L6.62017 1.42042C6.84183 1.33292 7.15686 1.33292 7.37853 1.42042L12.6285 3.52041C12.996 3.66624 13.2702 4.07457 13.2702 4.46541V6.40208C13.2702 6.96208 12.8093 7.42291 12.2493 7.42291ZM6.99935 2.22543C6.97601 2.22543 6.95269 2.2254 6.94103 2.23123L1.69683 4.33125C1.66183 4.34875 1.60352 4.42457 1.60352 4.46541V6.40208C1.60352 6.48374 1.66768 6.54791 1.74935 6.54791H12.2493C12.331 6.54791 12.3952 6.48374 12.3952 6.40208V4.46541C12.3952 4.42457 12.3427 4.34875 12.3019 4.33125L7.05186 2.23123C7.0402 2.2254 7.02268 2.22543 6.99935 2.22543Z" fill="#B7B7B7"/>
<path d="M12.8327 13.8396H1.16602C0.926849 13.8396 0.728516 13.6412 0.728516 13.4021V11.6521C0.728516 11.0921 1.18935 10.6312 1.74935 10.6312H12.2493C12.8093 10.6312 13.2702 11.0921 13.2702 11.6521V13.4021C13.2702 13.6412 13.0718 13.8396 12.8327 13.8396ZM1.60352 12.9646H12.3952V11.6521C12.3952 11.5704 12.331 11.5062 12.2493 11.5062H1.74935C1.66768 11.5062 1.60352 11.5704 1.60352 11.6521V12.9646Z" fill="#B7B7B7"/>
<path d="M2.33398 11.5062C2.09482 11.5062 1.89648 11.3079 1.89648 11.0687V6.98541C1.89648 6.74625 2.09482 6.54791 2.33398 6.54791C2.57315 6.54791 2.77148 6.74625 2.77148 6.98541V11.0687C2.77148 11.3079 2.57315 11.5062 2.33398 11.5062Z" fill="#B7B7B7"/>
<path d="M4.66602 11.5062C4.42685 11.5062 4.22852 11.3079 4.22852 11.0687V6.98541C4.22852 6.74625 4.42685 6.54791 4.66602 6.54791C4.90518 6.54791 5.10352 6.74625 5.10352 6.98541V11.0687C5.10352 11.3079 4.90518 11.5062 4.66602 11.5062Z" fill="#B7B7B7"/>
<path d="M7 11.5062C6.76083 11.5062 6.5625 11.3079 6.5625 11.0687V6.98541C6.5625 6.74625 6.76083 6.54791 7 6.54791C7.23917 6.54791 7.4375 6.74625 7.4375 6.98541V11.0687C7.4375 11.3079 7.23917 11.5062 7 11.5062Z" fill="#B7B7B7"/>
<path d="M9.33398 11.5062C9.09482 11.5062 8.89648 11.3079 8.89648 11.0687V6.98541C8.89648 6.74625 9.09482 6.54791 9.33398 6.54791C9.57315 6.54791 9.77148 6.74625 9.77148 6.98541V11.0687C9.77148 11.3079 9.57315 11.5062 9.33398 11.5062Z" fill="#B7B7B7"/>
<path d="M11.666 11.5062C11.4268 11.5062 11.2285 11.3079 11.2285 11.0687V6.98541C11.2285 6.74625 11.4268 6.54791 11.666 6.54791C11.9052 6.54791 12.1035 6.74625 12.1035 6.98541V11.0687C12.1035 11.3079 11.9052 11.5062 11.666 11.5062Z" fill="#B7B7B7"/>
<path d="M13.4173 13.8395H0.583984C0.344818 13.8395 0.146484 13.6412 0.146484 13.402C0.146484 13.1629 0.344818 12.9645 0.583984 12.9645H13.4173C13.6565 12.9645 13.8548 13.1629 13.8548 13.402C13.8548 13.6412 13.6565 13.8395 13.4173 13.8395Z" fill="#B7B7B7"/>
<path d="M7 5.96454C6.27667 5.96454 5.6875 5.37537 5.6875 4.65204C5.6875 3.92871 6.27667 3.33954 7 3.33954C7.72333 3.33954 8.3125 3.92871 8.3125 4.65204C8.3125 5.37537 7.72333 5.96454 7 5.96454ZM7 4.21454C6.76083 4.21454 6.5625 4.41287 6.5625 4.65204C6.5625 4.89121 6.76083 5.08954 7 5.08954C7.23917 5.08954 7.4375 4.89121 7.4375 4.65204C7.4375 4.41287 7.23917 4.21454 7 4.21454Z" fill="#B7B7B7"/>
</svg>
