<svg width="14" height="14" viewBox="0 0 14 14" fill="none" xmlns="http://www.w3.org/2000/svg">
<path d="M9.91602 8.16666C10.2382 8.16666 10.4993 7.90549 10.4993 7.58333C10.4993 7.26116 10.2382 6.99999 9.91602 6.99999C9.59385 6.99999 9.33268 7.26116 9.33268 7.58333C9.33268 7.90549 9.59385 8.16666 9.91602 8.16666Z" fill="#C60C30"/>
<path d="M9.91602 10.5C10.2382 10.5 10.4993 10.2388 10.4993 9.91666C10.4993 9.5945 10.2382 9.33333 9.91602 9.33333C9.59385 9.33333 9.33268 9.5945 9.33268 9.91666C9.33268 10.2388 9.59385 10.5 9.91602 10.5Z" fill="#C60C30"/>
<path d="M7.58268 7.58333C7.58268 7.90549 7.32152 8.16666 6.99935 8.16666C6.67718 8.16666 6.41602 7.90549 6.41602 7.58333C6.41602 7.26116 6.67718 6.99999 6.99935 6.99999C7.32152 6.99999 7.58268 7.26116 7.58268 7.58333Z" fill="#C60C30"/>
<path d="M7.58268 9.91666C7.58268 10.2388 7.32152 10.5 6.99935 10.5C6.67718 10.5 6.41602 10.2388 6.41602 9.91666C6.41602 9.5945 6.67718 9.33333 6.99935 9.33333C7.32152 9.33333 7.58268 9.5945 7.58268 9.91666Z" fill="#C60C30"/>
<path d="M4.08268 8.16666C4.40485 8.16666 4.66602 7.90549 4.66602 7.58333C4.66602 7.26116 4.40485 6.99999 4.08268 6.99999C3.76052 6.99999 3.49935 7.26116 3.49935 7.58333C3.49935 7.90549 3.76052 8.16666 4.08268 8.16666Z" fill="#C60C30"/>
<path d="M4.08268 10.5C4.40485 10.5 4.66602 10.2388 4.66602 9.91666C4.66602 9.5945 4.40485 9.33333 4.08268 9.33333C3.76052 9.33333 3.49935 9.5945 3.49935 9.91666C3.49935 10.2388 3.76052 10.5 4.08268 10.5Z" fill="#C60C30"/>
<path fill-rule="evenodd" clip-rule="evenodd" d="M4.08268 1.02083C4.32431 1.02083 4.52018 1.2167 4.52018 1.45833V1.90325C4.90635 1.89582 5.33179 1.89582 5.7997 1.89583H8.19893C8.66685 1.89582 9.09235 1.89582 9.47852 1.90325V1.45833C9.47852 1.2167 9.67439 1.02083 9.91602 1.02083C10.1576 1.02083 10.3535 1.2167 10.3535 1.45833V1.9408C10.5051 1.95236 10.6487 1.96689 10.7846 1.98516C11.4685 2.07711 12.0221 2.27084 12.4586 2.70739C12.8952 3.14393 13.0889 3.69748 13.1809 4.3814C13.2702 5.04593 13.2702 5.89505 13.2702 6.96706V8.19957C13.2702 9.27158 13.2702 10.1207 13.1809 10.7853C13.0889 11.4692 12.8952 12.0227 12.4586 12.4593C12.0221 12.8958 11.4685 13.0895 10.7846 13.1815C10.1201 13.2708 9.27096 13.2708 8.19895 13.2708H5.79978C4.72776 13.2708 3.87862 13.2708 3.21409 13.1815C2.53017 13.0895 1.97662 12.8958 1.54007 12.4593C1.10353 12.0227 0.909794 11.4692 0.817844 10.7853C0.728499 10.1207 0.728507 9.2716 0.728516 8.19957V6.96708C0.728507 5.89506 0.728499 5.04594 0.817844 4.3814C0.909794 3.69748 1.10353 3.14393 1.54007 2.70739C1.97662 2.27084 2.53017 2.07711 3.21409 1.98516C3.34996 1.96689 3.49355 1.95236 3.64518 1.9408V1.45833C3.64518 1.2167 3.84106 1.02083 4.08268 1.02083ZM3.33068 2.85235C2.74379 2.93126 2.40566 3.07923 2.15879 3.32611C1.91192 3.57298 1.76395 3.9111 1.68504 4.49799C1.67168 4.59738 1.66051 4.70202 1.65116 4.81249H12.3475C12.3382 4.70202 12.327 4.59738 12.3137 4.49799C12.2348 3.9111 12.0868 3.57298 11.8399 3.32611C11.593 3.07923 11.2549 2.93126 10.668 2.85235C10.0685 2.77176 9.27833 2.77083 8.16602 2.77083H5.83268C4.72037 2.77083 3.93015 2.77176 3.33068 2.85235ZM1.60352 6.99999C1.60352 6.50182 1.6037 6.06825 1.61115 5.68749H12.3875C12.395 6.06825 12.3952 6.50182 12.3952 6.99999V8.16666C12.3952 9.27897 12.3943 10.0692 12.3137 10.6687C12.2348 11.2556 12.0868 11.5937 11.8399 11.8406C11.593 12.0874 11.2549 12.2354 10.668 12.3143C10.0685 12.3949 9.27833 12.3958 8.16602 12.3958H5.83268C4.72037 12.3958 3.93015 12.3949 3.33068 12.3143C2.74379 12.2354 2.40566 12.0874 2.15879 11.8406C1.91192 11.5937 1.76395 11.2556 1.68504 10.6687C1.60445 10.0692 1.60352 9.27897 1.60352 8.16666V6.99999Z" fill="#C60C30"/>
</svg>
