<svg width="25" height="24" viewBox="0 0 25 24" fill="none" xmlns="http://www.w3.org/2000/svg">
<rect x="0.625" width="24" height="24" rx="12" fill="white"/>
<path d="M16.2784 14.3831C16.1888 14.2935 16.1322 14.1709 16.1322 14.0295L16.1322 8.80634L10.9091 8.80634C10.6357 8.80634 10.4094 8.58007 10.4094 8.30665C10.4094 8.03324 10.6357 7.80697 10.9091 7.80696L16.6319 7.80697C16.9053 7.80697 17.1316 8.03324 17.1316 8.30665L17.1316 14.0295C17.1316 14.3029 16.9053 14.5292 16.6319 14.5292C16.4952 14.5339 16.3679 14.4726 16.2784 14.3831Z" fill="#C60C30"/>
<path d="M8.26447 16.6741C8.07119 16.4808 8.07119 16.1603 8.26447 15.967L16.1982 8.03324C16.3915 7.83997 16.712 7.83997 16.9053 8.03324C17.0986 8.22652 17.0986 8.54707 16.9053 8.74035L8.97157 16.6741C8.7783 16.8674 8.45774 16.8674 8.26447 16.6741Z" fill="#C60C30"/>
</svg>
