<svg width="1282" height="276" viewBox="0 0 1282 276" fill="none" xmlns="http://www.w3.org/2000/svg">
<g opacity="0.3">
<path d="M0 132.527C46.7734 179.751 82.9263 229.07 105.154 276H101.463C79.75 230.69 44.9371 183.068 0 137.276V132.527Z" fill="#FAF8ED"/>
<path d="M188.552 96.3418C278.971 77.6337 373.052 95.7729 444.562 145.452C489.752 176.847 525.903 220.825 546.405 276H542.847C522.508 222.01 486.977 178.979 442.66 148.191C371.947 99.0657 278.808 81.0735 189.227 99.6084C166.8 104.249 152.178 110.259 143.799 117.433C139.638 120.995 137.051 124.814 135.774 128.874C134.498 132.936 134.493 137.365 135.697 142.207C138.123 151.962 145.402 163.197 156.566 175.913C167.699 188.593 182.539 202.576 199.852 217.833C213.512 229.872 228.704 242.692 244.789 256.268C252.384 262.678 260.178 269.256 268.105 276H262.946C256.12 270.204 249.397 264.527 242.818 258.974C226.679 245.351 211.412 232.465 197.648 220.336C180.308 205.055 165.339 190.958 154.062 178.113C142.818 165.305 135.089 153.572 132.463 143.012C131.141 137.696 131.1 132.63 132.595 127.874C134.09 123.116 137.083 118.792 141.631 114.898C150.669 107.161 165.978 101.012 188.552 96.3418Z" fill="#FAF8ED"/>
<path d="M867.351 0C868.513 22.3555 872.537 41.7885 878.775 58.542C889.931 88.4998 908.192 109.965 929.98 124.306C943.059 84.7903 951.453 43.0719 953.42 0H956.764C954.782 43.7448 946.217 86.0888 932.878 126.158C935.09 127.532 937.337 128.835 939.613 130.068C991.732 158.306 1059.81 150.189 1100.71 121.621C1142.81 92.2244 1197.65 102.09 1226.2 132.336C1240.52 147.509 1248.25 167.842 1244.39 190.88C1240.53 213.876 1225.18 239.324 1193.83 264.915C1189.15 268.734 1184.53 272.426 1179.97 276H1174.56C1180.18 271.63 1185.91 267.078 1191.72 262.331C1222.68 237.06 1237.42 212.271 1241.1 190.329C1244.77 168.429 1237.46 149.122 1223.77 134.626C1196.31 105.533 1143.31 95.9432 1102.62 124.356C1060.75 153.599 991.324 161.878 938.026 133.001C935.92 131.86 933.839 130.661 931.786 129.403C913.498 183.137 886.66 232.711 855.686 276H851.583C883.131 232.281 910.441 182.058 928.886 127.574C906.194 112.853 887.186 90.6814 875.651 59.707C869.265 42.5559 865.18 22.7287 864.014 0H867.351Z" fill="#FAF8ED"/>
<path d="M1235.76 0C1244.35 13.6655 1253.73 32.9127 1264.88 60.0986C1270.51 73.8412 1276.25 86.4053 1282 97.957V105.345C1275.22 92.1212 1268.43 77.5449 1261.79 61.3643C1250.14 32.9515 1240.51 13.4514 1231.81 0H1235.76Z" fill="#FAF8ED"/>
<path d="M144.141 0C149.934 3.99659 156.242 7.71495 163.033 11.0859C213.758 36.2641 291.23 41.9642 380.774 0H388.484C295.513 45.5945 214.531 40.3716 161.552 14.0742C153.107 9.88238 145.369 5.14969 138.407 0H144.141Z" fill="#FAF8ED"/>
</g>
</svg>
