<svg width="47" height="46" viewBox="0 0 47 46" fill="none" xmlns="http://www.w3.org/2000/svg">
<path d="M12 22.54C12 17.3343 12 14.7353 13.61 13.11C15.243 11.5 17.842 11.5 23.04 11.5H23.96C29.1657 11.5 31.7647 11.5 33.39 13.11C35 14.743 35 17.342 35 22.54V23.46C35 28.6657 35 31.2647 33.39 32.89C31.757 34.5 29.158 34.5 23.96 34.5H23.04C17.8343 34.5 15.2353 34.5 13.61 32.89C12 31.257 12 28.658 12 23.46V22.54Z" fill="#0077FF"/>
<path d="M24.2375 28.0677C18.9935 28.0677 16.0035 24.4797 15.8809 18.4997H18.5182C18.6025 22.885 20.5345 24.7403 22.0679 25.1237V18.4997H24.5442V22.2793C26.0545 22.1183 27.6492 20.3933 28.1859 18.492H30.6545C30.4532 19.4762 30.0511 20.4084 29.4734 21.2302C28.8956 22.052 28.1545 22.7458 27.2965 23.2683C28.254 23.7449 29.0996 24.4191 29.7776 25.2463C30.4555 26.0736 30.9504 27.0352 31.2295 28.0677H28.5079C27.9252 26.2507 26.4685 24.84 24.5442 24.6483V28.0677H24.2452H24.2375Z" fill="white"/>
<rect x="0.65" y="0.15" width="45.7" height="45.7" rx="22.85" stroke="black" stroke-width="0.3"/>
</svg>
