<svg width="42" height="42" viewBox="0 0 42 42" fill="none" xmlns="http://www.w3.org/2000/svg">
<g clip-path="url(#clip0_175_1108)">
<path d="M21.0004 0C32.5948 0 41.9949 9.39968 41.9949 20.9945C41.9949 32.5898 32.5948 41.9891 21.0004 41.9891C9.40553 41.9891 0.00585938 32.5898 0.00585938 20.9945C0.00585938 9.39926 9.40553 0 21.0004 0Z" fill="#35495E"/>
<path d="M22.68 8.39771C16.6508 8.39771 11.7628 13.2852 11.7628 19.3149C11.7628 20.947 12.1235 22.4926 12.7655 23.8841L11.2816 25.3676C10.8982 25.751 10.9205 27.6938 10.9176 27.7223C10.9008 27.7396 9.11329 27.5363 8.71943 27.9298L7.93046 28.7532C7.42827 29.2558 7.54248 31.1029 7.53366 31.0714L7.53156 31.0739C7.53744 31.0752 5.72561 30.924 5.34099 31.3078L4.4546 32.1946C4.06158 32.588 4.16236 34.4423 4.16824 34.4381C4.17034 34.4356 2.28629 34.3793 2.08852 34.5603C0.843542 35.6994 0.00585938 36.6438 0.00585938 36.6438L0.0134174 41.9999C0.0134174 42.0032 5.35107 41.9902 5.35107 41.9902L18.1107 29.2293C19.543 29.8913 21.1022 30.2334 22.68 30.232C28.7092 30.232 33.5971 25.3432 33.5971 19.3149C33.5971 13.2857 28.7092 8.39771 22.68 8.39771ZM25.5104 14.0583C25.8434 13.9847 26.1881 13.9822 26.5221 14.0508C26.8561 14.1195 27.1719 14.2577 27.4488 14.4566C27.7258 14.6555 27.9577 14.9105 28.1295 15.205C28.3013 15.4996 28.409 15.827 28.4457 16.166C28.4825 16.505 28.4473 16.8479 28.3426 17.1724C28.2379 17.4969 28.0659 17.7957 27.838 18.0492C27.61 18.3028 27.3312 18.5055 27.0196 18.6441C26.7081 18.7826 26.3708 18.854 26.0299 18.8534C25.6356 18.9198 25.2311 18.891 24.8502 18.7694C24.4693 18.6478 24.123 18.4369 23.8401 18.1543C23.5578 17.8714 23.3471 17.5252 23.2256 17.1445C23.104 16.7638 23.0752 16.3595 23.1414 15.9654C23.2597 15.4251 23.5591 14.9414 23.99 14.5945C24.4209 14.2477 24.9573 14.0585 25.5104 14.0583Z" fill="#F0C419"/>
<path d="M27.9927 13.9883C27.3613 13.3572 26.5051 13.0027 25.6123 13.0027C24.7196 13.0027 23.8634 13.3572 23.232 13.9883C22.6011 14.6198 22.2467 15.4759 22.2467 16.3685C22.2467 17.2611 22.6011 18.1172 23.232 18.7486C23.5445 19.0614 23.9156 19.3094 24.324 19.4787C24.7324 19.6479 25.1702 19.735 25.6123 19.735C26.0544 19.735 26.4922 19.6479 26.9006 19.4787C27.3091 19.3094 27.6801 19.0614 27.9927 18.7486C28.3053 18.4361 28.5532 18.065 28.7224 17.6566C28.8916 17.2483 28.9787 16.8105 28.9787 16.3685C28.9787 15.9265 28.8916 15.4887 28.7224 15.0804C28.5532 14.672 28.3053 14.3009 27.9927 13.9883ZM27.0891 17.845C26.8943 18.0397 26.6631 18.1942 26.4087 18.2995C26.1542 18.4049 25.8815 18.4591 25.6061 18.459C25.3307 18.459 25.0581 18.4047 24.8037 18.2993C24.5492 18.1939 24.3181 18.0394 24.1234 17.8446C23.7302 17.4513 23.5093 16.9179 23.5094 16.3617C23.5095 15.8055 23.7305 15.2722 24.1238 14.8789C24.3185 14.6842 24.5496 14.5296 24.804 14.4242C25.0584 14.3188 25.3311 14.2645 25.6064 14.2645C25.8818 14.2645 26.1545 14.3188 26.4089 14.4242C26.6633 14.5296 26.8944 14.6842 27.0891 14.8789C27.2839 15.0736 27.4385 15.3048 27.544 15.5593C27.6494 15.8138 27.7037 16.0865 27.7037 16.362C27.7037 16.6374 27.6494 16.9102 27.544 17.1647C27.4385 17.4191 27.2839 17.6503 27.0891 17.845ZM15.9049 27.8716C15.5743 27.6109 15.259 27.3313 14.9605 27.0344L0.0136719 41.9808V41.9988C0.0136719 41.9997 0.806006 41.9988 1.77973 41.9963L15.9049 27.8716Z" fill="#F29C1F"/>
<path d="M31.903 0C26.9012 0 22.7523 3.64549 21.9629 8.42343C22.2013 8.40728 22.4402 8.39874 22.6792 8.39782C23.1365 8.39782 23.5858 8.42931 24.0279 8.48431C24.7682 4.81027 28.0118 2.04319 31.903 2.04319C36.34 2.04319 39.9376 5.63955 39.9376 10.0774C39.9376 14.5144 36.3416 18.1116 31.903 18.1116C29.0313 18.1116 26.5191 16.6 25.0978 14.3342C24.729 14.4234 24.3916 14.6116 24.122 14.8784C23.8729 15.1307 23.6927 15.4427 23.5988 15.7845C25.4161 18.4235 28.4569 20.1548 31.903 20.1548C37.4682 20.1548 41.9803 15.643 41.9803 10.0774C41.9803 4.51215 37.469 0 31.903 0Z" fill="#EBECED"/>
<path d="M25.6634 15.1232C25.4601 14.8714 25.2717 14.608 25.099 14.3342C25.0097 14.3566 24.9218 14.3844 24.8358 14.4174L24.8332 14.4182C24.753 14.45 24.6746 14.4863 24.5985 14.527L24.478 14.6013L24.368 14.6718C24.2891 14.7306 24.2122 14.7936 24.14 14.8641L24.1089 14.8948C24.0424 14.9637 23.9807 15.0371 23.9242 15.1144L23.8473 15.2303L23.7881 15.3264C23.7081 15.471 23.6448 15.6243 23.5996 15.7833C23.789 16.0583 23.9935 16.3207 24.2097 16.5752L25.6634 15.1232Z" fill="#C8C9CB"/>
</g>
<defs>
<clipPath id="clip0_175_1108">
<rect width="42" height="42" fill="white"/>
</clipPath>
</defs>
</svg>
