<svg width="42" height="42" viewBox="0 0 42 42" fill="none" xmlns="http://www.w3.org/2000/svg">
<g clip-path="url(#clip0_175_1065)">
<path d="M0.839844 13.6499H41.1598V35.0699H0.839844V13.6499Z" fill="#C0392C"/>
<path d="M31.5002 36.3296H33.1802C33.4029 36.3296 33.6166 36.4181 33.7741 36.5756C33.9317 36.7332 34.0202 36.9468 34.0202 37.1696V38.8496C34.0202 39.0724 33.9317 39.286 33.7741 39.4436C33.6166 39.6011 33.4029 39.6896 33.1802 39.6896H31.5002C31.2774 39.6896 31.0637 39.6011 30.9062 39.4436C30.7487 39.286 30.6602 39.0724 30.6602 38.8496V37.1696C30.6602 36.7063 31.0365 36.3296 31.5002 36.3296Z" fill="#2C3E50"/>
<path d="M39.0598 37.59V40.9496C39.0599 41.06 39.0382 41.1692 38.996 41.2712C38.9538 41.3732 38.892 41.4658 38.814 41.5438C38.736 41.6219 38.6433 41.6838 38.5414 41.726C38.4395 41.7683 38.3302 41.79 38.2198 41.79H33.1798C33.0695 41.79 32.9602 41.7683 32.8583 41.726C32.7564 41.6838 32.6637 41.6219 32.5857 41.5438C32.5077 41.4658 32.4459 41.3732 32.4037 41.2712C32.3615 41.1692 32.3398 41.06 32.3398 40.9496V37.59C32.3482 37.5883 39.0573 37.5988 39.0598 37.59Z" fill="#23475F"/>
<path d="M33.5645 41.7901H34.4045V37.5901H33.5645V41.7901ZM35.3142 41.7901H36.0845V37.5901H35.3142V41.7901ZM36.9942 37.5901V41.7901H37.7645V37.5901H36.9942Z" fill="#1D3D51"/>
<path d="M8.82047 36.3296H10.5005C10.7233 36.3296 10.9369 36.4181 11.0944 36.5756C11.252 36.7332 11.3405 36.9468 11.3405 37.1696V38.8496C11.3405 39.0724 11.252 39.286 11.0944 39.4436C10.9369 39.6011 10.7233 39.6896 10.5005 39.6896H8.82047C8.59769 39.6896 8.38403 39.6011 8.2265 39.4436C8.06897 39.286 7.98047 39.0724 7.98047 38.8496V37.1696C7.98047 36.7063 8.35679 36.3296 8.82047 36.3296Z" fill="#2C3E50"/>
<path d="M9.65945 37.59V40.9496C9.65951 41.06 9.63782 41.1692 9.59563 41.2712C9.55344 41.3732 9.49158 41.4658 9.41357 41.5438C9.33556 41.6219 9.24295 41.6838 9.141 41.726C9.03906 41.7683 8.9298 41.79 8.81945 41.79H3.77945C3.66911 41.79 3.55984 41.7683 3.4579 41.726C3.35596 41.6838 3.26334 41.6219 3.18533 41.5438C3.10733 41.4658 3.04546 41.3732 3.00327 41.2712C2.96108 41.1692 2.9394 41.06 2.93945 40.9496V37.59C2.94743 37.5883 9.65735 37.5988 9.65945 37.59Z" fill="#23475F"/>
<path d="M4.16602 41.7901H5.00602V37.5901H4.16602V41.7901ZM5.91574 41.7901H6.6856V37.5901H5.91574V41.7901ZM7.59574 37.5901V41.7901H8.3656V37.5901H7.59574Z" fill="#1D3D51"/>
<path d="M36.9598 0.209961H5.03984C2.72018 0.209961 0.839844 2.09072 0.839844 4.40996V13.65C0.839844 13.65 10.0391 16.9692 15.0585 21.9891C20.1187 27.0488 20.9998 32.1295 20.9998 32.1295C20.9998 32.1295 21.8629 27.0669 26.9139 22.0159C31.9429 16.9873 41.1598 13.65 41.1598 13.65V4.40996C41.1598 2.0903 39.2787 0.209961 36.9598 0.209961Z" fill="#EBEEEF"/>
<path d="M24.3597 12.3899C23.4336 12.3899 22.6797 11.6364 22.6797 10.7099V6.08991C22.6797 5.16339 23.4336 4.40991 24.3597 4.40991H35.2797C36.2062 4.40991 36.9597 5.16339 36.9597 6.08991V10.7099C36.9597 11.6364 36.2062 12.3899 35.2797 12.3899H24.3597Z" fill="white"/>
<path d="M24.3597 12.3899H26.0397L34.0197 4.40991H24.3597C23.4336 4.40991 22.6797 5.16339 22.6797 6.08991V10.7099C22.6797 11.636 23.4336 12.3899 24.3597 12.3899Z" fill="#EBEEEF"/>
<path d="M36.5396 4.83008H23.0996V6.93008H30.2396V11.9701H33.1796V6.93008H36.5396V4.83008Z" fill="#E5E5E5"/>
<path d="M6.71906 12.3899C5.79254 12.3899 5.03906 11.6364 5.03906 10.7099V6.08991C5.03906 5.16339 5.79254 4.40991 6.71906 4.40991H17.6391C18.5652 4.40991 19.3191 5.16339 19.3191 6.08991V10.7099C19.3191 11.6364 18.5652 12.3899 17.6391 12.3899H6.71906Z" fill="white"/>
<path d="M18.9009 4.83008H5.46094V6.93008H8.82094V11.9701H11.7609V6.93008H18.9009V4.83008Z" fill="#E5E5E5"/>
<path d="M0.84 35.0701H41.16C41.3827 35.0701 41.5963 35.1585 41.7538 35.316C41.9113 35.4734 41.9999 35.6869 42 35.9096V36.7496C42.0001 36.86 41.9784 36.9693 41.9362 37.0712C41.894 37.1732 41.8321 37.2658 41.7541 37.3439C41.6761 37.4219 41.5835 37.4838 41.4815 37.5261C41.3796 37.5683 41.2703 37.5901 41.16 37.5901H0.84C0.729654 37.5901 0.62039 37.5683 0.518449 37.5261C0.416508 37.4838 0.323889 37.4219 0.245882 37.3439C0.167875 37.2658 0.10601 37.1732 0.0638207 37.0712C0.0216315 36.9693 -5.50678e-05 36.86 1.0501e-07 36.7496V35.9096C0.00011146 35.6869 0.0886604 35.4734 0.246179 35.316C0.403697 35.1585 0.617291 35.0701 0.84 35.0701Z" fill="#D4D7DA"/>
<path d="M33.1804 23.73C35.2682 23.73 36.9604 25.4222 36.9604 27.51C36.9604 29.5978 35.2682 31.29 33.1804 31.29C31.0926 31.29 29.4004 29.5978 29.4004 27.51C29.4004 25.4222 31.0926 23.73 33.1804 23.73Z" fill="white"/>
<path d="M33.1802 24.99C34.5712 24.99 35.7002 26.119 35.7002 27.51C35.7002 28.901 34.5712 30.03 33.1802 30.03C31.7891 30.03 30.6602 28.901 30.6602 27.51C30.6602 26.119 31.7891 24.99 33.1802 24.99Z" fill="#F39C12"/>
<path d="M8.81906 23.73C10.9069 23.73 12.5991 25.4222 12.5991 27.51C12.5991 29.5978 10.9069 31.29 8.81906 31.29C6.73124 31.29 5.03906 29.5978 5.03906 27.51C5.03906 25.4222 6.73124 23.73 8.81906 23.73Z" fill="white"/>
<path d="M8.82078 24.99C10.2122 24.99 11.3408 26.119 11.3408 27.51C11.3408 28.901 10.2122 30.03 8.82078 30.03C7.42932 30.03 6.30078 28.901 6.30078 27.51C6.30078 26.119 7.42932 24.99 8.82078 24.99Z" fill="#F39C12"/>
<path d="M22.2543 16.1642C21.3463 15.2561 19.7402 15.7501 19.7402 15.7501L14.2559 21.234C14.5322 21.4818 14.8023 21.733 15.0589 21.9896C16.5201 23.4508 17.6314 24.9132 18.4752 26.2547L24.3602 20.3701C24.3602 20.3701 24.6597 18.9895 23.9486 18.278C23.4266 17.7564 22.8138 16.7236 22.2543 16.1642Z" fill="#C8CBCB"/>
<path d="M21.0007 15.3301C18.9129 15.3301 17.2207 17.0223 17.2207 19.1101C17.2207 21.1979 18.9129 22.8897 21.0007 22.8897C23.0885 22.8897 24.7807 21.1979 24.7807 19.1101C24.7807 17.0223 23.0885 15.3301 21.0007 15.3301ZM21.0007 16.5901C21.6521 16.5901 22.2443 16.8396 22.6912 17.2457L21.0007 18.9362L19.3102 17.2453C19.7721 16.8235 20.3752 16.5897 21.0007 16.5901ZM21.0007 21.6301C20.564 21.6302 20.1347 21.5167 19.7551 21.3009C19.3754 21.0851 19.0583 20.7744 18.8349 20.3991C18.6115 20.0239 18.4895 19.597 18.4808 19.1604C18.4721 18.7237 18.577 18.2923 18.7852 17.9085L21.0007 20.124L23.2162 17.9085C23.4242 18.2924 23.5289 18.7237 23.5201 19.1602C23.5112 19.5968 23.3891 20.0235 23.1658 20.3987C22.9425 20.7739 22.6255 21.0846 22.246 21.3005C21.8664 21.5163 21.4373 21.6299 21.0007 21.6301Z" fill="white"/>
<path d="M30.2396 8.19008L33.5996 4.83008H23.2605C23.2032 4.87982 23.1495 4.93342 23.0996 4.99052V6.93008H30.2396V8.19008Z" fill="#D3D6D7"/>
<path d="M35.2798 4.82999C35.9744 4.82999 36.5398 5.39531 36.5398 6.08999V10.71C36.5398 11.4047 35.9744 11.97 35.2798 11.97H24.3598C23.6651 11.97 23.0998 11.4047 23.0998 10.71V6.08999C23.0998 5.39531 23.6651 4.82999 24.3598 4.82999H35.2798ZM35.2798 3.98999H24.3598C23.8028 3.98999 23.2687 4.21124 22.8748 4.60507C22.481 4.99889 22.2598 5.53304 22.2598 6.08999V10.71C22.2598 11.2669 22.481 11.8011 22.8748 12.1949C23.2687 12.5887 23.8028 12.81 24.3598 12.81H35.2798C35.8367 12.81 36.3709 12.5887 36.7647 12.1949C37.1585 11.8011 37.3798 11.2669 37.3798 10.71V6.08999C37.3798 5.53304 37.1585 4.99889 36.7647 4.60507C36.3709 4.21124 35.8367 3.98999 35.2798 3.98999Z" fill="#BDC3C7"/>
<path d="M6.71906 12.3899H8.39906L16.3791 4.40991H6.71906C5.79254 4.40991 5.03906 5.16339 5.03906 6.08991V10.7099C5.03906 11.636 5.79254 12.3899 6.71906 12.3899Z" fill="#EBEEEF"/>
<path d="M11.7609 9.03008V6.93008H13.8609L15.9609 4.83008H5.62138C5.56439 4.87993 5.51079 4.93353 5.46094 4.99052V6.93008H8.82094V11.9701L11.7609 9.03008Z" fill="#D3D6D7"/>
<path d="M17.6391 4.82999C18.3338 4.82999 18.8991 5.39531 18.8991 6.08999V10.71C18.8991 11.4047 18.3338 11.97 17.6391 11.97H6.71914C6.02446 11.97 5.45914 11.4047 5.45914 10.71V6.08999C5.45914 5.39531 6.02446 4.82999 6.71914 4.82999H17.6391ZM17.6391 3.98999H6.71914C6.16219 3.98999 5.62804 4.21124 5.23422 4.60507C4.84039 4.99889 4.61914 5.53304 4.61914 6.08999V10.71C4.61914 11.2669 4.84039 11.8011 5.23422 12.1949C5.62804 12.5887 6.16219 12.81 6.71914 12.81H17.6391C18.1961 12.81 18.7302 12.5887 19.1241 12.1949C19.5179 11.8011 19.7391 11.2669 19.7391 10.71V6.08999C19.7391 5.53304 19.5179 4.99889 19.1241 4.60507C18.7302 4.21124 18.1961 3.98999 17.6391 3.98999Z" fill="#BDC3C7"/>
</g>
<defs>
<clipPath id="clip0_175_1065">
<rect width="42" height="42" fill="white"/>
</clipPath>
</defs>
</svg>
