<svg width="42" height="42" viewBox="0 0 42 42" fill="none" xmlns="http://www.w3.org/2000/svg">
<mask id="mask0_175_1037" style="mask-type:luminance" maskUnits="userSpaceOnUse" x="0" y="0" width="42" height="42">
<path d="M21 42C32.598 42 42 32.598 42 21C42 9.40202 32.598 0 21 0C9.40202 0 0 9.40202 0 21C0 32.598 9.40202 42 21 42Z" fill="white"/>
</mask>
<g mask="url(#mask0_175_1037)">
<path fill-rule="evenodd" clip-rule="evenodd" d="M28.1405 47.355C28.1405 47.6335 28.0298 47.9005 27.8329 48.0974C27.636 48.2943 27.3689 48.405 27.0905 48.405H9.03047C8.75199 48.405 8.48492 48.2943 8.28801 48.0974C8.09109 47.9005 7.98047 47.6335 7.98047 47.355V24.675C7.98047 15.225 15.1205 8.82712 15.1205 0.83998V-8.40002C14.7496 -8.56214 14.2805 -8.91452 14.2805 -9.34502V-11.97C14.2805 -12.2485 14.3911 -12.5156 14.588 -12.7125C14.7849 -12.9094 15.052 -13.02 15.3305 -13.02H20.7905C21.0689 -13.02 21.336 -12.9094 21.5329 -12.7125C21.7298 -12.5156 21.8405 -12.2485 21.8405 -11.97V-9.34502C21.8405 -8.91452 21.3713 -8.56214 21.0005 -8.40002V0.83998C21.0005 8.82292 28.1405 15.225 28.1405 24.675V47.355Z" fill="#27B99A"/>
<path fill-rule="evenodd" clip-rule="evenodd" d="M9.24047 25.6199H14.2805C14.6146 25.6199 14.9351 25.7526 15.1714 25.9889C15.4077 26.2252 15.5405 26.5457 15.5405 26.8799V40.7399C15.5405 41.074 15.4077 41.3945 15.1714 41.6308C14.9351 41.8671 14.6146 41.9999 14.2805 41.9999H9.24047C8.9063 41.9999 8.58581 41.8671 8.34951 41.6308C8.11322 41.3945 7.98047 41.074 7.98047 40.7399V26.8799C7.98047 26.5457 8.11322 26.2252 8.34951 25.9889C8.58581 25.7526 8.9063 25.6199 9.24047 25.6199Z" fill="#56C1A7"/>
<path fill-rule="evenodd" clip-rule="evenodd" d="M28.9799 40.3199V48.2999H34.8599V49.5599H21.4199V48.2999H27.2999V40.3199C27.2999 33.9804 21.4199 34.2891 21.4199 24.7799C21.4199 19.2854 22.6799 15.1199 22.6799 15.1199H33.5999C33.5999 15.1199 34.8599 19.2854 34.8599 24.7799C34.8599 34.2891 28.9799 33.9804 28.9799 40.3199Z" fill="#BDC2C7"/>
<path fill-rule="evenodd" clip-rule="evenodd" d="M27.2999 41.9999V40.3199C27.2999 33.9804 21.4199 34.2891 21.4199 24.7799C21.4199 19.2854 22.6799 15.1199 22.6799 15.1199H25.7123C27.0441 18.1632 28.1399 21.3951 28.1399 25.0949V41.9999H27.2999Z" fill="#EBECED"/>
<path fill-rule="evenodd" clip-rule="evenodd" d="M33.3968 20.5801C33.53 21.9051 33.5977 23.2359 33.5997 24.5676C33.5997 29.6113 32.0091 31.5732 30.3245 33.7105C29.3434 34.6925 27.0069 34.7068 25.9548 33.6534C24.2702 31.5165 22.6797 29.6118 22.6797 24.5676C22.6797 23.1576 22.7607 21.7998 22.8825 20.5801H33.3968Z" fill="#FBF063"/>
<path fill-rule="evenodd" clip-rule="evenodd" d="M30.326 33.7105C29.8304 34.2066 28.9883 34.4548 28.1411 34.4439V25.0951C28.1411 23.5113 27.9374 22.0144 27.6035 20.5801H33.3987C33.5201 21.7998 33.6011 23.158 33.6011 24.5676C33.6011 29.6118 32.0106 31.5732 30.326 33.7105Z" fill="#F0C419"/>
<path opacity="0.6" fill-rule="evenodd" clip-rule="evenodd" d="M24.9913 23.1001C24.8242 23.1002 24.6639 23.1666 24.5458 23.2848C24.4276 23.4031 24.3613 23.5634 24.3613 23.7305C24.3614 23.8977 24.4278 24.0579 24.5461 24.1761C24.6643 24.2942 24.8246 24.3606 24.9917 24.3605C25.0745 24.3605 25.1565 24.3442 25.2329 24.3125C25.3094 24.2808 25.3788 24.2343 25.4373 24.1758C25.4958 24.1172 25.5422 24.0478 25.5739 23.9713C25.6055 23.8948 25.6218 23.8129 25.6217 23.7301C25.6217 23.6473 25.6054 23.5654 25.5737 23.4889C25.542 23.4125 25.4956 23.343 25.437 23.2845C25.3785 23.226 25.309 23.1796 25.2325 23.148C25.156 23.1163 25.0741 23.1001 24.9913 23.1001ZM30.0313 26.4601C29.9486 26.4601 29.8666 26.4765 29.7902 26.5081C29.7137 26.5398 29.6443 26.5863 29.5858 26.6448C29.5273 26.7034 29.4809 26.7729 29.4492 26.8493C29.4176 26.9258 29.4013 27.0078 29.4013 27.0905C29.4014 27.1733 29.4177 27.2552 29.4494 27.3317C29.4811 27.4081 29.5275 27.4776 29.5861 27.5361C29.6446 27.5946 29.7141 27.641 29.7906 27.6726C29.867 27.7043 29.949 27.7205 30.0317 27.7205C30.1989 27.7205 30.3592 27.654 30.4773 27.5358C30.5955 27.4176 30.6618 27.2572 30.6617 27.0901C30.6617 26.923 30.5952 26.7627 30.477 26.6445C30.3588 26.5264 30.1985 26.46 30.0313 26.4601ZM29.6113 31.5001C29.5286 31.5001 29.4466 31.5165 29.3702 31.5482C29.2937 31.5798 29.2243 31.6263 29.1658 31.6848C29.1073 31.7434 29.0609 31.8129 29.0292 31.8893C28.9976 31.9658 28.9813 32.0478 28.9813 32.1305C28.9814 32.2133 28.9977 32.2952 29.0294 32.3717C29.0611 32.4481 29.1075 32.5176 29.1661 32.5761C29.2246 32.6346 29.2941 32.681 29.3706 32.7126C29.447 32.7443 29.529 32.7605 29.6117 32.7605C29.7789 32.7605 29.9392 32.694 30.0573 32.5758C30.1755 32.4576 30.2418 32.2972 30.2417 32.1301C30.2417 31.963 30.1752 31.8027 30.057 31.6845C29.9388 31.5664 29.7785 31.5 29.6113 31.5001Z" fill="white"/>
</g>
</svg>
