<svg width="20" height="15" viewBox="0 0 20 15" fill="none" xmlns="http://www.w3.org/2000/svg">
<path d="M7.1965 6.372C7.9405 6.732 8.5165 7.26 8.9245 7.956C9.3325 8.628 9.5365 9.432 9.5365 10.368C9.5365 11.76 9.0925 12.876 8.2045 13.716C7.3165 14.556 6.1765 14.976 4.7845 14.976C3.3925 14.976 2.2525 14.556 1.3645 13.716C0.4765 12.876 0.0325001 11.76 0.0325001 10.368C0.0325001 9.744 0.1165 9.12 0.2845 8.496C0.4525 7.872 0.8365 6.924 1.4365 5.652L3.9565 0.287998H8.9965L7.1965 6.372ZM17.6365 6.372C18.3805 6.732 18.9565 7.26 19.3645 7.956C19.7725 8.628 19.9765 9.432 19.9765 10.368C19.9765 11.76 19.5325 12.876 18.6445 13.716C17.7565 14.556 16.6165 14.976 15.2245 14.976C13.8325 14.976 12.6925 14.556 11.8045 13.716C10.9165 12.876 10.4725 11.76 10.4725 10.368C10.4725 9.744 10.5565 9.12 10.7245 8.496C10.8925 7.872 11.2765 6.924 11.8765 5.652L14.3965 0.287998H19.4365L17.6365 6.372Z" fill="#C6C6C6"/>
</svg>
